<svg width="957" height="238" viewBox="0 0 957 238" fill="none" xmlns="http://www.w3.org/2000/svg">
<rect width="957" height="238" fill="white"/>
<path fill-rule="evenodd" clip-rule="evenodd" d="M804 17H940V185H804V17Z" stroke="#8A8D8F" stroke-width="2" stroke-linejoin="round"/>
<path fill-rule="evenodd" clip-rule="evenodd" d="M814 82H929V174H814V82Z" fill="#E1E9EE"/>
<path d="M857 162.5H887" stroke="#D44527" stroke-width="8" stroke-linejoin="round"/>
<path fill-rule="evenodd" clip-rule="evenodd" d="M16 38H152V169H16L16 38Z" fill="#D44527"/>
<path d="M71.3079 73C72.0781 73 72.7323 73.2145 73.2704 73.6435C73.8085 74.0725 74.1251 74.6584 74.22 75.4013H72.7798C72.7165 75.0456 72.5424 74.7631 72.2575 74.5538C71.9726 74.3341 71.656 74.2242 71.3079 74.2242C70.7275 74.2242 70.2738 74.4335 69.9467 74.852C69.6302 75.2706 69.4719 75.8303 69.4719 76.5314C69.4719 77.1906 69.6302 77.7294 69.9467 78.148C70.2738 78.5561 70.7275 78.7601 71.3079 78.7601C71.7405 78.7601 72.0887 78.6293 72.3524 78.3677C72.6162 78.1061 72.7798 77.7399 72.8431 77.2691H74.2833C74.1989 78.1166 73.8877 78.7862 73.3495 79.278C72.8114 79.7593 72.1309 80 71.3079 80C70.6642 80 70.0892 79.8535 69.5827 79.5605C69.0762 79.2676 68.6858 78.8543 68.4115 78.3206C68.1372 77.7765 68 77.1801 68 76.5314C68 75.4955 68.3007 74.648 68.9021 73.9888C69.5141 73.3296 70.316 73 71.3079 73ZM78.3114 73C79.3138 73 80.1157 73.3348 80.7171 74.0045C81.3291 74.6637 81.635 75.506 81.635 76.5314C81.635 77.5254 81.3291 78.352 80.7171 79.0112C80.1157 79.6704 79.3138 80 78.3114 80C77.6677 80 77.0927 79.8535 76.5862 79.5605C76.0798 79.2676 75.6894 78.8543 75.415 78.3206C75.1407 77.7765 75.0035 77.1801 75.0035 76.5314C75.0035 75.4955 75.3042 74.648 75.9057 73.9888C76.5176 73.3296 77.3195 73 78.3114 73ZM76.4754 76.5314C76.4754 77.1906 76.6337 77.7294 76.9502 78.148C77.2773 78.5561 77.731 78.7601 78.3114 78.7601C78.8917 78.7601 79.3401 78.5561 79.6567 78.148C79.9838 77.7399 80.1473 77.201 80.1473 76.5314C80.1473 75.8199 79.9838 75.2601 79.6567 74.852C79.3401 74.4335 78.8917 74.2242 78.3114 74.2242C77.731 74.2242 77.2773 74.4335 76.9502 74.852C76.6337 75.2706 76.4754 75.8303 76.4754 76.5314ZM84.1257 73.157V78.6031H87.4177V79.843H82.6379V73.157H84.1257ZM90.8649 73C91.8673 73 92.6692 73.3348 93.2706 74.0045C93.8826 74.6637 94.1886 75.506 94.1886 76.5314C94.1886 77.5254 93.8826 78.352 93.2706 79.0112C92.6692 79.6704 91.8673 80 90.8649 80C90.2213 80 89.6462 79.8535 89.1397 79.5605C88.6333 79.2676 88.2429 78.8543 87.9685 78.3206C87.6942 77.7765 87.557 77.1801 87.557 76.5314C87.557 75.4955 87.8577 74.648 88.4592 73.9888C89.0712 73.3296 89.8731 73 90.8649 73ZM89.029 76.5314C89.029 77.1906 89.1872 77.7294 89.5038 78.148C89.8309 78.5561 90.2846 78.7601 90.8649 78.7601C91.4452 78.7601 91.8936 78.5561 92.2102 78.148C92.5373 77.7399 92.7008 77.201 92.7008 76.5314C92.7008 75.8199 92.5373 75.2601 92.2102 74.852C91.8936 74.4335 91.4452 74.2242 90.8649 74.2242C90.2846 74.2242 89.8309 74.4335 89.5038 74.852C89.1872 75.2706 89.029 75.8303 89.029 76.5314ZM98.8633 73.157C99.412 73.157 99.871 73.3296 100.24 73.6749C100.62 74.0202 100.81 74.4649 100.81 75.009C100.81 75.4275 100.72 75.778 100.541 76.0605C100.362 76.3326 100.093 76.5366 99.7338 76.6726V76.6883C100.05 76.772 100.293 76.9604 100.462 77.2534C100.631 77.5463 100.726 77.9963 100.747 78.6031C100.757 79.21 100.842 79.6233 101 79.843H99.5281C99.4331 79.6233 99.3698 79.2728 99.3382 78.7915C99.296 78.1323 99.1852 77.7085 99.0058 77.5202C98.837 77.3318 98.5679 77.2377 98.1986 77.2377H96.6792V79.843H95.1915V73.157H98.8633ZM98.3411 76.1861C98.647 76.1861 98.8845 76.1129 99.0533 75.9664C99.2326 75.8094 99.3223 75.5635 99.3223 75.2287C99.3223 74.9043 99.2379 74.6689 99.0691 74.5224C98.9003 74.3759 98.6576 74.3027 98.3411 74.3027H96.6792V76.1861H98.3411Z" fill="white"/>
<path d="M57.4599 86.157V87.3969H55.4574V92.843H54.0025V87.3969H52V86.157H57.4599ZM59.1535 86.157L60.718 88.7937L62.2668 86.157H63.8938L61.422 90.2691V92.843H59.967V90.2377L57.5108 86.157H59.1535ZM67.5107 86.157C68.2095 86.157 68.7623 86.3558 69.169 86.7534C69.5758 87.1405 69.7792 87.6584 69.7792 88.3072C69.7792 88.9454 69.5758 89.4634 69.169 89.861C68.7623 90.2481 68.2095 90.4417 67.5107 90.4417H65.9306V92.843H64.46V86.157H67.5107ZM67.104 89.296C67.5316 89.296 67.8445 89.2175 68.0426 89.0605C68.2512 88.9036 68.3555 88.6525 68.3555 88.3072C68.3555 87.9619 68.2564 87.7108 68.0583 87.5538C67.8601 87.3864 67.5472 87.3027 67.1196 87.3027H65.9306V89.296H67.104ZM73.6777 86C74.6685 86 75.4611 86.3348 76.0556 87.0045C76.6606 87.6637 76.963 88.506 76.963 89.5314C76.963 90.5254 76.6606 91.352 76.0556 92.0112C75.4611 92.6704 74.6685 93 73.6777 93C73.0415 93 72.4731 92.8535 71.9724 92.5605C71.4718 92.2676 71.0859 91.8543 70.8147 91.3206C70.5436 90.7765 70.408 90.1801 70.408 89.5314C70.408 88.4955 70.7052 87.648 71.2997 86.9888C71.9046 86.3296 72.6973 86 73.6777 86ZM71.8629 89.5314C71.8629 90.1906 72.0194 90.7294 72.3323 91.148C72.6556 91.5561 73.104 91.7601 73.6777 91.7601C74.2513 91.7601 74.6946 91.5561 75.0075 91.148C75.3308 90.7399 75.4924 90.201 75.4924 89.5314C75.4924 88.8199 75.3308 88.2601 75.0075 87.852C74.6946 87.4335 74.2513 87.2242 73.6777 87.2242C73.104 87.2242 72.6556 87.4335 72.3323 87.852C72.0194 88.2706 71.8629 88.8303 71.8629 89.5314ZM80.9424 86C81.6621 86 82.2879 86.2093 82.8198 86.6278C83.3621 87.0463 83.675 87.6218 83.7585 88.3543H82.3504C82.2566 87.9776 82.0845 87.6951 81.8342 87.5067C81.5943 87.3184 81.2971 87.2242 80.9424 87.2242C80.3688 87.2242 79.9203 87.4387 79.597 87.8677C79.2841 88.2862 79.1277 88.8408 79.1277 89.5314C79.1277 90.1801 79.2841 90.7138 79.597 91.1323C79.9099 91.5508 80.3584 91.7601 80.9424 91.7601C81.4118 91.7601 81.782 91.6398 82.0532 91.3991C82.3244 91.1584 82.486 90.7975 82.5382 90.3161H81.052V89.2175H83.868V92.843H82.9293L82.7729 92.0897C82.533 92.3931 82.2618 92.6233 81.9593 92.7803C81.6569 92.9268 81.3179 93 80.9424 93C80.3062 93 79.7378 92.8535 79.2372 92.5605C78.7366 92.2676 78.3507 91.8543 78.0795 91.3206C77.8083 90.7765 77.6727 90.1801 77.6727 89.5314C77.6727 88.4955 77.97 87.648 78.5645 86.9888C79.1694 86.3296 79.9621 86 80.9424 86ZM88.6708 86.157C89.2131 86.157 89.6668 86.3296 90.0318 86.6749C90.4073 87.0202 90.595 87.4649 90.595 88.009C90.595 88.4275 90.5064 88.778 90.3291 89.0605C90.1518 89.3326 89.8858 89.5366 89.5312 89.6726V89.6883C89.8441 89.772 90.084 89.9604 90.2509 90.2534C90.4177 90.5463 90.5116 90.9963 90.5325 91.6031C90.5429 92.21 90.6263 92.6233 90.7828 92.843H89.3278C89.234 92.6233 89.1714 92.2728 89.1401 91.7915C89.0984 91.1323 88.9889 90.7085 88.8116 90.5202C88.6447 90.3318 88.3787 90.2377 88.0137 90.2377H86.5118V92.843H85.0413V86.157H88.6708ZM88.1545 89.1861C88.457 89.1861 88.6916 89.1129 88.8585 88.9664C89.0358 88.8094 89.1245 88.5635 89.1245 88.2287C89.1245 87.9043 89.041 87.6689 88.8742 87.5224C88.7073 87.3759 88.4674 87.3027 88.1545 87.3027H86.5118V89.1861H88.1545ZM95.1184 86.157L97.6059 92.843H96.0884L95.5877 91.352H93.0846L92.5684 92.843H91.0821L93.6165 86.157H95.1184ZM94.3362 87.8049L93.4757 90.2534H95.1966L94.3675 87.8049H94.3362ZM101.235 86.157C101.934 86.157 102.487 86.3558 102.893 86.7534C103.3 87.1405 103.504 87.6584 103.504 88.3072C103.504 88.9454 103.3 89.4634 102.893 89.861C102.487 90.2481 101.934 90.4417 101.235 90.4417H99.655V92.843H98.1844V86.157H101.235ZM100.828 89.296C101.256 89.296 101.569 89.2175 101.767 89.0605C101.976 88.9036 102.08 88.6525 102.08 88.3072C102.08 87.9619 101.981 87.7108 101.783 87.5538C101.584 87.3864 101.272 87.3027 100.844 87.3027H99.655V89.296H100.828ZM105.885 86.157V88.7152H108.591V86.157H110.046V92.843H108.591V89.9552H105.885V92.843H104.414V86.157H105.885ZM112.26 86.157L113.824 88.7937L115.373 86.157H117L114.528 90.2691V92.843H113.073V90.2377L110.617 86.157H112.26Z" fill="white"/>
<path d="M66.7328 99C67.5391 99 68.1882 99.1883 68.6803 99.565C69.1725 99.9312 69.4185 100.46 69.4185 101.15H67.9893C67.9683 100.815 67.8532 100.564 67.6438 100.397C67.4343 100.219 67.1098 100.13 66.67 100.13C66.3768 100.13 66.1308 100.198 65.9318 100.334C65.7433 100.47 65.6491 100.658 65.6491 100.899C65.6491 101.067 65.6858 101.192 65.7591 101.276C65.8428 101.359 66.0051 101.448 66.2459 101.543C66.4972 101.626 67.0365 101.768 67.8636 101.966C68.4186 102.092 68.8531 102.317 69.1672 102.641C69.4813 102.966 69.6384 103.368 69.6384 103.85C69.6384 104.499 69.3923 105.022 68.9002 105.419C68.4186 105.806 67.738 106 66.8585 106C66.0104 106 65.3193 105.796 64.7853 105.388C64.2618 104.969 64 104.394 64 103.661V103.63H65.4292C65.4292 104.038 65.5654 104.347 65.8376 104.556C66.1098 104.755 66.4658 104.854 66.9056 104.854C67.3035 104.854 67.6176 104.786 67.8479 104.65C68.0888 104.504 68.2092 104.294 68.2092 104.022C68.2092 103.813 68.1149 103.641 67.9265 103.504C67.7485 103.358 67.4605 103.232 67.0626 103.128C66.5496 103.013 66.0836 102.892 65.6648 102.767C65.246 102.641 64.9005 102.432 64.6282 102.139C64.356 101.846 64.2199 101.469 64.2199 101.009C64.2199 100.413 64.4607 99.9312 64.9424 99.565C65.424 99.1883 66.0208 99 66.7328 99ZM73.5713 99.157C74.2728 99.157 74.8278 99.3558 75.2361 99.7534C75.6445 100.141 75.8486 100.658 75.8486 101.307C75.8486 101.945 75.6445 102.463 75.2361 102.861C74.8278 103.248 74.2728 103.442 73.5713 103.442H71.985V105.843H70.5087V99.157H73.5713ZM73.1629 102.296C73.5922 102.296 73.9064 102.217 74.1053 102.061C74.3147 101.904 74.4194 101.652 74.4194 101.307C74.4194 100.962 74.3199 100.711 74.121 100.554C73.9221 100.386 73.6079 100.303 73.1786 100.303H71.985V102.296H73.1629ZM79.4896 99.157L81.9868 105.843H80.4633L79.9607 104.352H77.4478L76.9295 105.843H75.4375L77.9818 99.157H79.4896ZM78.7043 100.805L77.8405 103.253H79.5681L78.7357 100.805H78.7043ZM85.3979 99C86.1623 99 86.8115 99.2145 87.3455 99.6435C87.8795 100.072 88.1936 100.658 88.2878 101.401H86.8586C86.7958 101.046 86.623 100.763 86.3403 100.554C86.0576 100.334 85.7435 100.224 85.3979 100.224C84.822 100.224 84.3718 100.433 84.0472 100.852C83.7331 101.271 83.576 101.83 83.576 102.531C83.576 103.191 83.7331 103.729 84.0472 104.148C84.3718 104.556 84.822 104.76 85.3979 104.76C85.8272 104.76 86.1727 104.629 86.4345 104.368C86.6963 104.106 86.8586 103.74 86.9214 103.269H88.3506C88.2669 104.117 87.958 104.786 87.424 105.278C86.89 105.759 86.2146 106 85.3979 106C84.7592 106 84.1886 105.854 83.686 105.561C83.1834 105.268 82.796 104.854 82.5238 104.321C82.2515 103.777 82.1154 103.18 82.1154 102.531C82.1154 101.496 82.4138 100.648 83.0106 99.9888C83.6179 99.3296 84.4137 99 85.3979 99ZM90.8243 99.157V105.843H89.348V99.157H90.8243ZM93.5739 99.157L96.3696 103.646H96.3853V99.157H97.7674V105.843H96.3068L93.5111 101.37H93.4954V105.843H92.1133V99.157H93.5739ZM102.063 99C102.785 99 103.414 99.2093 103.948 99.6278C104.492 100.046 104.806 100.622 104.89 101.354H103.477C103.382 100.978 103.21 100.695 102.958 100.507C102.717 100.318 102.419 100.224 102.063 100.224C101.487 100.224 101.037 100.439 100.712 100.868C100.398 101.286 100.241 101.841 100.241 102.531C100.241 103.18 100.398 103.714 100.712 104.132C101.026 104.551 101.477 104.76 102.063 104.76C102.534 104.76 102.906 104.64 103.178 104.399C103.45 104.158 103.613 103.797 103.665 103.316H102.173V102.217H105V105.843H104.058L103.901 105.09C103.66 105.393 103.388 105.623 103.084 105.78C102.78 105.927 102.44 106 102.063 106C101.424 106 100.854 105.854 100.351 105.561C99.8485 105.268 99.4611 104.854 99.1888 104.321C98.9166 103.777 98.7805 103.18 98.7805 102.531C98.7805 101.496 99.0789 100.648 99.6757 99.9888C100.283 99.3296 101.079 99 102.063 99Z" fill="white"/>
<path d="M76.3011 112C77.0276 112 77.6594 112.209 78.1964 112.628C78.7439 113.046 79.0598 113.622 79.1441 114.354H77.7226C77.6278 113.978 77.4541 113.695 77.2013 113.507C76.9592 113.318 76.6591 113.224 76.3011 113.224C75.7219 113.224 75.2691 113.439 74.9427 113.868C74.6268 114.286 74.4689 114.841 74.4689 115.531C74.4689 116.18 74.6268 116.714 74.9427 117.132C75.2586 117.551 75.7114 117.76 76.3011 117.76C76.7749 117.76 77.1487 117.64 77.4225 117.399C77.6962 117.158 77.8594 116.797 77.9121 116.316H76.4116V115.217H79.2546V118.843H78.307L78.149 118.09C77.9068 118.393 77.6331 118.623 77.3277 118.78C77.0223 118.927 76.6801 119 76.3011 119C75.6587 119 75.0849 118.854 74.5795 118.561C74.074 118.268 73.6844 117.854 73.4107 117.321C73.1369 116.777 73 116.18 73 115.531C73 114.496 73.3001 113.648 73.9003 112.989C74.511 112.33 75.3113 112 76.3011 112ZM84.1035 112.157C84.6511 112.157 85.1091 112.33 85.4776 112.675C85.8567 113.02 86.0462 113.465 86.0462 114.009C86.0462 114.428 85.9567 114.778 85.7777 115.061C85.5987 115.333 85.3302 115.537 84.9722 115.673V115.688C85.2881 115.772 85.5303 115.96 85.6988 116.253C85.8672 116.546 85.962 116.996 85.9831 117.603C85.9936 118.21 86.0778 118.623 86.2358 118.843H84.7669C84.6721 118.623 84.6089 118.273 84.5773 117.791C84.5352 117.132 84.4247 116.709 84.2457 116.52C84.0772 116.332 83.8087 116.238 83.4401 116.238H81.9239V118.843H80.4392V112.157H84.1035ZM83.5823 115.186C83.8877 115.186 84.1246 115.113 84.293 114.966C84.472 114.809 84.5616 114.564 84.5616 114.229C84.5616 113.904 84.4773 113.669 84.3088 113.522C84.1404 113.376 83.8982 113.303 83.5823 113.303H81.9239V115.186H83.5823ZM88.7334 112.157V118.843H87.2487V112.157H88.7334ZM92.9832 112.157C93.8783 112.157 94.6048 112.45 95.1629 113.036C95.721 113.611 96 114.422 96 115.469C96 116.504 95.7262 117.326 95.1787 117.933C94.6311 118.54 93.8993 118.843 92.9832 118.843H90.0297V112.157H92.9832ZM92.8727 117.603C93.3465 117.603 93.7361 117.436 94.0415 117.101C94.3574 116.766 94.5153 116.264 94.5153 115.594C94.5153 114.82 94.3521 114.26 94.0257 113.915C93.6993 113.57 93.2254 113.397 92.6042 113.397H91.5144V117.603H92.8727Z" fill="white"/>
<path d="M71.4676 125.157V131.843H70V125.157H71.4676ZM75.731 125C76.4908 125 77.1362 125.215 77.667 125.644C78.1978 126.072 78.5101 126.658 78.6038 127.401H77.183C77.1205 127.046 76.9488 126.763 76.6678 126.554C76.3867 126.334 76.0745 126.224 75.731 126.224C75.1585 126.224 74.711 126.433 74.3883 126.852C74.076 127.271 73.9199 127.83 73.9199 128.531C73.9199 129.191 74.076 129.729 74.3883 130.148C74.711 130.556 75.1585 130.76 75.731 130.76C76.1577 130.76 76.5012 130.629 76.7614 130.368C77.0217 130.106 77.183 129.74 77.2454 129.269H78.6662C78.5829 130.117 78.2759 130.786 77.7451 131.278C77.2142 131.759 76.5429 132 75.731 132C75.0961 132 74.5288 131.854 74.0292 131.561C73.5296 131.268 73.1445 130.854 72.8738 130.321C72.6032 129.777 72.4679 129.18 72.4679 128.531C72.4679 127.496 72.7645 126.648 73.3578 125.989C73.9615 125.33 74.7526 125 75.731 125ZM82.6397 125C83.6286 125 84.4196 125.335 85.0129 126.004C85.6166 126.664 85.9184 127.506 85.9184 128.531C85.9184 129.525 85.6166 130.352 85.0129 131.011C84.4196 131.67 83.6286 132 82.6397 132C82.0048 132 81.4375 131.854 80.9379 131.561C80.4383 131.268 80.0532 130.854 79.7826 130.321C79.512 129.777 79.3766 129.18 79.3766 128.531C79.3766 127.496 79.6733 126.648 80.2666 125.989C80.8703 125.33 81.6613 125 82.6397 125ZM80.8286 128.531C80.8286 129.191 80.9848 129.729 81.297 130.148C81.6197 130.556 82.0673 130.76 82.6397 130.76C83.2122 130.76 83.6546 130.556 83.9668 130.148C84.2895 129.74 84.4508 129.201 84.4508 128.531C84.4508 127.82 84.2895 127.26 83.9668 126.852C83.6546 126.433 83.2122 126.224 82.6397 126.224C82.0673 126.224 81.6197 126.433 81.297 126.852C80.9848 127.271 80.8286 127.83 80.8286 128.531ZM88.3598 125.157L91.1389 129.646H91.1545V125.157H92.5284V131.843H91.0764L88.2973 127.37H88.2817V131.843H86.9078V125.157H88.3598ZM96.1116 125C96.9131 125 97.5584 125.188 98.0476 125.565C98.5368 125.931 98.7814 126.46 98.7814 127.15H97.3606C97.3398 126.815 97.2253 126.564 97.0172 126.397C96.809 126.219 96.4863 126.13 96.0492 126.13C95.7577 126.13 95.5131 126.198 95.3154 126.334C95.128 126.47 95.0343 126.658 95.0343 126.899C95.0343 127.067 95.0708 127.192 95.1436 127.276C95.2269 127.359 95.3882 127.448 95.6276 127.543C95.8774 127.626 96.4135 127.768 97.2357 127.966C97.7874 128.092 98.2194 128.317 98.5316 128.641C98.8439 128.966 99 129.368 99 129.85C99 130.499 98.7554 131.022 98.2662 131.419C97.7874 131.806 97.1108 132 96.2365 132C95.3934 132 94.7065 131.796 94.1756 131.388C93.6552 130.969 93.395 130.394 93.395 129.661V129.63H94.8158C94.8158 130.038 94.9511 130.347 95.2217 130.556C95.4923 130.755 95.8462 130.854 96.2834 130.854C96.6789 130.854 96.9911 130.786 97.2201 130.65C97.4595 130.504 97.5792 130.294 97.5792 130.022C97.5792 129.813 97.4855 129.641 97.2982 129.504C97.1212 129.358 96.835 129.232 96.4395 129.128C95.9295 129.013 95.4663 128.892 95.0499 128.767C94.6336 128.641 94.2901 128.432 94.0195 128.139C93.7489 127.846 93.6136 127.469 93.6136 127.009C93.6136 126.413 93.853 125.931 94.3317 125.565C94.8105 125.188 95.4038 125 96.1116 125Z" fill="white"/>
<path fill-rule="evenodd" clip-rule="evenodd" d="M804 17H940V40H804V17Z" fill="#8A8D8F"/>
<path fill-rule="evenodd" clip-rule="evenodd" d="M814 50H929V73H814V50Z" fill="#E1E9EE"/>
<path d="M892 62.5H922" stroke="#D44527" stroke-width="8" stroke-linejoin="round"/>
<path fill-rule="evenodd" clip-rule="evenodd" d="M824 105H856V151H824V105Z" fill="#EEEEEE"/>
<path fill-rule="evenodd" clip-rule="evenodd" d="M824 105H856V151H824V105Z" stroke="#8A8D8F" stroke-linejoin="round"/>
<path fill-rule="evenodd" clip-rule="evenodd" d="M829 110H850V126H829V110Z" fill="#BFBFBF"/>
<path fill-rule="evenodd" clip-rule="evenodd" d="M829 131H850V147H829V131Z" fill="#BFBFBF"/>
<path d="M824 93.5H919" stroke="#8A8D8F" stroke-width="8" stroke-linejoin="round"/>
<path fill-rule="evenodd" clip-rule="evenodd" d="M855 105H887V151H855V105Z" fill="#EEEEEE"/>
<path fill-rule="evenodd" clip-rule="evenodd" d="M855 105H887V151H855V105Z" stroke="#8A8D8F" stroke-linejoin="round"/>
<path fill-rule="evenodd" clip-rule="evenodd" d="M861 110H882V126H861V110Z" fill="#BFBFBF"/>
<path fill-rule="evenodd" clip-rule="evenodd" d="M861 131H882V147H861V131Z" fill="#BFBFBF"/>
<path fill-rule="evenodd" clip-rule="evenodd" d="M887 105H919V151H887V105Z" fill="#EEEEEE"/>
<path fill-rule="evenodd" clip-rule="evenodd" d="M887 105H919V151H887V105Z" stroke="#8A8D8F" stroke-linejoin="round"/>
<path fill-rule="evenodd" clip-rule="evenodd" d="M892 110H913V126H892V110Z" fill="#BFBFBF"/>
<path fill-rule="evenodd" clip-rule="evenodd" d="M892 131H913V147H892V131Z" fill="#BFBFBF"/>
<path fill-rule="evenodd" clip-rule="evenodd" d="M607 82H722V174H607V82Z" fill="#E1E9EE"/>
<path d="M650 162.5H680" stroke="#D44527" stroke-width="8" stroke-linejoin="round"/>
<path fill-rule="evenodd" clip-rule="evenodd" d="M617 105H649V151H617V105Z" fill="#EEEEEE"/>
<path fill-rule="evenodd" clip-rule="evenodd" d="M617 105H649V151H617V105Z" stroke="#8A8D8F" stroke-linejoin="round"/>
<path fill-rule="evenodd" clip-rule="evenodd" d="M622 110H643V126H622V110Z" fill="#BFBFBF"/>
<path fill-rule="evenodd" clip-rule="evenodd" d="M622 131H643V147H622V131Z" fill="#BFBFBF"/>
<path d="M618 93.5H713" stroke="#8A8D8F" stroke-width="8" stroke-linejoin="round"/>
<path fill-rule="evenodd" clip-rule="evenodd" d="M649 105H681V151H649V105Z" fill="#EEEEEE"/>
<path fill-rule="evenodd" clip-rule="evenodd" d="M649 105H681V151H649V105Z" stroke="#8A8D8F" stroke-linejoin="round"/>
<path fill-rule="evenodd" clip-rule="evenodd" d="M654 110H675V126H654V110Z" fill="#BFBFBF"/>
<path fill-rule="evenodd" clip-rule="evenodd" d="M654 131H675V147H654V131Z" fill="#BFBFBF"/>
<path fill-rule="evenodd" clip-rule="evenodd" d="M681 105H713V151H681V105Z" fill="#EEEEEE"/>
<path fill-rule="evenodd" clip-rule="evenodd" d="M681 105H713V151H681V105Z" stroke="#8A8D8F" stroke-linejoin="round"/>
<path fill-rule="evenodd" clip-rule="evenodd" d="M686 110H707V126H686V110Z" fill="#BFBFBF"/>
<path fill-rule="evenodd" clip-rule="evenodd" d="M686 131H707V147H686V131Z" fill="#BFBFBF"/>
<path d="M409 93.5H504" stroke="#8A8D8F" stroke-width="8" stroke-linejoin="round"/>
<path fill-rule="evenodd" clip-rule="evenodd" d="M409 105H441V151H409V105Z" fill="#EEEEEE"/>
<path fill-rule="evenodd" clip-rule="evenodd" d="M409 105H441V151H409V105Z" stroke="#8A8D8F" stroke-linejoin="round"/>
<path fill-rule="evenodd" clip-rule="evenodd" d="M414 110H435V126H414V110Z" fill="#BFBFBF"/>
<path fill-rule="evenodd" clip-rule="evenodd" d="M414 131H435V147H414V131Z" fill="#BFBFBF"/>
<path d="M211 162.5H241" stroke="#D44527" stroke-width="8" stroke-linejoin="round"/>
<path fill-rule="evenodd" clip-rule="evenodd" d="M211 131H232V147H211V131Z" fill="#BFBFBF"/>
<path d="M172 50.5H779" stroke="#262626" stroke-width="2" stroke-linejoin="round" stroke-dasharray="2 6"/>
<path d="M172 91.5H394" stroke="#262626" stroke-width="2" stroke-linejoin="round" stroke-dasharray="2 6"/>
<path d="M520 91.5H593" stroke="#262626" stroke-width="2" stroke-linejoin="round" stroke-dasharray="2 6"/>
<path d="M172 138.5H194" stroke="#262626" stroke-width="2" stroke-linejoin="round" stroke-dasharray="2 6"/>
<path d="M248 138.5H394" stroke="#262626" stroke-width="2" stroke-linejoin="round" stroke-dasharray="2 6"/>
<path d="M451 138.5H597" stroke="#262626" stroke-width="2" stroke-linejoin="round" stroke-dasharray="2 6"/>
<path d="M172 163.5H194" stroke="#262626" stroke-width="2" stroke-linejoin="round" stroke-dasharray="2 6"/>
<path d="M253 163.5H587" stroke="#262626" stroke-width="2" stroke-linejoin="round" stroke-dasharray="2 6"/>
<path d="M732 130.5H788" stroke="#262626" stroke-width="2" stroke-linejoin="round" stroke-dasharray="2 6"/>
<path d="M60.4609 208.969C60.4922 210.453 61.5 212.203 64.5938 212.203C67.1641 212.203 68.8203 210.953 68.8203 208.859C68.8203 206.953 67.5312 206.195 65.9531 205.852L64.2969 205.469C63.3359 205.258 62.8359 204.82 62.8359 204.18C62.8359 203.312 63.5625 202.773 64.6953 202.773C65.9766 202.773 66.6094 203.484 66.6797 204.281H68.6641C68.6328 202.367 66.9922 201.117 64.7031 201.117C62.5078 201.117 60.7266 202.266 60.7266 204.344C60.7266 206.133 61.9688 206.961 63.4297 207.289L65.0781 207.672C66.1797 207.922 66.7188 208.305 66.7188 209.055C66.7188 209.938 66.0078 210.531 64.7109 210.531C63.3125 210.531 62.5703 209.797 62.5 208.969H60.4609ZM70.125 208.156C70.125 210.57 71.5156 212.148 73.8047 212.148C75.7656 212.148 77.0938 211.164 77.2656 209.312H75.3672C75.2734 209.945 74.8281 210.5 73.9141 210.5C72.8516 210.5 72.1875 209.609 72.1875 208.148V207.492C72.1875 206.078 72.8359 205.203 73.9062 205.203C74.6719 205.203 75.2188 205.797 75.3281 206.484H77.2266C77.1797 204.891 75.9062 203.562 73.8125 203.562C71.5 203.562 70.125 205.172 70.125 207.469V208.156ZM83.3672 210.992H83.4531V212H85.3984V206.398C85.3984 204.469 83.9453 203.578 82.0391 203.578C79.6484 203.578 78.7578 204.859 78.6953 206.242H80.6172C80.6719 205.578 81.1562 205.133 82 205.133C82.8672 205.133 83.3672 205.594 83.3672 206.422V207.172H81.3438C79.4219 207.172 78.3906 208.125 78.3906 209.609C78.3906 211.172 79.5 212.125 81.1172 212.125C82.3359 212.125 83.0391 211.602 83.3672 210.992ZM81.7812 210.625C81.0938 210.625 80.4375 210.25 80.4375 209.477C80.4375 208.844 80.8828 208.406 81.7891 208.406H83.3672V209.281C83.3672 210.086 82.6641 210.625 81.7812 210.625ZM87.4219 212H89.4844V200.773H87.4219V212ZM95.0078 212.148C97.2266 212.148 98.3047 210.828 98.5 209.5H96.5938C96.4219 210.172 95.8438 210.578 95.0234 210.578C93.9766 210.578 93.2656 209.781 93.2656 208.523V208.297H98.5781V207.484C98.5781 205.102 97.1797 203.562 94.9219 203.562C92.7422 203.562 91.25 205 91.25 207.43V208.188C91.25 210.727 92.7344 212.148 95.0078 212.148ZM93.2656 206.992V206.977C93.2656 205.914 93.9297 205.094 94.9375 205.094C95.9375 205.094 96.5859 205.906 96.5859 206.977V206.992H93.2656ZM99.9922 206.172C99.9922 207.703 101.195 208.258 102.688 208.57C103.75 208.781 104.742 208.898 104.742 209.703C104.742 210.242 104.289 210.703 103.32 210.703C102.438 210.703 101.906 210.281 101.82 209.672H99.8281C99.8281 211.148 101.07 212.148 103.203 212.148C105.398 212.148 106.734 211.141 106.734 209.438C106.734 207.906 105.617 207.383 104.094 207.109C103.148 206.938 101.953 206.797 101.953 205.977C101.953 205.367 102.469 204.992 103.273 204.992C104.273 204.992 104.609 205.57 104.664 206.094H106.484C106.484 204.555 105.289 203.562 103.312 203.562C101.57 203.562 99.9922 204.328 99.9922 206.172Z" fill="black"/>
<path d="M251.067 210.273H246.294V207.414H250.778V205.797H246.294V203.062H251.067V201.336H244.2V212H251.067V210.273ZM252.958 212H255.02V200.773H252.958V212ZM260.544 212.148C262.762 212.148 263.84 210.828 264.036 209.5H262.13C261.958 210.172 261.38 210.578 260.559 210.578C259.512 210.578 258.801 209.781 258.801 208.523V208.297H264.114V207.484C264.114 205.102 262.715 203.562 260.458 203.562C258.278 203.562 256.786 205 256.786 207.43V208.188C256.786 210.727 258.27 212.148 260.544 212.148ZM258.801 206.992V206.977C258.801 205.914 259.465 205.094 260.473 205.094C261.473 205.094 262.122 205.906 262.122 206.977V206.992H258.801ZM265.809 212H267.856V206.969C267.856 205.82 268.512 205.297 269.317 205.297C270.153 205.297 270.77 205.789 270.77 206.984V212H272.755V206.984C272.755 205.922 273.309 205.297 274.223 205.297C275.098 205.297 275.669 205.852 275.669 206.906V212H277.723V206.336C277.723 204.68 276.731 203.578 275.02 203.578C273.63 203.578 272.77 204.297 272.497 205H272.411C272.13 204.148 271.364 203.578 270.09 203.578C268.848 203.578 268.145 204.297 267.919 204.898H267.809V203.711H265.809V212ZM283.153 212.148C285.372 212.148 286.45 210.828 286.645 209.5H284.739C284.567 210.172 283.989 210.578 283.169 210.578C282.122 210.578 281.411 209.781 281.411 208.523V208.297H286.723V207.484C286.723 205.102 285.325 203.562 283.067 203.562C280.887 203.562 279.395 205 279.395 207.43V208.188C279.395 210.727 280.88 212.148 283.153 212.148ZM281.411 206.992V206.977C281.411 205.914 282.075 205.094 283.083 205.094C284.083 205.094 284.731 205.906 284.731 206.977V206.992H281.411ZM288.419 212H290.465V207.141C290.465 206.094 291.044 205.328 292.106 205.328C292.989 205.328 293.723 205.836 293.723 207.109V212H295.778V206.664C295.778 204.633 294.598 203.578 292.911 203.578C291.528 203.578 290.77 204.352 290.505 204.922H290.419V203.711H288.419V212ZM298.348 203.711H297.137V205.305H298.309V209.656C298.309 211.352 298.989 212.047 301.051 212.047C301.465 212.047 301.833 212.008 301.989 211.977V210.453C301.895 210.461 301.723 210.469 301.551 210.469C300.7 210.469 300.348 210.219 300.348 209.391V205.305H301.958V203.711H300.348V201.727H298.348V203.711ZM303.372 206.172C303.372 207.703 304.575 208.258 306.067 208.57C307.13 208.781 308.122 208.898 308.122 209.703C308.122 210.242 307.669 210.703 306.7 210.703C305.817 210.703 305.286 210.281 305.2 209.672H303.208C303.208 211.148 304.45 212.148 306.583 212.148C308.778 212.148 310.114 211.141 310.114 209.438C310.114 207.906 308.997 207.383 307.473 207.109C306.528 206.938 305.333 206.797 305.333 205.977C305.333 205.367 305.848 204.992 306.653 204.992C307.653 204.992 307.989 205.57 308.044 206.094H309.864C309.864 204.555 308.669 203.562 306.692 203.562C304.95 203.562 303.372 204.328 303.372 206.172Z" fill="black"/>
<path d="M425.958 201.336V212H428.067V208.422H430.2C432.497 208.422 433.825 206.922 433.825 204.891C433.825 202.891 432.512 201.336 430.223 201.336H425.958ZM428.059 203.016H429.817C430.981 203.016 431.676 203.695 431.676 204.891C431.676 206.336 430.794 206.766 429.325 206.766H428.059V203.016ZM439.723 210.992H439.809V212H441.755V206.398C441.755 204.469 440.301 203.578 438.395 203.578C436.005 203.578 435.114 204.859 435.051 206.242H436.973C437.028 205.578 437.512 205.133 438.356 205.133C439.223 205.133 439.723 205.594 439.723 206.422V207.172H437.7C435.778 207.172 434.747 208.125 434.747 209.609C434.747 211.172 435.856 212.125 437.473 212.125C438.692 212.125 439.395 211.602 439.723 210.992ZM438.137 210.625C437.45 210.625 436.794 210.25 436.794 209.477C436.794 208.844 437.239 208.406 438.145 208.406H439.723V209.281C439.723 210.086 439.02 210.625 438.137 210.625ZM444.34 203.711H443.13V205.305H444.301V209.656C444.301 211.352 444.981 212.047 447.044 212.047C447.458 212.047 447.825 212.008 447.981 211.977V210.453C447.887 210.461 447.715 210.469 447.544 210.469C446.692 210.469 446.34 210.219 446.34 209.391V205.305H447.95V203.711H446.34V201.727H444.34V203.711ZM450.434 203.711H449.223V205.305H450.395V209.656C450.395 211.352 451.075 212.047 453.137 212.047C453.551 212.047 453.919 212.008 454.075 211.977V210.453C453.981 210.461 453.809 210.469 453.637 210.469C452.786 210.469 452.434 210.219 452.434 209.391V205.305H454.044V203.711H452.434V201.727H450.434V203.711ZM459.13 212.148C461.348 212.148 462.426 210.828 462.622 209.5H460.715C460.544 210.172 459.965 210.578 459.145 210.578C458.098 210.578 457.387 209.781 457.387 208.523V208.297H462.7V207.484C462.7 205.102 461.301 203.562 459.044 203.562C456.864 203.562 455.372 205 455.372 207.43V208.188C455.372 210.727 456.856 212.148 459.13 212.148ZM457.387 206.992V206.977C457.387 205.914 458.051 205.094 459.059 205.094C460.059 205.094 460.708 205.906 460.708 206.977V206.992H457.387ZM464.395 212H466.497V207.273C466.497 206.164 466.965 205.352 468.317 205.352C468.637 205.352 468.965 205.375 469.13 205.422V203.641C468.965 203.609 468.755 203.586 468.473 203.586C467.34 203.586 466.723 204.32 466.536 204.852H466.45V203.711H464.395V212ZM470.598 212H472.645V207.141C472.645 206.094 473.223 205.328 474.286 205.328C475.169 205.328 475.903 205.836 475.903 207.109V212H477.958V206.664C477.958 204.633 476.778 203.578 475.09 203.578C473.708 203.578 472.95 204.352 472.684 204.922H472.598V203.711H470.598V212ZM479.63 206.172C479.63 207.703 480.833 208.258 482.325 208.57C483.387 208.781 484.38 208.898 484.38 209.703C484.38 210.242 483.926 210.703 482.958 210.703C482.075 210.703 481.544 210.281 481.458 209.672H479.465C479.465 211.148 480.708 212.148 482.84 212.148C485.036 212.148 486.372 211.141 486.372 209.438C486.372 207.906 485.255 207.383 483.731 207.109C482.786 206.938 481.59 206.797 481.59 205.977C481.59 205.367 482.106 204.992 482.911 204.992C483.911 204.992 484.247 205.57 484.301 206.094H486.122C486.122 204.555 484.926 203.562 482.95 203.562C481.208 203.562 479.63 204.328 479.63 206.172Z" fill="black"/>
<path d="M634.856 212V207.758H639.137V206.055H634.856V203.078H639.544V201.336H632.747V212H634.856ZM644.419 212.148C646.637 212.148 647.715 210.828 647.911 209.5H646.005C645.833 210.172 645.255 210.578 644.434 210.578C643.387 210.578 642.676 209.781 642.676 208.523V208.297H647.989V207.484C647.989 205.102 646.59 203.562 644.333 203.562C642.153 203.562 640.661 205 640.661 207.43V208.188C640.661 210.727 642.145 212.148 644.419 212.148ZM642.676 206.992V206.977C642.676 205.914 643.34 205.094 644.348 205.094C645.348 205.094 645.997 205.906 645.997 206.977V206.992H642.676ZM654.231 210.992H654.317V212H656.262V206.398C656.262 204.469 654.809 203.578 652.903 203.578C650.512 203.578 649.622 204.859 649.559 206.242H651.481C651.536 205.578 652.02 205.133 652.864 205.133C653.731 205.133 654.231 205.594 654.231 206.422V207.172H652.208C650.286 207.172 649.255 208.125 649.255 209.609C649.255 211.172 650.364 212.125 651.981 212.125C653.2 212.125 653.903 211.602 654.231 210.992ZM652.645 210.625C651.958 210.625 651.301 210.25 651.301 209.477C651.301 208.844 651.747 208.406 652.653 208.406H654.231V209.281C654.231 210.086 653.528 210.625 652.645 210.625ZM658.848 203.711H657.637V205.305H658.809V209.656C658.809 211.352 659.489 212.047 661.551 212.047C661.965 212.047 662.333 212.008 662.489 211.977V210.453C662.395 210.461 662.223 210.469 662.051 210.469C661.2 210.469 660.848 210.219 660.848 209.391V205.305H662.458V203.711H660.848V201.727H658.848V203.711ZM671.387 203.711H669.325V208.617C669.325 209.781 668.622 210.383 667.7 210.383C666.887 210.383 666.114 210.008 666.114 208.641V203.711H664.059V209.188C664.059 211.141 665.2 212.125 666.895 212.125C668.262 212.125 669.028 211.438 669.286 210.789H669.38V212H671.387V203.711ZM673.434 212H675.536V207.273C675.536 206.164 676.005 205.352 677.356 205.352C677.676 205.352 678.005 205.375 678.169 205.422V203.641C678.005 203.609 677.794 203.586 677.512 203.586C676.38 203.586 675.762 204.32 675.575 204.852H675.489V203.711H673.434V212ZM682.84 212.148C685.059 212.148 686.137 210.828 686.333 209.5H684.426C684.255 210.172 683.676 210.578 682.856 210.578C681.809 210.578 681.098 209.781 681.098 208.523V208.297H686.411V207.484C686.411 205.102 685.012 203.562 682.755 203.562C680.575 203.562 679.083 205 679.083 207.43V208.188C679.083 210.727 680.567 212.148 682.84 212.148ZM681.098 206.992V206.977C681.098 205.914 681.762 205.094 682.77 205.094C683.77 205.094 684.419 205.906 684.419 206.977V206.992H681.098ZM687.825 206.172C687.825 207.703 689.028 208.258 690.52 208.57C691.583 208.781 692.575 208.898 692.575 209.703C692.575 210.242 692.122 210.703 691.153 210.703C690.27 210.703 689.739 210.281 689.653 209.672H687.661C687.661 211.148 688.903 212.148 691.036 212.148C693.231 212.148 694.567 211.141 694.567 209.438C694.567 207.906 693.45 207.383 691.926 207.109C690.981 206.938 689.786 206.797 689.786 205.977C689.786 205.367 690.301 204.992 691.106 204.992C692.106 204.992 692.442 205.57 692.497 206.094H694.317C694.317 204.555 693.122 203.562 691.145 203.562C689.403 203.562 687.825 204.328 687.825 206.172Z" fill="black"/>
<path d="M850.823 210.203H846.299V201.336H844.19V212H850.823V210.203ZM856.596 210.992H856.682V212H858.628V206.398C858.628 204.469 857.174 203.578 855.268 203.578C852.878 203.578 851.987 204.859 851.924 206.242H853.846C853.901 205.578 854.385 205.133 855.229 205.133C856.096 205.133 856.596 205.594 856.596 206.422V207.172H854.573C852.651 207.172 851.62 208.125 851.62 209.609C851.62 211.172 852.729 212.125 854.346 212.125C855.565 212.125 856.268 211.602 856.596 210.992ZM855.01 210.625C854.323 210.625 853.667 210.25 853.667 209.477C853.667 208.844 854.112 208.406 855.018 208.406H856.596V209.281C856.596 210.086 855.893 210.625 855.01 210.625ZM867.659 203.711H865.479L863.674 210.141H863.596L861.831 203.711H859.557L862.432 212.016L862.354 212.312C862.206 213.078 861.776 213.383 860.838 213.383C860.588 213.383 860.299 213.359 860.167 213.336V214.82C860.417 214.875 860.862 214.906 861.213 214.906C863.01 214.906 864.01 214.242 864.729 212.336L864.94 211.766C864.956 211.719 867.081 205.586 867.659 203.711ZM872.057 203.562C869.612 203.562 868.26 205.242 868.26 207.531V208.141C868.26 210.547 869.612 212.148 872.057 212.148C874.503 212.148 875.846 210.547 875.846 208.133V207.523C875.846 205.234 874.495 203.562 872.057 203.562ZM872.057 205.156C873.245 205.156 873.768 206.172 873.768 207.523V208.164C873.768 209.477 873.253 210.547 872.057 210.547C870.854 210.547 870.338 209.469 870.338 208.164V207.523C870.338 206.18 870.87 205.156 872.057 205.156ZM884.799 203.711H882.737V208.617C882.737 209.781 882.034 210.383 881.112 210.383C880.299 210.383 879.526 210.008 879.526 208.641V203.711H877.471V209.188C877.471 211.141 878.612 212.125 880.307 212.125C881.674 212.125 882.44 211.438 882.698 210.789H882.792V212H884.799V203.711ZM887.495 203.711H886.284V205.305H887.456V209.656C887.456 211.352 888.135 212.047 890.198 212.047C890.612 212.047 890.979 212.008 891.135 211.977V210.453C891.042 210.461 890.87 210.469 890.698 210.469C889.846 210.469 889.495 210.219 889.495 209.391V205.305H891.104V203.711H889.495V201.727H887.495V203.711ZM892.518 206.172C892.518 207.703 893.721 208.258 895.213 208.57C896.276 208.781 897.268 208.898 897.268 209.703C897.268 210.242 896.815 210.703 895.846 210.703C894.963 210.703 894.432 210.281 894.346 209.672H892.354C892.354 211.148 893.596 212.148 895.729 212.148C897.924 212.148 899.26 211.141 899.26 209.438C899.26 207.906 898.143 207.383 896.62 207.109C895.674 206.938 894.479 206.797 894.479 205.977C894.479 205.367 894.995 204.992 895.799 204.992C896.799 204.992 897.135 205.57 897.19 206.094H899.01C899.01 204.555 897.815 203.562 895.838 203.562C894.096 203.562 892.518 204.328 892.518 206.172Z" fill="black"/>
</svg>
