<svg width="300" height="400" viewBox="0 0 300 400" fill="none" xmlns="http://www.w3.org/2000/svg">
<rect width="300" height="400" fill="#000000"/>
<path d="M219.082 110.11C219.082 109.557 218.634 109.11 218.082 109.11H209.082C208.529 109.11 208.082 109.557 208.082 110.11C208.082 110.662 208.529 111.11 209.082 111.11L217.082 111.11V119.11C217.082 119.662 217.529 120.11 218.082 120.11C218.634 120.11 219.082 119.662 219.082 119.11V110.11ZM106.542 223.063L218.789 110.817L217.374 109.403L105.128 221.649L106.542 223.063Z" fill="white"/>
<path d="M105.835 221.919H265.499" stroke="white" stroke-width="2" stroke-dasharray="10 5"/>
<path d="M92.4497 198.439C79.2585 206.055 74.7389 222.923 82.3548 236.114L130.124 208.534C122.508 195.343 105.641 190.823 92.4497 198.439Z" fill="#FDF349"/>
<path d="M120.03 246.209C133.221 238.593 137.74 221.725 130.125 208.534L82.355 236.114C89.9709 249.305 106.838 253.825 120.03 246.209Z" fill="#FB3C52"/>
<path d="M156.522 221.92C156.522 215.263 155.211 208.672 152.664 202.522C150.116 196.373 146.383 190.785 141.676 186.078" stroke="white" stroke-width="2"/>
<path d="M175.745 205.521H177.37L173.308 192.916H171.666L167.604 205.521H169.168L170.268 201.904H174.653L175.745 205.521ZM172.443 194.768H172.487L174.252 200.585H170.67L172.443 194.768Z" fill="white"/>
<path d="M179.667 205.521H181.152V199.939C181.152 198.323 182.201 197.231 183.764 197.231C185.24 197.231 185.939 198.035 185.939 199.747V205.521H187.424V199.371C187.424 197.1 186.306 195.868 184.245 195.868C182.803 195.868 181.72 196.532 181.213 197.711H181.091V196.043H179.667V205.521Z" fill="white"/>
<path d="M194.325 209.076C196.893 209.076 198.413 207.748 198.413 205.521V196.043H196.945V197.51H196.78C196.369 196.488 195.329 195.886 193.958 195.886C191.739 195.886 190.289 197.458 190.289 199.895V201.599C190.289 204.027 191.731 205.608 193.923 205.608C195.303 205.608 196.352 205.005 196.771 204.009H196.928V205.486C196.928 207.006 196.011 207.844 194.351 207.844C193.085 207.844 192.132 207.329 191.94 206.543H190.473C190.665 208.115 192.132 209.076 194.325 209.076ZM191.783 201.389V200.087C191.783 198.349 192.796 197.222 194.369 197.222C195.932 197.222 196.937 198.34 196.937 200.087V201.389C196.937 203.136 195.932 204.263 194.369 204.263C192.796 204.263 191.783 203.127 191.783 201.389Z" fill="white"/>
<path d="M209.804 205.521V204.289H206.676V192.322H201.977V193.553H205.191V204.289H201.951V205.521H209.804Z" fill="white"/>
<path d="M219.281 203.075C219.019 203.905 218.137 204.411 216.94 204.411C215.324 204.411 214.294 203.293 214.294 201.555V201.17H220.749V200.245C220.749 197.502 219.299 195.868 216.835 195.868C214.425 195.868 212.826 197.51 212.826 200.009V201.433C212.826 204.132 214.337 205.695 216.94 205.695C218.932 205.695 220.434 204.638 220.723 203.075H219.281ZM216.827 197.144C218.355 197.144 219.281 198.235 219.281 200.044H214.294C214.294 198.227 215.246 197.144 216.827 197.144Z" fill="white"/>
<path d="M178.494 87.3864H178.45L175.183 76.6335H173.567L177.629 89.2383H179.271L183.333 76.6335H181.778L178.494 87.3864Z" fill="white"/>
<path d="M192.068 86.7925C191.806 87.6223 190.924 88.1289 189.727 88.1289C188.111 88.1289 187.081 87.0108 187.081 85.2725V84.8882H193.536V83.9623C193.536 81.2194 192.086 79.586 189.623 79.586C187.212 79.586 185.613 81.2282 185.613 83.7264V85.1502C185.613 87.8494 187.124 89.413 189.727 89.413C191.719 89.413 193.221 88.356 193.51 86.7925H192.068ZM189.614 80.8613C191.143 80.8613 192.068 81.9532 192.068 83.7614H187.081C187.081 81.9444 188.033 80.8613 189.614 80.8613Z" fill="white"/>
<path d="M204.708 89.2383V88.0066H201.581V76.0395H196.881V77.2711H200.096V88.0066H196.855V89.2383H204.708Z" fill="white"/>
<path d="M211.626 89.413C214.133 89.413 215.732 87.7795 215.732 85.2201V83.7876C215.732 81.2282 214.133 79.5947 211.626 79.5947C209.119 79.5947 207.521 81.2282 207.521 83.7876V85.2201C207.521 87.7795 209.119 89.413 211.626 89.413ZM211.626 80.905C213.251 80.905 214.264 82.058 214.264 83.9186V85.0804C214.264 86.9497 213.251 88.094 211.626 88.094C210.002 88.094 208.988 86.9497 208.988 85.0804V83.9186C208.988 82.058 210.002 80.905 211.626 80.905Z" fill="white"/>
<path d="M226.633 82.7131C226.389 80.7652 224.956 79.5772 222.86 79.5772C220.283 79.5772 218.781 81.1583 218.781 83.8749V85.1153C218.781 87.8319 220.283 89.413 222.86 89.413C224.956 89.413 226.398 88.2338 226.633 86.3033H225.166C224.982 87.3864 224.057 88.0765 222.834 88.0765C221.183 88.0765 220.265 86.9584 220.265 84.9231V84.0671C220.265 82.0318 221.183 80.905 222.834 80.905C224.057 80.905 224.982 81.6038 225.166 82.7131H226.633Z" fill="white"/>
<path d="M233.91 77.4371C234.609 77.4371 235.141 76.913 235.141 76.2142C235.141 75.5241 234.609 75 233.91 75C233.211 75 232.678 75.5241 232.678 76.2142C232.678 76.913 233.211 77.4371 233.91 77.4371ZM237.884 89.2383V88.0066H234.748V79.7607H230.058V80.9923H233.281V88.0066H230.031V89.2383H237.884Z" fill="white"/>
<path d="M243.187 77.2187V79.7869H240.662V81.0535H243.187V86.4168C243.187 88.391 244.278 89.282 246.628 89.282C247.082 89.282 248.235 89.2383 248.471 89.1946V87.9368C248.218 87.963 247.266 87.9892 246.733 87.9892C245.397 87.9892 244.672 87.4301 244.672 86.3994V81.0535H248.498V79.7869H244.654V77.2187H243.187Z" fill="white"/>
<path d="M253.206 92.6101C254.962 92.6101 255.756 91.92 256.586 89.5877L260.159 79.7607H258.578L255.931 87.6922H255.818L253.162 79.7607H251.546L255.031 89.2994L254.865 89.8148C254.472 90.9154 253.983 91.3173 253.092 91.3173C252.952 91.3173 252.682 91.3085 252.568 91.2823V92.5839C252.699 92.6013 252.987 92.6101 253.206 92.6101Z" fill="white"/>
<path d="M81.1349 282.699C81.1349 285.668 82.0259 288.237 83.7642 290.211H85.2404C83.4322 287.669 82.6723 285.441 82.6723 282.699C82.6723 279.956 83.4322 277.728 85.2404 275.186H83.7642C82.0259 277.16 81.1349 279.737 81.1349 282.699Z" fill="white"/>
<path d="M94.1328 285.354L96.5175 289.005H98.2383L94.9714 284.201L98.2121 279.528H96.5437L94.1939 283.118H94.0716L91.7132 279.528H89.9574L93.2331 284.262L89.9836 289.005H91.6258L94.0192 285.354H94.1328Z" fill="white"/>
<path d="M104.362 291.905L106.004 286.228H104.038L102.955 291.905H104.362Z" fill="white"/>
<path d="M124.618 292.377C126.374 292.377 127.169 291.687 127.999 289.355L131.572 279.528H129.991L127.344 287.459H127.23L124.575 279.528H122.959L126.444 289.066L126.278 289.582C125.885 290.682 125.396 291.084 124.505 291.084C124.365 291.084 124.094 291.076 123.981 291.049V292.351C124.112 292.368 124.4 292.377 124.618 292.377Z" fill="white"/>
<path d="M140.237 282.699C140.237 279.737 139.346 277.16 137.608 275.186H136.131C137.94 277.728 138.7 279.956 138.7 282.699C138.7 285.441 137.94 287.669 136.131 290.211H137.608C139.346 288.237 140.237 285.668 140.237 282.699Z" fill="white"/>
<path d="M34 318.449C34.131 320.685 35.8344 322.065 38.4375 322.065C41.0755 322.065 42.7788 320.624 42.7788 318.361C42.7788 316.466 41.7481 315.4 39.3022 314.797L38.2016 314.518C36.5594 314.107 35.8606 313.478 35.8606 312.387C35.8606 311.102 36.8302 310.334 38.4462 310.334C39.9312 310.334 40.892 311.102 41.0493 312.404H42.5517C42.4469 310.308 40.8134 308.936 38.4375 308.936C35.9217 308.936 34.3057 310.325 34.3057 312.474C34.3057 314.299 35.3627 315.409 37.7037 316.003L38.7869 316.274C40.4902 316.693 41.224 317.348 41.224 318.44C41.224 319.794 40.1233 320.667 38.4462 320.667C36.769 320.667 35.6597 319.829 35.5024 318.449H34Z" fill="white"/>
<path d="M47.7579 309.783V312.352H45.2334V313.618H47.7579V318.982C47.7579 320.956 48.8498 321.847 51.1995 321.847C51.6537 321.847 52.8068 321.803 53.0426 321.759V320.501C52.7893 320.528 51.8372 320.554 51.3043 320.554C49.9679 320.554 49.2428 319.995 49.2428 318.964V313.618H53.0688V312.352H49.2254V309.783H47.7579Z" fill="white"/>
<path d="M59.4717 321.969C60.8519 321.969 61.8826 321.401 62.3368 320.388H62.4853V321.812H63.9004V315.322C63.9004 313.347 62.6251 312.212 60.3976 312.212C58.4584 312.212 56.9909 313.251 56.8162 314.771H58.275C58.5196 313.959 59.2883 313.496 60.3802 313.496C61.6992 313.496 62.4242 314.151 62.4242 315.339V316.195L59.8211 316.326C57.6635 316.44 56.4581 317.435 56.4581 319.113C56.4581 320.833 57.6635 321.969 59.4717 321.969ZM59.8997 320.667C58.703 320.667 57.9605 320.056 57.9605 319.06C57.9605 318.073 58.6593 317.505 59.9871 317.444L62.4242 317.331V318.449C62.4242 319.715 61.3323 320.667 59.8997 320.667Z" fill="white"/>
<path d="M71.1157 317.558C71.1157 315.147 72.356 313.697 74.4525 313.697C74.9679 313.697 75.5793 313.802 76.0161 313.959V312.29C75.7016 312.159 75.1862 312.081 74.6447 312.081C72.819 312.081 71.6398 312.989 71.2904 314.745H71.0982V312.325H67.5604V313.513H69.6656V320.615H67.7526V321.803H74.0507V320.615H71.1157V317.558Z" fill="white"/>
<path d="M80.934 309.783V312.352H78.4095V313.618H80.934V318.982C80.934 320.956 82.0259 321.847 84.3756 321.847C84.8298 321.847 85.9829 321.803 86.2187 321.759V320.501C85.9654 320.528 85.0133 320.554 84.4804 320.554C83.144 320.554 82.4189 319.995 82.4189 318.964V313.618H86.2449V312.352H82.4015V309.783H80.934Z" fill="white"/>
<path d="M105.261 312.168C103.907 312.168 102.92 312.727 102.422 313.775H102.265V312.325H100.798V325H102.309V320.335H102.475C102.885 321.375 103.89 321.96 105.261 321.96C107.454 321.96 108.886 320.379 108.886 317.951V316.186C108.886 313.749 107.454 312.168 105.261 312.168ZM104.833 313.531C106.397 313.531 107.393 314.649 107.393 316.396V317.759C107.393 319.506 106.397 320.632 104.833 320.632C103.27 320.632 102.274 319.514 102.274 317.759V316.396C102.274 314.649 103.27 313.531 104.833 313.531Z" fill="white"/>
<path d="M115.726 321.978C118.233 321.978 119.832 320.344 119.832 317.785V316.352C119.832 313.793 118.233 312.159 115.726 312.159C113.219 312.159 111.621 313.793 111.621 316.352V317.785C111.621 320.344 113.219 321.978 115.726 321.978ZM115.726 313.47C117.351 313.47 118.364 314.623 118.364 316.483V317.645C118.364 319.514 117.351 320.659 115.726 320.659C114.101 320.659 113.088 319.514 113.088 317.645V316.483C113.088 314.623 114.101 313.47 115.726 313.47Z" fill="white"/>
<path d="M123.334 314.885C123.334 316.23 124.182 317.095 125.894 317.488L127.3 317.811C128.506 318.082 128.969 318.484 128.969 319.235C128.969 320.143 128.147 320.729 126.855 320.729C125.632 320.729 124.793 320.222 124.575 319.348H123.064C123.23 320.973 124.653 321.978 126.802 321.978C129.047 321.978 130.506 320.842 130.506 319.095C130.506 317.724 129.667 316.92 127.824 316.501L126.488 316.195C125.3 315.933 124.811 315.522 124.811 314.797C124.811 313.933 125.588 313.374 126.794 313.374C127.903 313.374 128.698 313.88 128.872 314.71H130.305C130.13 313.129 128.794 312.142 126.82 312.142C124.732 312.142 123.334 313.243 123.334 314.885Z" fill="white"/>
<path d="M138.009 310.002C138.708 310.002 139.241 309.478 139.241 308.779C139.241 308.089 138.708 307.565 138.009 307.565C137.311 307.565 136.778 308.089 136.778 308.779C136.778 309.478 137.311 310.002 138.009 310.002ZM141.984 321.803V320.571H138.848V312.325H134.157V313.557H137.381V320.571H134.131V321.803H141.984Z" fill="white"/>
<path d="M147.286 309.783V312.352H144.762V313.618H147.286V318.982C147.286 320.956 148.378 321.847 150.728 321.847C151.182 321.847 152.335 321.803 152.571 321.759V320.501C152.318 320.528 151.365 320.554 150.833 320.554C149.496 320.554 148.771 319.995 148.771 318.964V313.618H152.597V312.352H148.754V309.783H147.286Z" fill="white"/>
<path d="M160.127 310.002C160.826 310.002 161.358 309.478 161.358 308.779C161.358 308.089 160.826 307.565 160.127 307.565C159.428 307.565 158.895 308.089 158.895 308.779C158.895 309.478 159.428 310.002 160.127 310.002ZM164.101 321.803V320.571H160.965V312.325H156.275V313.557H159.498V320.571H156.248V321.803H164.101Z" fill="white"/>
<path d="M171.02 321.978C173.527 321.978 175.125 320.344 175.125 317.785V316.352C175.125 313.793 173.527 312.159 171.02 312.159C168.513 312.159 166.914 313.793 166.914 316.352V317.785C166.914 320.344 168.513 321.978 171.02 321.978ZM171.02 313.47C172.644 313.47 173.658 314.623 173.658 316.483V317.645C173.658 319.514 172.644 320.659 171.02 320.659C169.395 320.659 168.382 319.514 168.382 317.645V316.483C168.382 314.623 169.395 313.47 171.02 313.47Z" fill="white"/>
<path d="M178.2 321.803H179.685V316.221C179.685 314.605 180.733 313.513 182.297 313.513C183.773 313.513 184.472 314.317 184.472 316.029V321.803H185.957V315.653C185.957 313.382 184.839 312.151 182.777 312.151C181.336 312.151 180.253 312.815 179.746 313.994H179.624V312.325H178.2V321.803Z" fill="white"/>
</svg>
