<svg width="300" height="400" viewBox="0 0 300 400" fill="none" xmlns="http://www.w3.org/2000/svg">
<rect width="300" height="400" fill="#111111"/>
<path d="M298.707 330.707C299.098 330.317 299.098 329.683 298.707 329.293L292.343 322.929C291.953 322.538 291.319 322.538 290.929 322.929C290.538 323.319 290.538 323.953 290.929 324.343L296.586 330L290.929 335.657C290.538 336.047 290.538 336.681 290.929 337.071C291.319 337.462 291.953 337.462 292.343 337.071L298.707 330.707ZM201 331L298 331L298 329L201 329L201 331Z" fill="white" fill-opacity="0.5"/>
<path d="M112.389 110.079C111.88 109.864 111.293 110.102 111.079 110.611L107.579 118.903C107.364 119.412 107.603 119.998 108.111 120.213C108.62 120.428 109.207 120.189 109.422 119.681L112.532 112.31L119.903 115.421C120.412 115.636 120.998 115.397 121.213 114.889C121.428 114.38 121.189 113.793 120.681 113.578L112.389 110.079ZM201.926 329.624L112.926 110.624L111.074 111.377L200.074 330.376L201.926 329.624Z" fill="white"/>
<path d="M1.29289 329.293C0.90237 329.683 0.90237 330.317 1.29289 330.707L7.65686 337.071C8.04738 337.462 8.68054 337.462 9.07107 337.071C9.46159 336.681 9.46159 336.047 9.07107 335.657L3.41422 330L9.07107 324.343C9.46159 323.953 9.46159 323.319 9.07107 322.929C8.68054 322.538 8.04738 322.538 7.65686 322.929L1.29289 329.293ZM201 329H2V331H201V329Z" fill="white" fill-opacity="0.5"/>
<path d="M200.293 398.707C200.683 399.098 201.317 399.098 201.707 398.707L208.071 392.343C208.462 391.953 208.462 391.319 208.071 390.929C207.681 390.538 207.047 390.538 206.657 390.929L201 396.586L195.343 390.929C194.953 390.538 194.319 390.538 193.929 390.929C193.538 391.319 193.538 391.953 193.929 392.343L200.293 398.707ZM201.707 1.2929C201.317 0.902374 200.683 0.902374 200.293 1.2929L193.929 7.65686C193.538 8.04738 193.538 8.68055 193.929 9.07107C194.319 9.4616 194.953 9.4616 195.343 9.07107L201 3.41422L206.657 9.07107C207.047 9.4616 207.681 9.4616 208.071 9.07107C208.462 8.68055 208.462 8.04738 208.071 7.65686L201.707 1.2929ZM202 398L202 2.00001L200 2.00001L200 398L202 398Z" fill="white" fill-opacity="0.5"/>
<path d="M195.66 321C190.877 323.761 189.239 329.877 192 334.66L209.321 324.66C206.559 319.877 200.443 318.239 195.66 321Z" fill="#FDF349"/>
<path d="M205.66 338.321C210.443 335.559 212.082 329.443 209.321 324.66L192 334.66C194.761 339.443 200.877 341.082 205.66 338.321Z" fill="#FB3C52"/>
<path d="M226.27 351.75C226.357 353.25 227.5 354.176 229.246 354.176C231.016 354.176 232.158 353.209 232.158 351.691C232.158 350.42 231.467 349.705 229.826 349.301L229.088 349.113C227.986 348.838 227.518 348.416 227.518 347.684C227.518 346.822 228.168 346.307 229.252 346.307C230.248 346.307 230.893 346.822 230.998 347.695H232.006C231.936 346.289 230.84 345.369 229.246 345.369C227.559 345.369 226.475 346.301 226.475 347.742C226.475 348.967 227.184 349.711 228.754 350.109L229.48 350.291C230.623 350.572 231.115 351.012 231.115 351.744C231.115 352.652 230.377 353.238 229.252 353.238C228.127 353.238 227.383 352.676 227.277 351.75H226.27ZM235.498 345.938V347.66H233.805V348.51H235.498V352.107C235.498 353.432 236.23 354.029 237.807 354.029C238.111 354.029 238.885 354 239.043 353.971V353.127C238.873 353.145 238.234 353.162 237.877 353.162C236.98 353.162 236.494 352.787 236.494 352.096V348.51H239.061V347.66H236.482V345.938H235.498ZM243.355 354.111C244.281 354.111 244.973 353.73 245.277 353.051H245.377V354.006H246.326V349.652C246.326 348.328 245.471 347.566 243.977 347.566C242.676 347.566 241.691 348.264 241.574 349.283H242.553C242.717 348.738 243.232 348.428 243.965 348.428C244.85 348.428 245.336 348.867 245.336 349.664V350.238L243.59 350.326C242.143 350.402 241.334 351.07 241.334 352.195C241.334 353.35 242.143 354.111 243.355 354.111ZM243.643 353.238C242.84 353.238 242.342 352.828 242.342 352.16C242.342 351.498 242.811 351.117 243.701 351.076L245.336 351V351.75C245.336 352.6 244.604 353.238 243.643 353.238ZM251.166 351.152C251.166 349.535 251.998 348.562 253.404 348.562C253.75 348.562 254.16 348.633 254.453 348.738V347.619C254.242 347.531 253.896 347.479 253.533 347.479C252.309 347.479 251.518 348.088 251.283 349.266H251.154V347.643H248.781V348.439H250.193V353.203H248.91V354H253.135V353.203H251.166V351.152ZM257.752 345.938V347.66H256.059V348.51H257.752V352.107C257.752 353.432 258.484 354.029 260.061 354.029C260.365 354.029 261.139 354 261.297 353.971V353.127C261.127 353.145 260.488 353.162 260.131 353.162C259.234 353.162 258.748 352.787 258.748 352.096V348.51H261.314V347.66H258.736V345.938H257.752ZM215.488 359.545V368H216.525V364.965H218.277C219.93 364.965 221.014 363.893 221.014 362.258C221.014 360.617 219.941 359.545 218.301 359.545H215.488ZM216.525 360.465H218.043C219.273 360.465 219.965 361.104 219.965 362.258C219.965 363.406 219.273 364.045 218.043 364.045H216.525V360.465ZM225.455 368.117C227.137 368.117 228.209 367.021 228.209 365.305V364.344C228.209 362.627 227.137 361.531 225.455 361.531C223.773 361.531 222.701 362.627 222.701 364.344V365.305C222.701 367.021 223.773 368.117 225.455 368.117ZM225.455 362.41C226.545 362.41 227.225 363.184 227.225 364.432V365.211C227.225 366.465 226.545 367.232 225.455 367.232C224.365 367.232 223.686 366.465 223.686 365.211V364.432C223.686 363.184 224.365 362.41 225.455 362.41ZM230.559 363.359C230.559 364.262 231.127 364.842 232.275 365.105L233.219 365.322C234.027 365.504 234.338 365.773 234.338 366.277C234.338 366.887 233.787 367.279 232.92 367.279C232.1 367.279 231.537 366.939 231.391 366.354H230.377C230.488 367.443 231.443 368.117 232.885 368.117C234.391 368.117 235.369 367.355 235.369 366.184C235.369 365.264 234.807 364.725 233.57 364.443L232.674 364.238C231.877 364.062 231.549 363.787 231.549 363.301C231.549 362.721 232.07 362.346 232.879 362.346C233.623 362.346 234.156 362.686 234.273 363.242H235.234C235.117 362.182 234.221 361.52 232.896 361.52C231.496 361.52 230.559 362.258 230.559 363.359ZM240.402 360.084C240.871 360.084 241.229 359.732 241.229 359.264C241.229 358.801 240.871 358.449 240.402 358.449C239.934 358.449 239.576 358.801 239.576 359.264C239.576 359.732 239.934 360.084 240.402 360.084ZM243.068 368V367.174H240.965V361.643H237.818V362.469H239.98V367.174H237.801V368H243.068ZM246.625 359.938V361.66H244.932V362.51H246.625V366.107C246.625 367.432 247.357 368.029 248.934 368.029C249.238 368.029 250.012 368 250.17 367.971V367.127C250 367.145 249.361 367.162 249.004 367.162C248.107 367.162 247.621 366.787 247.621 366.096V362.51H250.188V361.66H247.609V359.938H246.625ZM255.238 360.084C255.707 360.084 256.064 359.732 256.064 359.264C256.064 358.801 255.707 358.449 255.238 358.449C254.77 358.449 254.412 358.801 254.412 359.264C254.412 359.732 254.77 360.084 255.238 360.084ZM257.904 368V367.174H255.801V361.643H252.654V362.469H254.816V367.174H252.637V368H257.904ZM262.545 368.117C264.227 368.117 265.299 367.021 265.299 365.305V364.344C265.299 362.627 264.227 361.531 262.545 361.531C260.863 361.531 259.791 362.627 259.791 364.344V365.305C259.791 367.021 260.863 368.117 262.545 368.117ZM262.545 362.41C263.635 362.41 264.314 363.184 264.314 364.432V365.211C264.314 366.465 263.635 367.232 262.545 367.232C261.455 367.232 260.775 366.465 260.775 365.211V364.432C260.775 363.184 261.455 362.41 262.545 362.41ZM267.361 368H268.357V364.256C268.357 363.172 269.061 362.439 270.109 362.439C271.1 362.439 271.568 362.979 271.568 364.127V368H272.564V363.875C272.564 362.352 271.814 361.525 270.432 361.525C269.465 361.525 268.738 361.971 268.398 362.762H268.316V361.643H267.361V368Z" fill="white"/>
<path d="M241.35 294H242.439L239.715 285.545H238.613L235.889 294H236.938L237.676 291.574H240.617L241.35 294ZM239.135 286.787H239.164L240.348 290.689H237.945L239.135 286.787ZM243.98 294H244.977V290.256C244.977 289.172 245.68 288.439 246.729 288.439C247.719 288.439 248.188 288.979 248.188 290.127V294H249.184V289.875C249.184 288.352 248.434 287.525 247.051 287.525C246.084 287.525 245.357 287.971 245.018 288.762H244.936V287.643H243.98V294ZM253.812 296.385C255.535 296.385 256.555 295.494 256.555 294V287.643H255.57V288.627H255.459C255.184 287.941 254.486 287.537 253.566 287.537C252.078 287.537 251.105 288.592 251.105 290.227V291.369C251.105 292.998 252.072 294.059 253.543 294.059C254.469 294.059 255.172 293.654 255.453 292.986H255.559V293.977C255.559 294.996 254.943 295.559 253.83 295.559C252.98 295.559 252.342 295.213 252.213 294.686H251.229C251.357 295.74 252.342 296.385 253.812 296.385ZM252.107 291.229V290.355C252.107 289.189 252.787 288.434 253.842 288.434C254.891 288.434 255.564 289.184 255.564 290.355V291.229C255.564 292.4 254.891 293.156 253.842 293.156C252.787 293.156 252.107 292.395 252.107 291.229ZM264.195 294V293.174H262.098V285.146H258.945V285.973H261.102V293.174H258.928V294H264.195ZM270.553 292.359C270.377 292.916 269.785 293.256 268.982 293.256C267.898 293.256 267.207 292.506 267.207 291.34V291.082H271.537V290.461C271.537 288.621 270.564 287.525 268.912 287.525C267.295 287.525 266.223 288.627 266.223 290.303V291.258C266.223 293.068 267.236 294.117 268.982 294.117C270.318 294.117 271.326 293.408 271.52 292.359H270.553ZM268.906 288.381C269.932 288.381 270.553 289.113 270.553 290.326H267.207C267.207 289.107 267.846 288.381 268.906 288.381Z" fill="white"/>
<path d="M88.0664 230.758H88.0371L85.8457 223.545H84.7617L87.4863 232H88.5879L91.3125 223.545H90.2695L88.0664 230.758ZM97.1719 230.359C96.9961 230.916 96.4043 231.256 95.6016 231.256C94.5176 231.256 93.8262 230.506 93.8262 229.34V229.082H98.1562V228.461C98.1562 226.621 97.1836 225.525 95.5312 225.525C93.9141 225.525 92.8418 226.627 92.8418 228.303V229.258C92.8418 231.068 93.8555 232.117 95.6016 232.117C96.9375 232.117 97.9453 231.408 98.1387 230.359H97.1719ZM95.5254 226.381C96.5508 226.381 97.1719 227.113 97.1719 228.326H93.8262C93.8262 227.107 94.4648 226.381 95.5254 226.381ZM105.65 232V231.174H103.553V223.146H100.4V223.973H102.557V231.174H100.383V232H105.65ZM110.291 232.117C111.973 232.117 113.045 231.021 113.045 229.305V228.344C113.045 226.627 111.973 225.531 110.291 225.531C108.609 225.531 107.537 226.627 107.537 228.344V229.305C107.537 231.021 108.609 232.117 110.291 232.117ZM110.291 226.41C111.381 226.41 112.061 227.184 112.061 228.432V229.211C112.061 230.465 111.381 231.232 110.291 231.232C109.201 231.232 108.521 230.465 108.521 229.211V228.432C108.521 227.184 109.201 226.41 110.291 226.41ZM120.357 227.623C120.193 226.316 119.232 225.52 117.826 225.52C116.098 225.52 115.09 226.58 115.09 228.402V229.234C115.09 231.057 116.098 232.117 117.826 232.117C119.232 232.117 120.199 231.326 120.357 230.031H119.373C119.25 230.758 118.629 231.221 117.809 231.221C116.701 231.221 116.086 230.471 116.086 229.105V228.531C116.086 227.166 116.701 226.41 117.809 226.41C118.629 226.41 119.25 226.879 119.373 227.623H120.357ZM125.238 224.084C125.707 224.084 126.064 223.732 126.064 223.264C126.064 222.801 125.707 222.449 125.238 222.449C124.77 222.449 124.412 222.801 124.412 223.264C124.412 223.732 124.77 224.084 125.238 224.084ZM127.904 232V231.174H125.801V225.643H122.654V226.469H124.816V231.174H122.637V232H127.904ZM131.461 223.938V225.66H129.768V226.51H131.461V230.107C131.461 231.432 132.193 232.029 133.77 232.029C134.074 232.029 134.848 232 135.006 231.971V231.127C134.836 231.145 134.197 231.162 133.84 231.162C132.943 231.162 132.457 230.787 132.457 230.096V226.51H135.023V225.66H132.445V223.938H131.461ZM138.182 234.262C139.359 234.262 139.893 233.799 140.449 232.234L142.846 225.643H141.785L140.01 230.963H139.934L138.152 225.643H137.068L139.406 232.041L139.295 232.387C139.031 233.125 138.703 233.395 138.105 233.395C138.012 233.395 137.83 233.389 137.754 233.371V234.244C137.842 234.256 138.035 234.262 138.182 234.262Z" fill="white"/>
<path d="M28.0605 319.551L29.6602 322H30.8145L28.623 318.777L30.7969 315.643H29.6777L28.1016 318.051H28.0195L26.4375 315.643H25.2598L27.457 318.818L25.2773 322H26.3789L27.9844 319.551H28.0605ZM43.2715 322.105C44.7422 322.105 45.7031 321.045 45.7031 319.41V318.227C45.7031 316.598 44.7422 315.537 43.2715 315.537C42.3516 315.537 41.6777 315.93 41.3965 316.627H41.291V313.146H40.2773V322H41.2559V321.027H41.3672C41.6953 321.73 42.3633 322.105 43.2715 322.105ZM42.9785 321.197C41.9355 321.197 41.2676 320.447 41.2676 319.27V318.355C41.2676 317.184 41.9355 316.434 42.9785 316.434C44.0332 316.434 44.7012 317.184 44.7012 318.355V319.27C44.7012 320.441 44.0332 321.197 42.9785 321.197ZM50.291 322.117C51.9727 322.117 53.0449 321.021 53.0449 319.305V318.344C53.0449 316.627 51.9727 315.531 50.291 315.531C48.6094 315.531 47.5371 316.627 47.5371 318.344V319.305C47.5371 321.021 48.6094 322.117 50.291 322.117ZM50.291 316.41C51.3809 316.41 52.0605 317.184 52.0605 318.432V319.211C52.0605 320.465 51.3809 321.232 50.291 321.232C49.2012 321.232 48.5215 320.465 48.5215 319.211V318.432C48.5215 317.184 49.2012 316.41 50.291 316.41ZM60.3105 315.643H59.3145V319.387C59.3145 320.471 58.6113 321.203 57.5625 321.203C56.5723 321.203 56.1035 320.664 56.1035 319.516V315.643H55.1074V319.768C55.1074 321.291 55.8574 322.117 57.2402 322.117C58.207 322.117 58.9336 321.672 59.2734 320.881H59.3555V322H60.3105V315.643ZM62.5254 322H63.5215V318.256C63.5215 317.172 64.2246 316.439 65.2734 316.439C66.2637 316.439 66.7324 316.979 66.7324 318.127V322H67.7285V317.875C67.7285 316.352 66.9785 315.525 65.5957 315.525C64.6289 315.525 63.9023 315.971 63.5625 316.762H63.4805V315.643H62.5254V322ZM72.1465 322.105C73.0547 322.105 73.7227 321.73 74.0508 321.027H74.1621V322H75.1406V313.146H74.127V316.627H74.0215C73.7461 315.93 73.0664 315.537 72.1465 315.537C70.6758 315.537 69.7148 316.598 69.7148 318.227V319.41C69.7148 321.045 70.6758 322.105 72.1465 322.105ZM72.4395 321.197C71.3906 321.197 70.7168 320.441 70.7168 319.27V318.355C70.7168 317.184 71.3906 316.434 72.4395 316.434C73.4824 316.434 74.1562 317.184 74.1562 318.355V319.27C74.1562 320.447 73.4824 321.197 72.4395 321.197ZM77.6484 317.359C77.6484 318.262 78.2168 318.842 79.3652 319.105L80.3086 319.322C81.1172 319.504 81.4277 319.773 81.4277 320.277C81.4277 320.887 80.877 321.279 80.0098 321.279C79.1895 321.279 78.627 320.939 78.4805 320.354H77.4668C77.5781 321.443 78.5332 322.117 79.9746 322.117C81.4805 322.117 82.459 321.355 82.459 320.184C82.459 319.264 81.8965 318.725 80.6602 318.443L79.7637 318.238C78.9668 318.062 78.6387 317.787 78.6387 317.301C78.6387 316.721 79.1602 316.346 79.9688 316.346C80.7129 316.346 81.2461 316.686 81.3633 317.242H82.3242C82.207 316.182 81.3105 315.52 79.9863 315.52C78.5859 315.52 77.6484 316.258 77.6484 317.359Z" fill="white" fill-opacity="0.5"/>
<path d="M211.256 37.2617C212.434 37.2617 212.967 36.7988 213.523 35.2344L215.92 28.6426H214.859L213.084 33.9629H213.008L211.227 28.6426H210.143L212.48 35.041L212.369 35.3867C212.105 36.125 211.777 36.3945 211.18 36.3945C211.086 36.3945 210.904 36.3887 210.828 36.3711V37.2441C210.916 37.2559 211.109 37.2617 211.256 37.2617ZM228.271 35.1055C229.742 35.1055 230.703 34.0449 230.703 32.4102V31.2266C230.703 29.5977 229.742 28.5371 228.271 28.5371C227.352 28.5371 226.678 28.9297 226.396 29.627H226.291V26.1465H225.277V35H226.256V34.0273H226.367C226.695 34.7305 227.363 35.1055 228.271 35.1055ZM227.979 34.1973C226.936 34.1973 226.268 33.4473 226.268 32.2695V31.3555C226.268 30.1836 226.936 29.4336 227.979 29.4336C229.033 29.4336 229.701 30.1836 229.701 31.3555V32.2695C229.701 33.4414 229.033 34.1973 227.979 34.1973ZM235.291 35.1172C236.973 35.1172 238.045 34.0215 238.045 32.3047V31.3438C238.045 29.627 236.973 28.5312 235.291 28.5312C233.609 28.5312 232.537 29.627 232.537 31.3438V32.3047C232.537 34.0215 233.609 35.1172 235.291 35.1172ZM235.291 29.4102C236.381 29.4102 237.061 30.1836 237.061 31.4316V32.2109C237.061 33.4648 236.381 34.2324 235.291 34.2324C234.201 34.2324 233.521 33.4648 233.521 32.2109V31.4316C233.521 30.1836 234.201 29.4102 235.291 29.4102ZM245.311 28.6426H244.314V32.3867C244.314 33.4707 243.611 34.2031 242.562 34.2031C241.572 34.2031 241.104 33.6641 241.104 32.5156V28.6426H240.107V32.7676C240.107 34.291 240.857 35.1172 242.24 35.1172C243.207 35.1172 243.934 34.6719 244.273 33.8809H244.355V35H245.311V28.6426ZM247.525 35H248.521V31.2559C248.521 30.1719 249.225 29.4395 250.273 29.4395C251.264 29.4395 251.732 29.9785 251.732 31.127V35H252.729V30.875C252.729 29.3516 251.979 28.5254 250.596 28.5254C249.629 28.5254 248.902 28.9707 248.562 29.7617H248.48V28.6426H247.525V35ZM257.146 35.1055C258.055 35.1055 258.723 34.7305 259.051 34.0273H259.162V35H260.141V26.1465H259.127V29.627H259.021C258.746 28.9297 258.066 28.5371 257.146 28.5371C255.676 28.5371 254.715 29.5977 254.715 31.2266V32.4102C254.715 34.0449 255.676 35.1055 257.146 35.1055ZM257.439 34.1973C256.391 34.1973 255.717 33.4414 255.717 32.2695V31.3555C255.717 30.1836 256.391 29.4336 257.439 29.4336C258.482 29.4336 259.156 30.1836 259.156 31.3555V32.2695C259.156 33.4473 258.482 34.1973 257.439 34.1973ZM262.648 30.3594C262.648 31.2617 263.217 31.8418 264.365 32.1055L265.309 32.3223C266.117 32.5039 266.428 32.7734 266.428 33.2773C266.428 33.8867 265.877 34.2793 265.01 34.2793C264.189 34.2793 263.627 33.9395 263.48 33.3535H262.467C262.578 34.4434 263.533 35.1172 264.975 35.1172C266.48 35.1172 267.459 34.3555 267.459 33.1836C267.459 32.2637 266.896 31.7246 265.66 31.4434L264.764 31.2383C263.967 31.0625 263.639 30.7871 263.639 30.3008C263.639 29.7207 264.16 29.3457 264.969 29.3457C265.713 29.3457 266.246 29.6855 266.363 30.2422H267.324C267.207 29.1816 266.311 28.5195 264.986 28.5195C263.586 28.5195 262.648 29.2578 262.648 30.3594Z" fill="white" fill-opacity="0.5"/>
<path d="M47.2695 77.6309L48.8457 81H50.0117L48.2891 77.4199C49.25 77.1035 49.8652 76.1953 49.8652 75.0879C49.8652 73.5176 48.8164 72.5449 47.1406 72.5449H44.3047V81H45.3242V77.6309H47.2695ZM45.3242 73.4648H47.0469C48.1777 73.4648 48.8223 74.0625 48.8223 75.1113C48.8223 76.166 48.166 76.7578 47 76.7578H45.3242V73.4648ZM53.7207 81.1113C54.6465 81.1113 55.3379 80.7305 55.6426 80.0508H55.7422V81.0059H56.6914V76.6523C56.6914 75.3281 55.8359 74.5664 54.3418 74.5664C53.041 74.5664 52.0566 75.2637 51.9395 76.2832H52.918C53.082 75.7383 53.5977 75.4277 54.3301 75.4277C55.2148 75.4277 55.7012 75.8672 55.7012 76.6641V77.2383L53.9551 77.3262C52.5078 77.4023 51.6992 78.0703 51.6992 79.1953C51.6992 80.3496 52.5078 81.1113 53.7207 81.1113ZM54.0078 80.2383C53.2051 80.2383 52.707 79.8281 52.707 79.1602C52.707 78.498 53.1758 78.1172 54.0664 78.0762L55.7012 78V78.75C55.7012 79.5996 54.9688 80.2383 54.0078 80.2383ZM59.1816 81H60.1777V77.2559C60.1777 76.1719 60.8809 75.4395 61.9297 75.4395C62.9199 75.4395 63.3887 75.9785 63.3887 77.127V81H64.3848V76.875C64.3848 75.3516 63.6348 74.5254 62.252 74.5254C61.2852 74.5254 60.5586 74.9707 60.2188 75.7617H60.1367V74.6426H59.1816V81ZM68.8027 81.1055C69.7109 81.1055 70.3789 80.7305 70.707 80.0273H70.8184V81H71.7969V72.1465H70.7832V75.627H70.6777C70.4023 74.9297 69.7227 74.5371 68.8027 74.5371C67.332 74.5371 66.3711 75.5977 66.3711 77.2266V78.4102C66.3711 80.0449 67.332 81.1055 68.8027 81.1055ZM69.0957 80.1973C68.0469 80.1973 67.373 79.4414 67.373 78.2695V77.3555C67.373 76.1836 68.0469 75.4336 69.0957 75.4336C70.1387 75.4336 70.8125 76.1836 70.8125 77.3555V78.2695C70.8125 79.4473 70.1387 80.1973 69.0957 80.1973ZM76.6191 81.1172C78.3008 81.1172 79.373 80.0215 79.373 78.3047V77.3438C79.373 75.627 78.3008 74.5312 76.6191 74.5312C74.9375 74.5312 73.8652 75.627 73.8652 77.3438V78.3047C73.8652 80.0215 74.9375 81.1172 76.6191 81.1172ZM76.6191 75.4102C77.709 75.4102 78.3887 76.1836 78.3887 77.4316V78.2109C78.3887 79.4648 77.709 80.2324 76.6191 80.2324C75.5293 80.2324 74.8496 79.4648 74.8496 78.2109V77.4316C74.8496 76.1836 75.5293 75.4102 76.6191 75.4102ZM87.1016 76.3184C87.1016 75.1406 86.6387 74.5254 85.7539 74.5254C85.1152 74.5254 84.6055 74.9121 84.4414 75.5215H84.3359C84.2012 74.8945 83.7793 74.5254 83.1816 74.5254C82.584 74.5254 82.127 74.9004 81.9688 75.5391H81.8633V74.6426H80.9727V81H81.8691V76.7109C81.8691 75.9199 82.2207 75.4336 82.7832 75.4336C83.3223 75.4336 83.6035 75.8379 83.6035 76.6055V81H84.4941V76.7109C84.4941 75.9199 84.834 75.4336 85.3906 75.4336C85.9238 75.4336 86.2051 75.8379 86.2051 76.6113V81H87.1016V76.3184ZM94.2324 81V80.1738H92.1348V72.1465H88.9824V72.9727H91.1387V80.1738H88.9648V81H94.2324ZM97.0918 83.2617C98.2695 83.2617 98.8027 82.7988 99.3594 81.2344L101.756 74.6426H100.695L98.9199 79.9629H98.8438L97.0625 74.6426H95.9785L98.3164 81.041L98.2051 81.3867C97.9414 82.125 97.6133 82.3945 97.0156 82.3945C96.9219 82.3945 96.7402 82.3887 96.6641 82.3711V83.2441C96.752 83.2559 96.9453 83.2617 97.0918 83.2617ZM111.395 76.3594C111.395 77.2617 111.963 77.8418 113.111 78.1055L114.055 78.3223C114.863 78.5039 115.174 78.7734 115.174 79.2773C115.174 79.8867 114.623 80.2793 113.756 80.2793C112.936 80.2793 112.373 79.9395 112.227 79.3535H111.213C111.324 80.4434 112.279 81.1172 113.721 81.1172C115.227 81.1172 116.205 80.3555 116.205 79.1836C116.205 78.2637 115.643 77.7246 114.406 77.4434L113.51 77.2383C112.713 77.0625 112.385 76.7871 112.385 76.3008C112.385 75.7207 112.906 75.3457 113.715 75.3457C114.459 75.3457 114.992 75.6855 115.109 76.2422H116.07C115.953 75.1816 115.057 74.5195 113.732 74.5195C112.332 74.5195 111.395 75.2578 111.395 76.3594ZM122.844 79.3594C122.668 79.916 122.076 80.2559 121.273 80.2559C120.189 80.2559 119.498 79.5059 119.498 78.3398V78.082H123.828V77.4609C123.828 75.6211 122.855 74.5254 121.203 74.5254C119.586 74.5254 118.514 75.627 118.514 77.3027V78.2578C118.514 80.0684 119.527 81.1172 121.273 81.1172C122.609 81.1172 123.617 80.4082 123.811 79.3594H122.844ZM121.197 75.3809C122.223 75.3809 122.844 76.1133 122.844 77.3262H119.498C119.498 76.1074 120.137 75.3809 121.197 75.3809ZM131.322 81V80.1738H129.225V72.1465H126.072V72.9727H128.229V80.1738H126.055V81H131.322ZM137.68 79.3594C137.504 79.916 136.912 80.2559 136.109 80.2559C135.025 80.2559 134.334 79.5059 134.334 78.3398V78.082H138.664V77.4609C138.664 75.6211 137.691 74.5254 136.039 74.5254C134.422 74.5254 133.35 75.627 133.35 77.3027V78.2578C133.35 80.0684 134.363 81.1172 136.109 81.1172C137.445 81.1172 138.453 80.4082 138.646 79.3594H137.68ZM136.033 75.3809C137.059 75.3809 137.68 76.1133 137.68 77.3262H134.334C134.334 76.1074 134.973 75.3809 136.033 75.3809ZM146.029 76.623C145.865 75.3164 144.904 74.5195 143.498 74.5195C141.77 74.5195 140.762 75.5801 140.762 77.4023V78.2344C140.762 80.0566 141.77 81.1172 143.498 81.1172C144.904 81.1172 145.871 80.3262 146.029 79.0312H145.045C144.922 79.7578 144.301 80.2207 143.48 80.2207C142.373 80.2207 141.758 79.4707 141.758 78.1055V77.5312C141.758 76.166 142.373 75.4102 143.48 75.4102C144.301 75.4102 144.922 75.8789 145.045 76.623H146.029ZM149.715 72.9375V74.6602H148.021V75.5098H149.715V79.1074C149.715 80.4316 150.447 81.0293 152.023 81.0293C152.328 81.0293 153.102 81 153.26 80.9707V80.127C153.09 80.1445 152.451 80.1621 152.094 80.1621C151.197 80.1621 150.711 79.7871 150.711 79.0957V75.5098H153.277V74.6602H150.699V72.9375H149.715ZM159.934 79.3594C159.758 79.916 159.166 80.2559 158.363 80.2559C157.279 80.2559 156.588 79.5059 156.588 78.3398V78.082H160.918V77.4609C160.918 75.6211 159.945 74.5254 158.293 74.5254C156.676 74.5254 155.604 75.627 155.604 77.3027V78.2578C155.604 80.0684 156.617 81.1172 158.363 81.1172C159.699 81.1172 160.707 80.4082 160.9 79.3594H159.934ZM158.287 75.3809C159.312 75.3809 159.934 76.1133 159.934 77.3262H156.588C156.588 76.1074 157.227 75.3809 158.287 75.3809ZM165.236 81.1055C166.145 81.1055 166.812 80.7305 167.141 80.0273H167.252V81H168.23V72.1465H167.217V75.627H167.111C166.836 74.9297 166.156 74.5371 165.236 74.5371C163.766 74.5371 162.805 75.5977 162.805 77.2266V78.4102C162.805 80.0449 163.766 81.1055 165.236 81.1055ZM165.529 80.1973C164.48 80.1973 163.807 79.4414 163.807 78.2695V77.3555C163.807 76.1836 164.48 75.4336 165.529 75.4336C166.572 75.4336 167.246 76.1836 167.246 77.3555V78.2695C167.246 79.4473 166.572 80.1973 165.529 80.1973ZM70.918 93.3594C70.7422 93.916 70.1504 94.2559 69.3477 94.2559C68.2637 94.2559 67.5723 93.5059 67.5723 92.3398V92.082H71.9023V91.4609C71.9023 89.6211 70.9297 88.5254 69.2773 88.5254C67.6602 88.5254 66.5879 89.627 66.5879 91.3027V92.2578C66.5879 94.0684 67.6016 95.1172 69.3477 95.1172C70.6836 95.1172 71.6914 94.4082 71.8848 93.3594H70.918ZM69.2715 89.3809C70.2969 89.3809 70.918 90.1133 70.918 91.3262H67.5723C67.5723 90.1074 68.2109 89.3809 69.2715 89.3809ZM74.0176 95H75.0137V91.2559C75.0137 90.1719 75.7168 89.4395 76.7656 89.4395C77.7559 89.4395 78.2246 89.9785 78.2246 91.127V95H79.2207V90.875C79.2207 89.3516 78.4707 88.5254 77.0879 88.5254C76.1211 88.5254 75.3945 88.9707 75.0547 89.7617H74.9727V88.6426H74.0176V95ZM83.6387 95.1055C84.5469 95.1055 85.2148 94.7305 85.543 94.0273H85.6543V95H86.6328V86.1465H85.6191V89.627H85.5137C85.2383 88.9297 84.5586 88.5371 83.6387 88.5371C82.168 88.5371 81.207 89.5977 81.207 91.2266V92.4102C81.207 94.0449 82.168 95.1055 83.6387 95.1055ZM83.9316 94.1973C82.8828 94.1973 82.209 93.4414 82.209 92.2695V91.3555C82.209 90.1836 82.8828 89.4336 83.9316 89.4336C84.9746 89.4336 85.6484 90.1836 85.6484 91.3555V92.2695C85.6484 93.4473 84.9746 94.1973 83.9316 94.1973ZM99.2715 88.5371C98.3633 88.5371 97.7012 88.9121 97.3672 89.6152H97.2617V88.6426H96.2773V97.1445H97.291V94.0156H97.4023C97.6777 94.7129 98.3516 95.1055 99.2715 95.1055C100.742 95.1055 101.703 94.0449 101.703 92.416V91.2324C101.703 89.5977 100.742 88.5371 99.2715 88.5371ZM98.9844 89.4512C100.033 89.4512 100.701 90.2012 100.701 91.373V92.2871C100.701 93.459 100.033 94.2148 98.9844 94.2148C97.9355 94.2148 97.2676 93.4648 97.2676 92.2871V91.373C97.2676 90.2012 97.9355 89.4512 98.9844 89.4512ZM106.291 95.1172C107.973 95.1172 109.045 94.0215 109.045 92.3047V91.3438C109.045 89.627 107.973 88.5312 106.291 88.5312C104.609 88.5312 103.537 89.627 103.537 91.3438V92.3047C103.537 94.0215 104.609 95.1172 106.291 95.1172ZM106.291 89.4102C107.381 89.4102 108.061 90.1836 108.061 91.4316V92.2109C108.061 93.4648 107.381 94.2324 106.291 94.2324C105.201 94.2324 104.521 93.4648 104.521 92.2109V91.4316C104.521 90.1836 105.201 89.4102 106.291 89.4102ZM111.395 90.3594C111.395 91.2617 111.963 91.8418 113.111 92.1055L114.055 92.3223C114.863 92.5039 115.174 92.7734 115.174 93.2773C115.174 93.8867 114.623 94.2793 113.756 94.2793C112.936 94.2793 112.373 93.9395 112.227 93.3535H111.213C111.324 94.4434 112.279 95.1172 113.721 95.1172C115.227 95.1172 116.205 94.3555 116.205 93.1836C116.205 92.2637 115.643 91.7246 114.406 91.4434L113.51 91.2383C112.713 91.0625 112.385 90.7871 112.385 90.3008C112.385 89.7207 112.906 89.3457 113.715 89.3457C114.459 89.3457 114.992 89.6855 115.109 90.2422H116.07C115.953 89.1816 115.057 88.5195 113.732 88.5195C112.332 88.5195 111.395 89.2578 111.395 90.3594ZM121.238 87.084C121.707 87.084 122.064 86.7324 122.064 86.2637C122.064 85.8008 121.707 85.4492 121.238 85.4492C120.77 85.4492 120.412 85.8008 120.412 86.2637C120.412 86.7324 120.77 87.084 121.238 87.084ZM123.904 95V94.1738H121.801V88.6426H118.654V89.4688H120.816V94.1738H118.637V95H123.904ZM127.461 86.9375V88.6602H125.768V89.5098H127.461V93.1074C127.461 94.4316 128.193 95.0293 129.77 95.0293C130.074 95.0293 130.848 95 131.006 94.9707V94.127C130.836 94.1445 130.197 94.1621 129.84 94.1621C128.943 94.1621 128.457 93.7871 128.457 93.0957V89.5098H131.023V88.6602H128.445V86.9375H127.461ZM136.074 87.084C136.543 87.084 136.9 86.7324 136.9 86.2637C136.9 85.8008 136.543 85.4492 136.074 85.4492C135.605 85.4492 135.248 85.8008 135.248 86.2637C135.248 86.7324 135.605 87.084 136.074 87.084ZM138.74 95V94.1738H136.637V88.6426H133.49V89.4688H135.652V94.1738H133.473V95H138.74ZM143.381 95.1172C145.062 95.1172 146.135 94.0215 146.135 92.3047V91.3438C146.135 89.627 145.062 88.5312 143.381 88.5312C141.699 88.5312 140.627 89.627 140.627 91.3438V92.3047C140.627 94.0215 141.699 95.1172 143.381 95.1172ZM143.381 89.4102C144.471 89.4102 145.15 90.1836 145.15 91.4316V92.2109C145.15 93.4648 144.471 94.2324 143.381 94.2324C142.291 94.2324 141.611 93.4648 141.611 92.2109V91.4316C141.611 90.1836 142.291 89.4102 143.381 89.4102ZM148.197 95H149.193V91.2559C149.193 90.1719 149.896 89.4395 150.945 89.4395C151.936 89.4395 152.404 89.9785 152.404 91.127V95H153.4V90.875C153.4 89.3516 152.65 88.5254 151.268 88.5254C150.301 88.5254 149.574 88.9707 149.234 89.7617H149.152V88.6426H148.197V95Z" fill="white"/>
<circle cx="110" cy="106" r="3" fill="white"/>
<path d="M235 331C235 325.418 233.626 319.922 230.998 314.997C228.371 310.072 224.572 305.87 219.936 302.761C215.3 299.652 209.969 297.733 204.416 297.172C198.862 296.611 193.256 297.426 188.092 299.546" stroke="white" stroke-width="2"/>
</svg>
