<svg width="800" height="400" viewBox="0 0 800 400" fill="none" xmlns="http://www.w3.org/2000/svg">
<rect x="0" y="0" width="800" height="400" rx="3" fill="#fff"/>
<path d="M40 190H380V354C380 357.314 377.314 360 374 360H46C42.6863 360 40 357.314 40 354V190Z" fill="white"/>
<path d="M420 191H760V354C760 357.314 757.314 360 754 360H426C422.686 360 420 357.314 420 354V191Z" fill="white"/>
<path d="M40 46C40 42.6863 42.6863 40 46 40H374C377.314 40 380 42.6863 380 46V210H40V46Z" fill="#1BC47D"/>
<path d="M420 46C420 42.6863 422.686 40 426 40H754C757.314 40 760 42.6863 760 46V210H420V46Z" fill="#7B61FF"/>
<rect x="43" y="43" width="334" height="314" rx="3" stroke="#2C2C2C" stroke-width="6"/>
<rect x="423" y="43" width="334" height="314" rx="3" stroke="#2C2C2C" stroke-width="6"/>
<path d="M126.673 138H132.208V128.719H136.248L141.208 138H147.319L141.758 127.824C144.737 126.545 146.386 123.95 146.386 120.371C146.386 115.168 142.947 111.818 137.002 111.818H126.673V138ZM132.208 124.27V116.344H135.941C139.137 116.344 140.684 117.763 140.684 120.371C140.684 122.966 139.137 124.27 135.967 124.27H132.208ZM162.968 129.639C162.981 132.273 161.178 133.653 159.222 133.653C157.164 133.653 155.834 132.209 155.822 129.895V118.364H150.376V130.866C150.388 135.456 153.073 138.256 157.023 138.256C159.976 138.256 162.099 136.734 162.981 134.433H163.185V138H168.414V118.364H162.968V129.639ZM178.396 126.648C178.409 124.116 179.918 122.634 182.116 122.634C184.302 122.634 185.619 124.065 185.606 126.469V138H191.052V125.497C191.052 120.92 188.368 118.108 184.277 118.108C181.362 118.108 179.253 119.54 178.371 121.828H178.141V118.364H172.95V138H178.396V126.648ZM228.199 124.909C228.199 116.344 222.88 111.46 215.939 111.46C208.959 111.46 203.679 116.344 203.679 124.909C203.679 133.436 208.959 138.358 215.939 138.358C222.88 138.358 228.199 133.474 228.199 124.909ZM222.586 124.909C222.586 130.457 219.953 133.462 215.939 133.462C211.912 133.462 209.291 130.457 209.291 124.909C209.291 119.361 211.912 116.357 215.939 116.357C219.953 116.357 222.586 119.361 222.586 124.909ZM237.823 126.648C237.836 124.116 239.344 122.634 241.543 122.634C243.729 122.634 245.046 124.065 245.033 126.469V138H250.479V125.497C250.479 120.92 247.795 118.108 243.704 118.108C240.789 118.108 238.679 119.54 237.797 121.828H237.567V118.364H232.377V138H237.823V126.648ZM263.824 138.384C269.052 138.384 272.338 135.315 272.593 130.803H267.454C267.135 132.899 265.754 134.075 263.888 134.075C261.343 134.075 259.694 131.94 259.694 128.182C259.694 124.474 261.356 122.352 263.888 122.352C265.882 122.352 267.16 123.669 267.454 125.625H272.593C272.363 121.087 268.924 118.108 263.798 118.108C257.841 118.108 254.159 122.237 254.159 128.259C254.159 134.229 257.777 138.384 263.824 138.384ZM285.209 138.384C290.067 138.384 293.34 136.018 294.107 132.375L289.07 132.043C288.52 133.538 287.114 134.318 285.299 134.318C282.576 134.318 280.85 132.516 280.85 129.588V129.575H294.222V128.08C294.222 121.406 290.182 118.108 284.992 118.108C279.213 118.108 275.468 122.212 275.468 128.271C275.468 134.497 279.162 138.384 285.209 138.384ZM280.85 126.2C280.965 123.963 282.665 122.173 285.081 122.173C287.446 122.173 289.083 123.861 289.096 126.2H280.85Z" fill="#2C2C2C"/>
<path d="M512.562 116H517.957L522.93 98.8821H523.135L528.12 116H533.515L541.007 89.8182H534.96L530.626 108.048H530.396L525.628 89.8182H520.45L515.669 108.01H515.451L511.118 89.8182H505.071L512.562 116ZM544.047 116H549.493V96.3636H544.047V116ZM546.783 93.8324C548.407 93.8324 549.736 92.5923 549.736 91.071C549.736 89.5625 548.407 88.3224 546.783 88.3224C545.172 88.3224 543.843 89.5625 543.843 91.071C543.843 92.5923 545.172 93.8324 546.783 93.8324ZM564.48 96.3636H560.786V91.6591H555.34V96.3636H552.655V100.455H555.34V110.682C555.314 114.53 557.935 116.435 561.885 116.268C563.291 116.217 564.289 115.936 564.838 115.757L563.982 111.705C563.713 111.756 563.138 111.884 562.627 111.884C561.54 111.884 560.786 111.474 560.786 109.966V100.455H564.48V96.3636ZM574.076 104.648C574.089 102.116 575.636 100.634 577.86 100.634C580.072 100.634 581.376 102.053 581.363 104.469V116H586.809V103.497C586.822 98.8949 584.111 96.108 580.02 96.108C577.042 96.108 575.047 97.5142 574.153 99.8281H573.922V89.8182H568.63V116H574.076V104.648ZM616.099 89.8182V106.936C616.099 109.736 613.836 111.436 610.743 111.436C607.687 111.436 605.425 109.736 605.425 106.936V89.8182H599.889V107.128C599.889 113.06 604.389 116.371 610.743 116.371C617.071 116.371 621.596 113.06 621.596 107.128V89.8182H616.099ZM631.866 89.8182H626.331V116H631.866V89.8182ZM653.039 116.384C655.327 116.384 657.807 115.744 659.738 114.236L661.323 116H666.999L663.061 111.487C664.519 109.557 665.439 106.783 665.439 103.229H660.927C660.927 104.942 660.505 106.463 659.814 107.754L655.493 102.794L657.027 101.695C659.226 100.109 660.505 98.1151 660.505 95.6477C660.505 92.2983 657.909 89.473 653.704 89.473C649.408 89.473 646.557 92.4006 646.557 96.1974C646.557 98.5241 647.682 100.467 649.05 102.206C646.199 104.162 644.282 106.016 644.282 109.045C644.282 113.175 647.593 116.384 653.039 116.384ZM656.797 110.963C655.698 111.641 654.496 112.011 653.307 112.011C651.032 112.011 649.561 110.605 649.561 108.739C649.561 107.741 650.239 106.591 651.684 105.543L651.837 105.44L656.797 110.963ZM652.873 99.6875C651.901 98.4602 651.223 97.3736 651.223 96.2869C651.223 94.9702 652.221 93.8707 653.742 93.858C655.276 93.8452 656.145 94.919 656.145 95.9545C656.145 97.054 655.544 97.9616 654.24 98.7926L652.873 99.6875ZM474.163 161H479.532V157.855H479.775C480.529 159.491 482.178 161.32 485.349 161.32C489.823 161.32 493.313 157.778 493.313 151.207C493.313 144.457 489.67 141.108 485.361 141.108C482.076 141.108 480.503 143.064 479.775 144.662H479.609V134.818H474.163V161ZM479.493 151.182C479.493 147.679 480.976 145.442 483.623 145.442C486.32 145.442 487.752 147.781 487.752 151.182C487.752 154.608 486.295 156.986 483.623 156.986C481.002 156.986 479.493 154.685 479.493 151.182ZM497.127 161H502.573V149.891C502.573 147.474 504.337 145.812 506.741 145.812C507.495 145.812 508.53 145.94 509.042 146.107V141.274C508.556 141.159 507.878 141.082 507.329 141.082C505.13 141.082 503.327 142.361 502.611 144.79H502.407V141.364H497.127V161ZM519.996 161.384C525.953 161.384 529.66 157.305 529.66 151.259C529.66 145.173 525.953 141.108 519.996 141.108C514.038 141.108 510.331 145.173 510.331 151.259C510.331 157.305 514.038 161.384 519.996 161.384ZM520.021 157.165C517.273 157.165 515.866 154.646 515.866 151.22C515.866 147.794 517.273 145.263 520.021 145.263C522.719 145.263 524.125 147.794 524.125 151.22C524.125 154.646 522.719 157.165 520.021 157.165ZM536.763 161H542.516L545.891 148.651H546.134L549.509 161H555.274L560.605 141.364H555.108L552.117 154.48H551.95L548.729 141.364H543.321L540.151 154.557H539.972L536.929 141.364H531.419L536.763 161ZM580.028 146.963C579.543 143.345 576.628 141.108 571.668 141.108C566.644 141.108 563.332 143.435 563.345 147.219C563.332 150.159 565.186 152.064 569.021 152.831L572.422 153.509C574.135 153.854 574.915 154.48 574.94 155.464C574.915 156.628 573.649 157.459 571.744 157.459C569.801 157.459 568.51 156.628 568.178 155.03L562.821 155.311C563.332 159.07 566.528 161.384 571.732 161.384C576.82 161.384 580.463 158.788 580.476 154.915C580.463 152.077 578.609 150.376 574.8 149.597L571.246 148.881C569.418 148.484 568.74 147.858 568.753 146.912C568.74 145.736 570.07 144.969 571.757 144.969C573.649 144.969 574.774 146.004 575.043 147.27L580.028 146.963ZM593.034 161.384C597.892 161.384 601.165 159.018 601.932 155.375L596.895 155.043C596.345 156.538 594.939 157.318 593.124 157.318C590.401 157.318 588.675 155.516 588.675 152.588V152.575H602.047V151.08C602.047 144.406 598.007 141.108 592.817 141.108C587.038 141.108 583.293 145.212 583.293 151.271C583.293 157.497 586.987 161.384 593.034 161.384ZM588.675 149.2C588.79 146.963 590.49 145.173 592.906 145.173C595.271 145.173 596.908 146.861 596.92 149.2H588.675ZM605.781 161H611.227V149.891C611.227 147.474 612.991 145.812 615.395 145.812C616.149 145.812 617.184 145.94 617.696 146.107V141.274C617.21 141.159 616.532 141.082 615.983 141.082C613.784 141.082 611.981 142.361 611.265 144.79H611.061V141.364H605.781V161ZM633.818 161L635.762 155.03H645.209L647.152 161H653.084L644.058 134.818H636.925L627.887 161H633.818ZM637.168 150.709L640.389 140.801H640.594L643.816 150.709H637.168ZM656.415 161H661.951V152.511H666.604C672.626 152.511 676.128 148.919 676.128 143.69C676.128 138.487 672.689 134.818 666.745 134.818H656.415V161ZM661.951 148.075V139.344H665.684C668.88 139.344 670.427 141.082 670.427 143.69C670.427 146.286 668.88 148.075 665.709 148.075H661.951ZM685.439 134.818H679.904V161H685.439V134.818ZM706.41 146.963C705.924 143.345 703.009 141.108 698.049 141.108C693.025 141.108 689.714 143.435 689.726 147.219C689.714 150.159 691.567 152.064 695.402 152.831L698.803 153.509C700.516 153.854 701.296 154.48 701.321 155.464C701.296 156.628 700.03 157.459 698.125 157.459C696.182 157.459 694.891 156.628 694.559 155.03L689.202 155.311C689.714 159.07 692.91 161.384 698.113 161.384C703.201 161.384 706.844 158.788 706.857 154.915C706.844 152.077 704.991 150.376 701.181 149.597L697.627 148.881C695.799 148.484 695.121 147.858 695.134 146.912C695.121 145.736 696.451 144.969 698.138 144.969C700.03 144.969 701.155 146.004 701.424 147.27L706.41 146.963Z" fill="white"/>
<path d="M77.7131 266H80.2614V257.929C80.2614 256.165 81.4972 254.938 82.946 254.938C84.3608 254.938 85.3409 255.875 85.3409 257.298V266H87.8807V257.656C87.8807 256.08 88.8438 254.938 90.5057 254.938C91.8523 254.938 92.9602 255.688 92.9602 257.46V266H95.5085V257.222C95.5085 254.23 93.8381 252.739 91.4688 252.739C89.5852 252.739 88.1705 253.642 87.5398 255.04H87.4034C86.8324 253.608 85.6307 252.739 83.8835 252.739C82.1534 252.739 80.8665 253.599 80.321 255.04H80.1591V252.909H77.7131V266ZM102.854 266.29C105.018 266.29 106.237 265.19 106.723 264.21H106.825V266H109.314V257.307C109.314 253.497 106.314 252.739 104.234 252.739C101.865 252.739 99.6832 253.693 98.8309 256.08L101.226 256.625C101.601 255.696 102.555 254.801 104.268 254.801C105.913 254.801 106.757 255.662 106.757 257.145V257.205C106.757 258.134 105.803 258.116 103.45 258.389C100.97 258.679 98.4304 259.327 98.4304 262.301C98.4304 264.875 100.365 266.29 102.854 266.29ZM103.408 264.244C101.967 264.244 100.928 263.597 100.928 262.335C100.928 260.972 102.138 260.486 103.612 260.29C104.439 260.179 106.399 259.957 106.766 259.591V261.278C106.766 262.83 105.53 264.244 103.408 264.244ZM115.376 258.227C115.376 256.139 116.655 254.946 118.428 254.946C120.158 254.946 121.206 256.08 121.206 257.98V266H123.754V257.673C123.754 254.435 121.973 252.739 119.297 252.739C117.328 252.739 116.041 253.651 115.436 255.04H115.274V252.909H112.828V266H115.376V258.227ZM127.292 266H129.84V252.909H127.292V266ZM128.579 250.889C129.457 250.889 130.19 250.207 130.19 249.372C130.19 248.537 129.457 247.847 128.579 247.847C127.692 247.847 126.968 248.537 126.968 249.372C126.968 250.207 127.692 250.889 128.579 250.889ZM139.618 252.909H136.797V251.733C136.797 250.574 137.275 249.943 138.519 249.943C139.047 249.943 139.422 250.062 139.661 250.139L140.258 248.077C139.9 247.94 139.158 247.727 138.127 247.727C136.056 247.727 134.241 248.938 134.241 251.392V252.909H132.221V254.955H134.241V266H136.797V254.955H139.618V252.909ZM147.494 266.264C150.349 266.264 152.369 264.858 152.949 262.727L150.537 262.293C150.077 263.528 148.969 264.159 147.52 264.159C145.338 264.159 143.872 262.744 143.804 260.222H153.111V259.318C153.111 254.588 150.281 252.739 147.315 252.739C143.667 252.739 141.264 255.517 141.264 259.54C141.264 263.605 143.633 266.264 147.494 266.264ZM143.812 258.312C143.915 256.455 145.261 254.844 147.332 254.844C149.31 254.844 150.605 256.31 150.613 258.312H143.812ZM165.868 256.105C165.339 254.068 163.746 252.739 160.916 252.739C157.959 252.739 155.862 254.298 155.862 256.616C155.862 258.474 156.987 259.71 159.442 260.256L161.658 260.741C162.919 261.023 163.507 261.585 163.507 262.403C163.507 263.418 162.425 264.21 160.754 264.21C159.229 264.21 158.248 263.554 157.942 262.267L155.479 262.642C155.905 264.96 157.831 266.264 160.771 266.264C163.933 266.264 166.123 264.585 166.123 262.216C166.123 260.366 164.947 259.224 162.544 258.67L160.464 258.193C159.024 257.852 158.402 257.366 158.41 256.48C158.402 255.474 159.493 254.759 160.942 254.759C162.527 254.759 163.26 255.636 163.558 256.514L165.868 256.105ZM175.156 252.909H172.471V249.773H169.923V252.909H168.005V254.955H169.923V262.685C169.915 265.062 171.73 266.213 173.741 266.17C174.551 266.162 175.096 266.009 175.395 265.898L174.934 263.793C174.764 263.827 174.449 263.903 174.04 263.903C173.213 263.903 172.471 263.631 172.471 262.156V254.955H175.156V252.909ZM179.774 266.162C180.703 266.162 181.478 265.403 181.478 264.457C181.478 263.528 180.703 262.761 179.774 262.761C178.836 262.761 178.069 263.528 178.069 264.457C178.069 265.403 178.836 266.162 179.774 266.162ZM185.012 252.909V266.818C185.012 268.037 184.509 268.702 183.299 268.702C183.154 268.702 183.043 268.702 182.89 268.693V270.892H183.384C186.12 270.926 187.56 269.46 187.56 266.835V252.909H185.012ZM186.273 250.889C187.151 250.889 187.884 250.207 187.884 249.372C187.884 248.537 187.151 247.847 186.273 247.847C185.387 247.847 184.662 248.537 184.662 249.372C184.662 250.207 185.387 250.889 186.273 250.889ZM200.918 256.105C200.39 254.068 198.796 252.739 195.966 252.739C193.009 252.739 190.912 254.298 190.912 256.616C190.912 258.474 192.037 259.71 194.492 260.256L196.708 260.741C197.969 261.023 198.557 261.585 198.557 262.403C198.557 263.418 197.475 264.21 195.804 264.21C194.279 264.21 193.299 263.554 192.992 262.267L190.529 262.642C190.955 264.96 192.881 266.264 195.821 266.264C198.983 266.264 201.174 264.585 201.174 262.216C201.174 260.366 199.998 259.224 197.594 258.67L195.515 258.193C194.074 257.852 193.452 257.366 193.461 256.48C193.452 255.474 194.543 254.759 195.992 254.759C197.577 254.759 198.31 255.636 198.608 256.514L200.918 256.105ZM209.61 266.264C213.3 266.264 215.712 263.562 215.712 259.514C215.712 255.44 213.3 252.739 209.61 252.739C205.919 252.739 203.507 255.44 203.507 259.514C203.507 263.562 205.919 266.264 209.61 266.264ZM209.618 264.125C207.206 264.125 206.081 262.02 206.081 259.506C206.081 257 207.206 254.869 209.618 254.869C212.013 254.869 213.138 257 213.138 259.506C213.138 262.02 212.013 264.125 209.618 264.125ZM221.225 258.227C221.225 256.139 222.503 254.946 224.276 254.946C226.006 254.946 227.054 256.08 227.054 257.98V266H229.603V257.673C229.603 254.435 227.821 252.739 225.145 252.739C223.177 252.739 221.89 253.651 221.284 255.04H221.123V252.909H218.677V266H221.225V258.227ZM77.7131 306.909H80.2614V299.963H80.4148C80.875 300.798 81.8125 302.256 84.1989 302.256C87.3693 302.256 89.6705 299.716 89.6705 295.48C89.6705 291.236 87.3352 288.739 84.1733 288.739C81.7443 288.739 80.8665 290.222 80.4148 291.031H80.2017V288.909H77.7131V306.909ZM80.2102 295.455C80.2102 292.719 81.4034 290.903 83.6278 290.903C85.9375 290.903 87.0966 292.855 87.0966 295.455C87.0966 298.08 85.9034 300.082 83.6278 300.082C81.4375 300.082 80.2102 298.207 80.2102 295.455ZM95.1939 284.545H92.6456V302H95.1939V284.545ZM107.035 296.571C107.043 298.795 105.39 299.852 103.958 299.852C102.381 299.852 101.29 298.71 101.29 296.929V288.909H98.7421V297.236C98.7421 300.483 100.523 302.17 103.038 302.17C105.006 302.17 106.344 301.131 106.95 299.733H107.086V302H109.592V288.909H107.035V296.571ZM118.624 307.156C121.957 307.156 124.53 305.631 124.53 302.29V288.909H122.033V291.031H121.846C121.394 290.222 120.491 288.739 118.053 288.739C114.891 288.739 112.565 291.236 112.565 295.403C112.565 299.58 114.942 301.804 118.036 301.804C120.44 301.804 121.369 300.449 121.829 299.614H121.991V302.188C121.991 304.207 120.584 305.102 118.65 305.102C116.528 305.102 115.701 304.037 115.249 303.312L113.059 304.216C113.749 305.793 115.496 307.156 118.624 307.156ZM118.599 299.69C116.323 299.69 115.138 297.943 115.138 295.369C115.138 292.855 116.298 290.903 118.599 290.903C120.823 290.903 122.016 292.719 122.016 295.369C122.016 298.071 120.798 299.69 118.599 299.69ZM128.068 302H130.616V288.909H128.068V302ZM129.355 286.889C130.233 286.889 130.966 286.207 130.966 285.372C130.966 284.537 130.233 283.847 129.355 283.847C128.469 283.847 127.744 284.537 127.744 285.372C127.744 286.207 128.469 286.889 129.355 286.889ZM136.713 294.227C136.713 292.139 137.991 290.946 139.764 290.946C141.494 290.946 142.542 292.08 142.542 293.98V302H145.091V293.673C145.091 290.435 143.31 288.739 140.633 288.739C138.665 288.739 137.378 289.651 136.773 291.04H136.611V288.909H134.165V302H136.713V294.227ZM150.307 302.162C151.236 302.162 152.012 301.403 152.012 300.457C152.012 299.528 151.236 298.761 150.307 298.761C149.37 298.761 148.603 299.528 148.603 300.457C148.603 301.403 149.37 302.162 150.307 302.162ZM155.545 288.909V302.818C155.545 304.037 155.042 304.702 153.832 304.702C153.687 304.702 153.577 304.702 153.423 304.693V306.892H153.917C156.653 306.926 158.094 305.46 158.094 302.835V288.909H155.545ZM156.807 286.889C157.684 286.889 158.417 286.207 158.417 285.372C158.417 284.537 157.684 283.847 156.807 283.847C155.92 283.847 155.196 284.537 155.196 285.372C155.196 286.207 155.92 286.889 156.807 286.889ZM171.451 292.105C170.923 290.068 169.329 288.739 166.5 288.739C163.542 288.739 161.446 290.298 161.446 292.616C161.446 294.474 162.571 295.71 165.025 296.256L167.241 296.741C168.503 297.023 169.091 297.585 169.091 298.403C169.091 299.418 168.008 300.21 166.338 300.21C164.812 300.21 163.832 299.554 163.525 298.267L161.062 298.642C161.488 300.96 163.415 302.264 166.355 302.264C169.517 302.264 171.707 300.585 171.707 298.216C171.707 296.366 170.531 295.224 168.128 294.67L166.048 294.193C164.608 293.852 163.986 293.366 163.994 292.48C163.986 291.474 165.076 290.759 166.525 290.759C168.111 290.759 168.844 291.636 169.142 292.514L171.451 292.105Z" fill="#2C2C2C"/>
<path d="M457.713 248H460.261V239.929C460.261 238.165 461.497 236.938 462.946 236.938C464.361 236.938 465.341 237.875 465.341 239.298V248H467.881V239.656C467.881 238.08 468.844 236.938 470.506 236.938C471.852 236.938 472.96 237.688 472.96 239.46V248H475.509V239.222C475.509 236.23 473.838 234.739 471.469 234.739C469.585 234.739 468.17 235.642 467.54 237.04H467.403C466.832 235.608 465.631 234.739 463.884 234.739C462.153 234.739 460.866 235.599 460.321 237.04H460.159V234.909H457.713V248ZM482.854 248.29C485.018 248.29 486.237 247.19 486.723 246.21H486.825V248H489.314V239.307C489.314 235.497 486.314 234.739 484.234 234.739C481.865 234.739 479.683 235.693 478.831 238.08L481.226 238.625C481.601 237.696 482.555 236.801 484.268 236.801C485.913 236.801 486.757 237.662 486.757 239.145V239.205C486.757 240.134 485.803 240.116 483.45 240.389C480.97 240.679 478.43 241.327 478.43 244.301C478.43 246.875 480.365 248.29 482.854 248.29ZM483.408 246.244C481.967 246.244 480.928 245.597 480.928 244.335C480.928 242.972 482.138 242.486 483.612 242.29C484.439 242.179 486.399 241.957 486.766 241.591V243.278C486.766 244.83 485.53 246.244 483.408 246.244ZM495.376 240.227C495.376 238.139 496.655 236.946 498.428 236.946C500.158 236.946 501.206 238.08 501.206 239.98V248H503.754V239.673C503.754 236.435 501.973 234.739 499.297 234.739C497.328 234.739 496.041 235.651 495.436 237.04H495.274V234.909H492.828V248H495.376V240.227ZM507.292 248H509.84V234.909H507.292V248ZM508.579 232.889C509.457 232.889 510.19 232.207 510.19 231.372C510.19 230.537 509.457 229.847 508.579 229.847C507.692 229.847 506.968 230.537 506.968 231.372C506.968 232.207 507.692 232.889 508.579 232.889ZM519.618 234.909H516.797V233.733C516.797 232.574 517.275 231.943 518.519 231.943C519.047 231.943 519.422 232.062 519.661 232.139L520.258 230.077C519.9 229.94 519.158 229.727 518.127 229.727C516.056 229.727 514.241 230.938 514.241 233.392V234.909H512.221V236.955H514.241V248H516.797V236.955H519.618V234.909ZM527.494 248.264C530.349 248.264 532.369 246.858 532.949 244.727L530.537 244.293C530.077 245.528 528.969 246.159 527.52 246.159C525.338 246.159 523.872 244.744 523.804 242.222H533.111V241.318C533.111 236.588 530.281 234.739 527.315 234.739C523.667 234.739 521.264 237.517 521.264 241.54C521.264 245.605 523.633 248.264 527.494 248.264ZM523.812 240.312C523.915 238.455 525.261 236.844 527.332 236.844C529.31 236.844 530.605 238.31 530.613 240.312H523.812ZM545.868 238.105C545.339 236.068 543.746 234.739 540.916 234.739C537.959 234.739 535.862 236.298 535.862 238.616C535.862 240.474 536.987 241.71 539.442 242.256L541.658 242.741C542.919 243.023 543.507 243.585 543.507 244.403C543.507 245.418 542.425 246.21 540.754 246.21C539.229 246.21 538.248 245.554 537.942 244.267L535.479 244.642C535.905 246.96 537.831 248.264 540.771 248.264C543.933 248.264 546.123 246.585 546.123 244.216C546.123 242.366 544.947 241.224 542.544 240.67L540.464 240.193C539.024 239.852 538.402 239.366 538.41 238.48C538.402 237.474 539.493 236.759 540.942 236.759C542.527 236.759 543.26 237.636 543.558 238.514L545.868 238.105ZM555.156 234.909H552.471V231.773H549.923V234.909H548.005V236.955H549.923V244.685C549.915 247.062 551.73 248.213 553.741 248.17C554.551 248.162 555.096 248.009 555.395 247.898L554.934 245.793C554.764 245.827 554.449 245.903 554.04 245.903C553.213 245.903 552.471 245.631 552.471 244.156V236.955H555.156V234.909ZM559.774 248.162C560.703 248.162 561.478 247.403 561.478 246.457C561.478 245.528 560.703 244.761 559.774 244.761C558.836 244.761 558.069 245.528 558.069 246.457C558.069 247.403 558.836 248.162 559.774 248.162ZM565.012 234.909V248.818C565.012 250.037 564.509 250.702 563.299 250.702C563.154 250.702 563.043 250.702 562.89 250.693V252.892H563.384C566.12 252.926 567.56 251.46 567.56 248.835V234.909H565.012ZM566.273 232.889C567.151 232.889 567.884 232.207 567.884 231.372C567.884 230.537 567.151 229.847 566.273 229.847C565.387 229.847 564.662 230.537 564.662 231.372C564.662 232.207 565.387 232.889 566.273 232.889ZM580.918 238.105C580.39 236.068 578.796 234.739 575.966 234.739C573.009 234.739 570.912 236.298 570.912 238.616C570.912 240.474 572.037 241.71 574.492 242.256L576.708 242.741C577.969 243.023 578.557 243.585 578.557 244.403C578.557 245.418 577.475 246.21 575.804 246.21C574.279 246.21 573.299 245.554 572.992 244.267L570.529 244.642C570.955 246.96 572.881 248.264 575.821 248.264C578.983 248.264 581.174 246.585 581.174 244.216C581.174 242.366 579.998 241.224 577.594 240.67L575.515 240.193C574.074 239.852 573.452 239.366 573.461 238.48C573.452 237.474 574.543 236.759 575.992 236.759C577.577 236.759 578.31 237.636 578.608 238.514L580.918 238.105ZM589.61 248.264C593.3 248.264 595.712 245.562 595.712 241.514C595.712 237.44 593.3 234.739 589.61 234.739C585.919 234.739 583.507 237.44 583.507 241.514C583.507 245.562 585.919 248.264 589.61 248.264ZM589.618 246.125C587.206 246.125 586.081 244.02 586.081 241.506C586.081 239 587.206 236.869 589.618 236.869C592.013 236.869 593.138 239 593.138 241.506C593.138 244.02 592.013 246.125 589.618 246.125ZM601.225 240.227C601.225 238.139 602.503 236.946 604.276 236.946C606.006 236.946 607.054 238.08 607.054 239.98V248H609.603V239.673C609.603 236.435 607.821 234.739 605.145 234.739C603.177 234.739 601.89 235.651 601.284 237.04H601.123V234.909H598.677V248H601.225V240.227ZM457.713 288.909H460.261V281.963H460.415C460.875 282.798 461.812 284.256 464.199 284.256C467.369 284.256 469.67 281.716 469.67 277.48C469.67 273.236 467.335 270.739 464.173 270.739C461.744 270.739 460.866 272.222 460.415 273.031H460.202V270.909H457.713V288.909ZM460.21 277.455C460.21 274.719 461.403 272.903 463.628 272.903C465.938 272.903 467.097 274.855 467.097 277.455C467.097 280.08 465.903 282.082 463.628 282.082C461.438 282.082 460.21 280.207 460.21 277.455ZM475.194 266.545H472.646V284H475.194V266.545ZM487.035 278.571C487.043 280.795 485.39 281.852 483.958 281.852C482.381 281.852 481.29 280.71 481.29 278.929V270.909H478.742V279.236C478.742 282.483 480.523 284.17 483.038 284.17C485.006 284.17 486.344 283.131 486.95 281.733H487.086V284H489.592V270.909H487.035V278.571ZM498.624 289.156C501.957 289.156 504.53 287.631 504.53 284.29V270.909H502.033V273.031H501.846C501.394 272.222 500.491 270.739 498.053 270.739C494.891 270.739 492.565 273.236 492.565 277.403C492.565 281.58 494.942 283.804 498.036 283.804C500.44 283.804 501.369 282.449 501.829 281.614H501.991V284.188C501.991 286.207 500.584 287.102 498.65 287.102C496.528 287.102 495.701 286.037 495.249 285.312L493.059 286.216C493.749 287.793 495.496 289.156 498.624 289.156ZM498.599 281.69C496.323 281.69 495.138 279.943 495.138 277.369C495.138 274.855 496.298 272.903 498.599 272.903C500.823 272.903 502.016 274.719 502.016 277.369C502.016 280.071 500.798 281.69 498.599 281.69ZM508.068 284H510.616V270.909H508.068V284ZM509.355 268.889C510.233 268.889 510.966 268.207 510.966 267.372C510.966 266.537 510.233 265.847 509.355 265.847C508.469 265.847 507.744 266.537 507.744 267.372C507.744 268.207 508.469 268.889 509.355 268.889ZM516.713 276.227C516.713 274.139 517.991 272.946 519.764 272.946C521.494 272.946 522.542 274.08 522.542 275.98V284H525.091V275.673C525.091 272.435 523.31 270.739 520.633 270.739C518.665 270.739 517.378 271.651 516.773 273.04H516.611V270.909H514.165V284H516.713V276.227ZM530.307 284.162C531.236 284.162 532.012 283.403 532.012 282.457C532.012 281.528 531.236 280.761 530.307 280.761C529.37 280.761 528.603 281.528 528.603 282.457C528.603 283.403 529.37 284.162 530.307 284.162ZM535.545 270.909V284.818C535.545 286.037 535.042 286.702 533.832 286.702C533.687 286.702 533.577 286.702 533.423 286.693V288.892H533.917C536.653 288.926 538.094 287.46 538.094 284.835V270.909H535.545ZM536.807 268.889C537.684 268.889 538.417 268.207 538.417 267.372C538.417 266.537 537.684 265.847 536.807 265.847C535.92 265.847 535.196 266.537 535.196 267.372C535.196 268.207 535.92 268.889 536.807 268.889ZM551.451 274.105C550.923 272.068 549.329 270.739 546.5 270.739C543.542 270.739 541.446 272.298 541.446 274.616C541.446 276.474 542.571 277.71 545.025 278.256L547.241 278.741C548.503 279.023 549.091 279.585 549.091 280.403C549.091 281.418 548.008 282.21 546.338 282.21C544.812 282.21 543.832 281.554 543.525 280.267L541.062 280.642C541.488 282.96 543.415 284.264 546.355 284.264C549.517 284.264 551.707 282.585 551.707 280.216C551.707 278.366 550.531 277.224 548.128 276.67L546.048 276.193C544.608 275.852 543.986 275.366 543.994 274.48C543.986 273.474 545.076 272.759 546.525 272.759C548.111 272.759 548.844 273.636 549.142 274.514L551.451 274.105ZM466.006 314.571C466.014 316.795 464.361 317.852 462.929 317.852C461.352 317.852 460.261 316.71 460.261 314.929V306.909H457.713V315.236C457.713 318.483 459.494 320.17 462.009 320.17C463.977 320.17 465.315 319.131 465.92 317.733H466.057V320H468.562V306.909H466.006V314.571ZM472.107 320H474.655V306.909H472.107V320ZM473.393 304.889C474.271 304.889 475.004 304.207 475.004 303.372C475.004 302.537 474.271 301.847 473.393 301.847C472.507 301.847 471.783 302.537 471.783 303.372C471.783 304.207 472.507 304.889 473.393 304.889ZM479.882 320.162C480.811 320.162 481.587 319.403 481.587 318.457C481.587 317.528 480.811 316.761 479.882 316.761C478.945 316.761 478.177 317.528 478.177 318.457C478.177 319.403 478.945 320.162 479.882 320.162ZM487.668 312.227C487.668 310.139 488.989 308.946 490.805 308.946C492.56 308.946 493.609 310.062 493.609 311.98V320H496.157V311.673C496.157 308.409 494.367 306.739 491.674 306.739C489.637 306.739 488.41 307.625 487.796 309.04H487.634V302.545H485.12V320H487.668V312.227ZM505.788 306.909H503.104V303.773H500.555V306.909H498.638V308.955H500.555V316.685C500.547 319.062 502.362 320.213 504.373 320.17C505.183 320.162 505.729 320.009 506.027 319.898L505.567 317.793C505.396 317.827 505.081 317.903 504.672 317.903C503.845 317.903 503.104 317.631 503.104 316.156V308.955H505.788V306.909ZM508.727 320H511.275V311.929C511.275 310.165 512.511 308.938 513.96 308.938C515.375 308.938 516.355 309.875 516.355 311.298V320H518.895V311.656C518.895 310.08 519.858 308.938 521.52 308.938C522.866 308.938 523.974 309.688 523.974 311.46V320H526.523V311.222C526.523 308.23 524.852 306.739 522.483 306.739C520.599 306.739 519.185 307.642 518.554 309.04H518.417C517.846 307.608 516.645 306.739 514.898 306.739C513.167 306.739 511.881 307.599 511.335 309.04H511.173V306.909H508.727V320ZM532.606 302.545H530.058V320H532.606V302.545Z" fill="#2C2C2C"/>
</svg>
