<svg width="1075" height="690" viewBox="0 0 1075 690" fill="none" xmlns="http://www.w3.org/2000/svg">
<g clip-path="url(#clip0_1209_2593)">
<path d="M0 0H1075V690H0V0Z" fill="white"/>
<path d="M975 57.8628H100V639.863H975V57.8628Z" fill="white"/>
<path fill-rule="evenodd" clip-rule="evenodd" d="M130.757 170.683C133.594 171.818 157.707 178.627 157.707 178.627L157.566 216.783L130.473 208.839L130.757 170.683Z" fill="white" stroke="black" stroke-linejoin="bevel"/>
<path fill-rule="evenodd" clip-rule="evenodd" d="M130.686 170.824L184.516 155.647L210.757 163.164L157.774 178.704L130.686 170.824Z" fill="white" stroke="black" stroke-linejoin="bevel"/>
<path d="M200.198 192.541L256.5 216.847" stroke="#4E4BEC" stroke-width="2"/>
<path fill-rule="evenodd" clip-rule="evenodd" d="M157.707 178.909L210.899 162.881V201.037L157.849 216.782L157.707 178.909Z" fill="white" stroke="black" stroke-linejoin="bevel"/>
<path fill-rule="evenodd" clip-rule="evenodd" d="M198.684 208.11L181.332 204.7C172.745 203.797 172.154 177.506 185.874 176.27L199.988 178.22" fill="white"/>
<path d="M198.684 208.11L181.332 204.7C172.745 203.797 172.154 177.506 185.874 176.27L199.988 178.22" stroke="black"/>
<path d="M209.342 193.235C209.342 201.517 204.53 208.238 198.602 208.238C192.674 208.238 187.863 201.517 187.863 193.236C187.863 184.955 192.674 178.234 198.603 178.234C204.53 178.234 209.342 184.953 209.342 193.235Z" fill="white" stroke="black" stroke-linecap="round" stroke-linejoin="bevel"/>
<path d="M754.463 388.67C754.462 408.53 748.573 427.944 737.539 444.457C726.505 460.97 710.823 473.84 692.475 481.441C667.87 491.632 640.226 491.632 615.621 481.441C591.017 471.249 571.469 451.701 561.277 427.097C551.087 402.492 551.087 374.848 561.279 350.243C571.47 325.639 591.017 306.091 615.621 295.899C640.226 285.708 667.87 285.708 692.475 295.899C710.823 303.5 726.505 316.371 737.538 332.883C748.572 349.396 754.462 368.81 754.463 388.67Z" fill="url(#paint0_radial_1209_2593)" stroke="black" stroke-width="3" stroke-linecap="round"/>
<path d="M198.842 192.408L382.104 236.096M198.842 192.408L359.977 245.174M198.842 192.408L354.87 334.82" stroke="#FF0000" stroke-width="2"/>
<path fill-rule="evenodd" clip-rule="evenodd" d="M256.155 176.515L257.76 431.675L463.172 343.412L462.369 86.6479L256.155 176.515Z" fill="white" fill-opacity="0.678" stroke="black" stroke-width="2"/>
<path opacity="0.25" d="M280.227 164.88V422.447M302.694 154.85V412.417M325.562 146.024V403.591M348.43 136.395V392.544M370.897 126.747V382.327M393.765 116.267V372.699M416.232 106.893V363.609M438.699 97.21V353.642M256.556 207.407L461.566 120.347M256.356 239.703L462.57 152.042M256.556 271.197L462.369 183.737M256.556 303.293L460.363 216.634L462.703 215.575M256.556 335.388L462.771 247.526M256.556 367.483L462.772 279.623M256.556 400.382L462.971 312.922" stroke="black" stroke-width="1.5"/>
<path opacity="0.25" d="M416.714 270.706C416.714 298.581 398.499 330.281 379.551 330.281C360.603 330.281 344.091 308.226 344.091 280.351C344.091 252.478 362.873 221.345 381.821 221.345C400.769 221.345 416.714 242.832 416.714 270.706Z" fill="#F9C578" stroke="black" stroke-width="1.5" stroke-linecap="round" stroke-linejoin="bevel"/>
<path d="M359.906 245.174L602.246 325.742" stroke="#FF0000" stroke-width="2"/>
<path fill-rule="evenodd" clip-rule="evenodd" d="M605.697 327.114L591.772 317.277L588.786 326.208L605.696 327.114H605.697Z" fill="#FF0000" stroke="#FF0000"/>
<path d="M382.104 236.096L633.801 297.401" stroke="#FF0000" stroke-width="2"/>
<path fill-rule="evenodd" clip-rule="evenodd" d="M645.816 300.635L631.089 291.4L628.304 300.733L645.816 300.635Z" fill="#FF0000" stroke="#FF0000"/>
<path d="M354.802 334.769L553.039 513.691" stroke="#FF0000" stroke-width="2"/>
<path fill-rule="evenodd" clip-rule="evenodd" d="M555.398 515.714L546.785 501.001L540.375 507.899L555.398 515.714Z" fill="#FF0000" stroke="#FF0000"/>
<path d="M62.72 115.36V115.92C62.64 115.92 62.48 116 62.2 116.12C62.2 116.24 62.16 116.32 62.12 116.4L62.52 116.8C62.4 116.92 62.08 117.08 61.56 117.16C61 117.28 60.72 117.4 60.68 117.44L57.04 116.64C56.4 116.72 55.56 116.84 54.48 117C53.24 117.44 52.04 117.8 50.96 118.08C49.68 118.6 47.8 119.36 45.36 120.48C43.12 121.52 41.76 123.08 41.2 125.12C41.2 125.2 41.28 125.72 41.4 126.68V127.32C41.28 127.56 41.16 127.76 41.12 127.92C41.04 128.16 41.12 128.36 41.36 128.52L39.36 129.76H39C38.72 129.6 38.36 129.32 37.92 128.96L37.4 129.04C37.24 128.8 37 128.48 36.72 128.04C36.6 127.68 36.44 127.4 36.32 127.12C36.16 126.32 36.08 125.92 36.08 125.88V124.2C36.08 124.16 36.12 124.08 36.12 123.96C36.16 123.84 36.2 123.76 36.2 123.72V121.92C36.2 121.4 36.36 120.48 36.76 119.2C37.24 117.56 37.76 116.76 38.36 116.76H38.96L39.64 117.36H39.92C40.24 117.36 41.48 116.72 43.52 115.4C44.96 114.76 47.12 113.84 50.04 112.56C50.12 112.6 50.76 112.32 52.04 111.76C52.32 111.76 52.92 111.64 53.88 111.44C54.8 111.24 55.24 111.12 55.28 111.12H57.24C58.64 111.12 60.24 112.04 62.08 113.88C62.16 113.96 62.2 114.12 62.24 114.36C62.56 114.72 62.72 115.08 62.72 115.36ZM78.0116 119.96H76.9716C76.5716 119.96 75.7716 120.24 74.5316 120.72C73.8116 121 73.0916 121.28 72.3316 121.6C71.5316 122.08 70.6516 122.76 69.6916 123.68L69.6116 123.92L70.7316 124.04C73.4116 123.36 75.5316 122.24 77.0916 120.68C77.1716 120.6 77.4916 120.36 78.0116 119.96ZM87.6116 125.92C87.2516 126.36 86.7716 126.92 86.1716 127.68L85.4916 127.56C85.4116 127.68 85.3316 127.88 85.1716 128.08C84.9716 128 84.7316 127.84 84.3716 127.6C84.0116 127.68 83.2916 127.24 82.1316 126.32C81.8916 125.84 81.2916 124.92 80.3716 123.64L75.2116 127.52C75.2116 127.56 75.2516 127.6 75.2916 127.68C75.3716 127.76 75.4116 127.8 75.4116 127.84C75.2916 128.04 75.0516 128.24 74.6516 128.44C74.3316 128.6 74.0516 128.76 73.6916 128.92C70.7716 129.8 69.3316 130.28 69.4116 130.28C67.4116 130.28 65.8116 129.48 64.6116 127.92C64.0516 126.4 63.7716 125.28 63.7716 124.6C63.7716 124.16 64.2916 122.72 65.3316 120.36C66.2516 119.36 66.8916 118.88 67.3316 118.84C67.4516 118.72 68.4116 118 70.2116 116.8C71.0516 116.44 72.3716 115.88 74.2516 115.08C76.2516 114.6 77.1716 114.36 77.0116 114.36C77.1316 114.36 77.4516 114.4 78.0116 114.44C78.6516 114.48 79.0516 114.52 79.2516 114.48C80.0516 114.84 80.4116 115.2 80.4116 115.64C80.4116 115.68 80.4116 115.76 80.4116 115.8C80.6516 116 80.8516 116.28 81.0116 116.64C81.2116 117.08 81.3316 117.32 81.3716 117.44C81.4916 117.4 81.6116 117.4 81.7316 117.4C82.3316 117.4 82.8916 117.64 83.4116 118.12C84.2516 119.44 85.0116 120.68 85.6916 121.88C86.6116 123.44 87.2516 124.8 87.6116 125.92ZM109.723 120.32C109.723 121.92 108.963 125.2 107.483 130.12C107.283 130.84 106.203 133.84 104.243 139.2C104.323 139.28 104.403 139.28 104.523 139.28H104.243L102.403 143.64L100.403 150.04C100.283 150.12 99.9228 150.48 99.2828 151.16C99.1628 151.16 98.9628 151.2 98.6428 151.32C98.3228 151.44 98.1228 151.48 98.0828 151.48C98.0828 151.48 97.9628 151.44 97.6428 151.36C97.2028 150.92 96.6028 150.24 95.7628 149.32C95.4428 148.16 95.2428 146.96 95.1628 146.36L95.7628 143.52L97.6428 138L101.323 129.24C101.283 129.12 101.243 129 101.163 128.84C99.7628 129.28 98.7628 129.48 98.1628 129.48C96.0428 129.48 94.3228 128.08 93.0028 125.32C91.9228 123.08 91.4028 120.76 91.4028 118.36C91.4028 117.76 91.5628 117.04 91.8428 116.24C92.0828 115.96 92.4428 115.6 92.9628 115.12H93.2428C93.4828 115.12 94.0828 115.6 95.0828 116.56C95.3628 117 95.5628 117.56 95.7228 118.24C95.7628 118.48 95.9628 119.32 96.2828 120.72C96.6028 122.16 96.9628 122.88 97.4028 122.88C98.4828 122.88 99.9228 122.08 101.843 120.52C103.363 119.24 104.643 117.96 105.643 116.68C105.843 116.64 106.123 116.52 106.443 116.28C106.683 116.36 107.043 116.4 107.483 116.4C107.683 116.64 108.003 117.04 108.483 117.6C108.603 117.64 108.723 117.68 108.883 117.76C109.443 118.44 109.723 119.32 109.723 120.32ZM149.988 110.36L150.068 107.96C150.068 107.12 149.788 106.08 149.148 104.84C148.548 103.6 147.948 103 147.428 102.96C147.308 102.84 146.468 102.36 144.948 101.52C144.428 101.4 143.708 101.16 142.828 100.84C140.468 100.32 138.868 100.08 137.908 100.08L135.308 100.44L135.228 100.28L132.428 101.2C132.348 101.04 132.308 100.96 132.308 100.88C132.308 100.84 132.348 100.8 132.388 100.8L131.908 101.04C131.708 101.4 131.468 101.64 131.268 101.76C130.988 101.88 130.548 102 129.988 102.12C129.588 102.32 128.988 102.8 128.188 103.56C127.508 104.24 126.908 104.8 126.468 105.24L124.868 109.24C124.748 109.32 124.708 109.6 124.668 110.12C124.508 110.28 124.348 110.36 124.188 110.4C124.068 110.32 123.948 110.2 123.788 110C123.668 110.2 123.508 110.44 123.268 110.8C123.108 110.68 122.908 110.48 122.588 110.2L122.388 110.52C122.348 110.44 122.308 110.24 122.348 109.96C122.268 109.76 122.028 109.48 121.708 109.12C121.548 108.96 121.388 108.88 121.188 108.92C120.828 109.28 120.588 109.52 120.548 109.68C120.588 109.76 120.628 109.8 120.628 109.92C120.428 110.12 120.268 110.4 120.148 110.8C120.148 110.8 120.108 110.8 119.988 110.84C119.908 110.88 119.868 110.92 119.828 110.92C119.868 111 119.908 111.12 119.908 111.24C119.908 111.56 119.788 111.96 119.548 112.44C119.508 112.72 119.508 112.92 119.548 112.96C119.348 113.64 119.228 114.04 119.228 114.16V116.04C119.228 116.4 119.348 117.04 119.548 118C119.988 118.8 120.628 119.84 121.548 121.08C121.748 121.24 122.068 121.48 122.548 121.88C122.668 121.96 123.308 122.28 124.508 122.88C125.828 123.52 126.628 123.84 126.948 123.84C127.068 123.84 127.148 123.8 127.188 123.72C127.388 123.96 127.788 124.12 128.388 124.12L131.588 124.24C132.188 124.24 132.828 124.12 133.508 123.88C136.028 123.4 138.628 122.4 141.268 120.84C144.428 119 146.828 116.8 148.428 114.28C148.788 113.48 149.148 112.56 149.508 111.48C149.628 111.12 149.788 110.76 149.988 110.36ZM155.388 107.84L154.788 112.12L152.988 117.4L149.268 121.6C149.268 121.6 149.268 121.68 149.308 121.84C149.348 121.96 149.348 122.08 149.348 122.12C149.388 122 149.348 121.92 149.188 121.92H148.948L146.748 124V124.52C146.708 124.48 146.668 124.36 146.588 124.24H146.148L142.628 127.32C142.188 127.4 141.628 127.6 140.948 128.04H140.468V128.12C139.308 128.64 138.668 128.92 138.548 128.92C138.428 128.92 138.388 128.88 138.308 128.84L135.428 130.24H135.108C134.588 130.24 134.388 130.2 134.508 130.12L130.588 130.64H128.588L125.068 130.12C124.228 129.84 123.028 129.44 121.388 128.92C120.788 128.56 119.668 127.96 118.188 126.88C115.708 125.12 114.268 122.72 113.708 119.88C113.628 119.52 113.468 118.84 113.268 117.88C113.268 117.4 113.268 116.72 113.268 115.76C113.188 114.92 113.148 114.64 113.148 114.92C113.148 114.36 113.468 112.96 114.108 110.76C114.108 110.64 114.268 110.08 114.588 109.04C115.348 106.6 116.708 104.56 118.748 102.96C119.708 102.2 120.708 101.56 121.708 101.12L124.268 99.96C125.548 98.68 126.428 97.92 126.988 97.76C129.508 95.72 133.228 94.52 138.108 94.2C138.308 94.28 138.428 94.4 138.548 94.6L138.868 94.52C138.868 94.6 138.828 94.48 138.788 94.2H139.228C139.308 94.32 139.348 94.4 139.348 94.48C139.188 94.48 139.068 94.52 138.948 94.64C139.548 94.84 140.028 94.96 140.428 94.96C140.668 94.96 140.908 94.92 141.068 94.84C140.708 94.76 140.228 94.64 139.548 94.44C139.988 94.28 140.308 94.2 140.508 94.2C140.508 94.2 141.068 94.36 142.188 94.6C143.348 94.92 144.068 95.08 144.428 95.12C144.428 95.16 144.588 95.28 144.868 95.4C144.868 95.52 144.788 95.64 144.668 95.76C144.628 95.72 144.868 95.68 145.348 95.68L148.828 97.48C149.028 97.48 149.228 97.44 149.428 97.4C149.468 97.4 149.468 97.4 149.468 97.44L149.268 97.64C150.148 98.28 150.708 98.6 150.948 98.6C151.028 98.8 151.148 99.04 151.348 99.4C151.628 99.44 151.828 99.32 151.948 99.08L154.668 104.44C154.668 104.72 154.628 104.92 154.588 105.04C154.628 105.32 154.828 105.64 155.188 105.96C155.148 106 155.068 106 154.988 106.08C155.068 106.56 155.188 107.12 155.388 107.84ZM151.788 119.56L151.548 119.72L151.788 119.56ZM186.158 115.36V115.92C186.078 115.92 185.918 116 185.638 116.12C185.638 116.24 185.598 116.32 185.558 116.4L185.958 116.8C185.838 116.92 185.518 117.08 184.998 117.16C184.438 117.28 184.158 117.4 184.118 117.44L180.477 116.64C179.838 116.72 178.997 116.84 177.918 117C176.678 117.44 175.478 117.8 174.398 118.08C173.118 118.6 171.238 119.36 168.798 120.48C166.558 121.52 165.198 123.08 164.638 125.12C164.638 125.2 164.718 125.72 164.838 126.68V127.32C164.718 127.56 164.598 127.76 164.558 127.92C164.478 128.16 164.558 128.36 164.798 128.52L162.798 129.76H162.438C162.158 129.6 161.798 129.32 161.358 128.96L160.838 129.04C160.678 128.8 160.438 128.48 160.158 128.04C160.038 127.68 159.878 127.4 159.757 127.12C159.598 126.32 159.518 125.92 159.518 125.88V124.2C159.518 124.16 159.558 124.08 159.558 123.96C159.598 123.84 159.638 123.76 159.638 123.72V121.92C159.638 121.4 159.798 120.48 160.198 119.2C160.678 117.56 161.198 116.76 161.798 116.76H162.398L163.078 117.36H163.358C163.678 117.36 164.918 116.72 166.958 115.4C168.398 114.76 170.558 113.84 173.478 112.56C173.558 112.6 174.198 112.32 175.478 111.76C175.758 111.76 176.358 111.64 177.318 111.44C178.238 111.24 178.678 111.12 178.718 111.12H180.678C182.078 111.12 183.678 112.04 185.518 113.88C185.598 113.96 185.638 114.12 185.678 114.36C185.998 114.72 186.158 115.08 186.158 115.36ZM194.009 120.68V123.12C194.009 123.04 193.969 123.12 193.929 123.36C193.929 123.64 193.889 123.96 193.849 124.36C193.809 124.92 193.809 125.48 193.809 126.12V128.12L193.209 129.56L192.769 129.48C192.649 129.56 192.529 129.64 192.369 129.76C192.249 129.72 192.129 129.64 191.969 129.56C191.849 129.6 191.729 129.68 191.569 129.76C191.449 129.68 190.929 129.52 189.929 129.28C189.449 128.52 189.049 127.2 188.689 125.32C188.609 124.88 188.569 124.32 188.609 123.52L188.729 120L189.209 117.68C189.609 117.36 189.809 117.04 189.929 116.68L190.969 116.44C191.129 116.44 191.329 116.52 191.609 116.72C192.009 117.16 192.609 117.84 193.369 118.68C193.809 119.44 194.009 120.08 194.009 120.68ZM195.129 108.4C195.049 108.52 194.969 108.64 194.809 108.8C194.929 109.12 195.009 109.44 195.009 109.72C194.889 109.92 194.529 110.16 193.969 110.44C193.929 110.4 193.769 110.36 193.569 110.36C193.369 110.36 193.209 110.4 193.169 110.44C192.609 110.16 191.969 109.96 191.249 109.84C190.769 108.72 190.489 108.04 190.529 107.76L190.729 105.56C190.849 105.52 191.089 105.32 191.369 105.04H192.609C193.009 105.28 193.449 105.76 193.929 106.44C194.249 106.56 194.489 106.8 194.649 107.24C194.889 107.88 195.049 108.24 195.129 108.4ZM213.12 119.56L211.16 119.4L207.32 119.72C207.52 119.72 206.52 120.12 204.24 120.88C204.12 121 203.88 121.2 203.6 121.48C203.6 121.52 203.64 121.6 203.72 121.72C205.16 122.08 206.16 122.24 206.72 122.24C207.72 122.24 208.92 122 210.28 121.52C211.88 120.96 212.84 120.32 213.12 119.56ZM193.28 137.72C193.28 137.76 193.24 137.8 193.16 137.84C193.08 137.88 193.04 137.84 193 137.8C193.2 137.8 193.28 137.76 193.28 137.72ZM219.84 133.36L219.72 137.24C219.4 139.96 218.56 142.28 217.24 144.16C217.08 144.4 216.56 144.96 215.68 145.92C215.48 146 215 146.36 214.28 146.96C213.6 147.36 212.92 147.68 212.28 147.84C211.92 148.08 211.32 148.4 210.48 148.88C210.04 149.04 209.36 149.32 208.48 149.68L202.12 150.72L199.04 150.84C199 150.84 198.8 150.76 198.4 150.68C197.68 150.6 196.8 150.4 195.68 150.04C194.84 149.84 194.2 149.68 193.72 149.4C193.72 149.4 193 148.88 191.6 147.88C191.4 147.56 191.08 147.2 190.56 146.8C189.76 144.96 189.36 143.96 189.36 143.84V141.04L190.72 139C191.08 138.72 191.76 138.28 192.64 137.68C192.8 137.8 192.84 137.96 192.84 138.12C192.84 138.28 192.8 138.44 192.64 138.64C192.72 138.68 192.8 138.68 192.88 138.68C192.96 138.64 193 138.52 193 138.32C193.2 138.24 193.56 138.12 194.04 138L194 138.68L193.64 138.96C193.72 139.08 193.8 139.32 193.96 139.72C194.28 139.64 194.48 139.6 194.56 139.6C194.44 139.88 194.2 140.32 193.84 140.84V141.24C193.92 141.28 193.96 141.36 194 141.44C194 141.8 194 142.36 194.08 143.12C194.12 143.2 194.24 143.44 194.48 143.8C195.32 144.44 195.84 144.8 196.08 144.92C196.6 145.12 197.52 145.24 198.8 145.32L200.56 145.4C200.64 145.4 200.84 145.36 201.24 145.28C201.68 145.16 201.88 145.12 201.92 145.12C201.96 145.12 202.04 145.16 202.12 145.16C202.24 145.2 202.32 145.2 202.36 145.2C202.8 145.2 203.56 145.08 204.68 144.92C205.32 144.6 206.04 144.32 206.72 144.08C208 143.64 209.12 143.12 210.12 142.6C210.44 142.4 210.88 142.08 211.4 141.56C213.52 140.24 214.56 137.8 214.56 134.28L213.32 126.6L213.16 126.44H212.76L207.36 128.16C207.08 128.08 206.6 128.04 205.96 128C204.56 128.12 202.92 127.6 200.96 126.36C198.92 125.08 197.88 123.76 197.88 122.48L198.08 121.68C198.04 121.52 198 121.36 198 121.16C198 120.24 198.48 119.16 199.4 117.96C200.24 116.88 201 116.24 201.64 116.12C202.72 115.52 204.04 115.08 205.56 114.8C206.36 114.68 207.56 114.48 209.16 114.24L211.76 114.12C212.32 114.24 213.12 114.48 214.2 114.76C215.12 115.04 215.92 115.44 216.6 115.96V116.44C217.2 116.72 217.6 117.28 217.76 118.16C217.88 118.36 218.04 118.6 218.24 118.92C218.08 118.92 217.96 118.96 217.92 119C217.92 119.48 217.92 119.72 217.96 119.72C218 119.72 218 119.72 218 119.72C217.92 119.68 217.8 119.64 217.6 119.64L217.44 119.8C217.64 120.28 217.96 120.92 218.4 121.76C218.44 121.88 218.44 121.96 218.4 122.08C218.56 123.4 218.84 125.84 219.32 129.28L219.84 133.36ZM229.478 120.68V123.12C229.478 123.04 229.438 123.12 229.398 123.36C229.398 123.64 229.358 123.96 229.318 124.36C229.278 124.92 229.278 125.48 229.278 126.12V128.12L228.678 129.56L228.238 129.48C228.118 129.56 227.998 129.64 227.838 129.76C227.718 129.72 227.598 129.64 227.438 129.56C227.318 129.6 227.198 129.68 227.038 129.76C226.918 129.68 226.398 129.52 225.398 129.28C224.918 128.52 224.518 127.2 224.158 125.32C224.078 124.88 224.038 124.32 224.078 123.52L224.198 120L224.678 117.68C225.078 117.36 225.278 117.04 225.398 116.68L226.438 116.44C226.598 116.44 226.798 116.52 227.078 116.72C227.478 117.16 228.078 117.84 228.838 118.68C229.278 119.44 229.478 120.08 229.478 120.68ZM230.598 108.4C230.518 108.52 230.438 108.64 230.278 108.8C230.398 109.12 230.478 109.44 230.478 109.72C230.358 109.92 229.998 110.16 229.438 110.44C229.398 110.4 229.238 110.36 229.038 110.36C228.838 110.36 228.678 110.4 228.638 110.44C228.078 110.16 227.438 109.96 226.718 109.84C226.238 108.72 225.958 108.04 225.998 107.76L226.198 105.56C226.318 105.52 226.558 105.32 226.838 105.04H228.078C228.478 105.28 228.918 105.76 229.398 106.44C229.718 106.56 229.958 106.8 230.118 107.24C230.358 107.88 230.518 108.24 230.598 108.4ZM253.748 118.88L253.628 122.12L253.028 128.56L252.228 130.84C252.068 130.88 251.828 131.04 251.508 131.28H251.188C251.108 131.28 250.948 131.16 250.748 130.96H250.508C250.508 130.96 250.388 131 250.148 131.08C249.868 130.84 249.388 130.44 248.748 129.92C248.588 129.48 248.388 128.84 248.108 128L248.068 125.92L248.428 120.28V118.8C248.388 118.72 248.268 118.6 248.148 118.44C246.908 119 246.028 119.44 245.508 119.76L241.508 124C239.828 125.8 238.588 127.48 237.788 128.96C237.428 129.16 236.988 129.28 236.548 129.28C236.428 129.28 236.188 129.2 235.788 129.04L235.588 129.36C235.548 129.36 235.308 129.32 234.908 129.24V128.72L234.348 128.36C234.268 128.4 234.068 128.48 233.748 128.64C233.628 128.36 233.468 127.92 233.308 127.32C233.308 126.92 233.268 126.56 233.228 126.32C233.228 126.08 233.188 125.88 233.188 125.8C233.188 125.72 233.188 125.72 233.188 125.76L233.508 123.24C233.548 122.88 233.628 122.24 233.828 121.28C233.948 120.48 234.148 119.52 234.348 118.4C234.468 117.48 234.868 116.16 235.508 114.44L236.548 113.96C236.748 114 237.028 114.04 237.388 114.16C237.388 114.44 237.508 114.68 237.748 114.88C238.068 115.2 238.268 115.4 238.348 115.48C238.468 115.96 238.668 116.36 238.868 116.68C238.948 117.04 239.068 117.6 239.268 118.44C241.508 117.12 243.028 115.92 243.828 114.8C244.068 114.72 244.428 114.44 244.948 114C246.028 113.36 247.148 112.76 248.268 112.16C248.908 111.96 249.428 111.84 249.788 111.84C249.988 111.84 250.588 112.16 251.588 112.84C252.428 114.16 253.148 116.16 253.748 118.88Z" fill="#C92C2C"/>
<path d="M542.04 152.64C542.04 153.2 541.88 153.84 541.6 154.52C541.4 154.88 540.48 155.4 538.84 156.04C537.08 156.72 535.76 157.08 534.88 157.08C534.76 157.08 534.28 157 533.36 156.88C532.8 156.8 532.28 156.8 531.88 156.96L529.96 156.56H528.28C528.04 156.56 527.48 156.4 526.6 156.12C525.88 155.84 525.4 155.64 525.2 155.56C525.12 155.28 524.92 154.96 524.6 154.64C524.6 154.48 524.64 154.4 524.72 154.32L524.52 154.12C524.6 153.84 524.6 153.56 524.6 153.32C524.6 152.96 524.52 152.64 524.4 152.4C525.32 152.04 525.88 151.84 526.16 151.84H527.64L529.64 151.56H530.96L534.24 151.16C534.44 151 534.52 150.92 534.52 150.92C534.44 150.84 534.28 150.68 534.04 150.48C533.6 150.28 532.84 150 531.76 149.52C527.88 147.84 525.68 145.96 525.16 143.92C525.08 143.6 524.96 143.32 524.8 143.12V141C524.8 140.88 524.92 140.6 525.16 140.16C525.28 138.76 527.92 138.04 533.08 138.04C532.96 138.04 534.04 138.2 536.4 138.48C537.88 139.04 538.92 139.44 539.44 139.76C540.52 140.4 541.28 141.2 541.72 142.16C541.72 142.24 541.64 142.44 541.44 142.72C541.24 143 541.16 143.16 541.16 143.28L541.24 143.52L540.2 144.24H539.88C540.24 144.24 539.44 144 537.48 143.48C535.84 143.28 534.84 143.16 534.48 143.16L531.72 143.52C531.76 143.56 531.8 143.64 531.8 143.76C531.96 143.88 532.2 144.04 532.48 144.24C538.84 146.76 542.04 149.56 542.04 152.64ZM567.561 150.4L567.761 150.84C567.801 151.24 567.801 151.76 567.761 152.36C567.521 152.8 567.081 153.16 566.481 153.48C565.561 153.96 565.001 154.28 564.881 154.4C564.881 154.64 564.721 154.88 564.401 155.04C563.561 155.48 562.281 155.84 560.521 156.16C559.801 156.6 559.121 156.8 558.521 156.8C558.321 156.8 558.121 156.76 558.001 156.72C557.721 156.96 557.281 157.12 556.681 157.16C556.241 157.2 555.801 157.24 555.361 157.32L553.081 157C553.041 157 552.961 157.04 552.801 157.08C552.641 157.12 552.521 157.12 552.481 157.12L551.081 156.72C550.801 156.76 550.641 156.8 550.641 156.8C550.321 156.8 549.881 156.64 549.241 156.4C548.521 156.08 548.081 155.92 547.961 155.88C546.561 154.32 545.841 152.88 545.841 151.56C545.841 150.96 546.041 150.04 546.441 148.88C546.841 147.68 547.201 147 547.481 146.76C549.601 144.56 552.921 142.48 557.481 140.44C557.801 140.32 558.321 140.04 559.081 139.72C559.161 139.72 559.841 139.52 561.201 139.08C562.201 138.76 563.041 138.6 563.721 138.6C563.761 138.6 563.881 138.6 564.161 138.64C564.441 138.68 564.601 138.68 564.721 138.68C564.921 138.68 565.081 138.64 565.241 138.6L566.161 141.24C565.961 141.68 565.641 142.08 565.281 142.48C565.321 142.72 565.361 142.84 565.361 142.76C565.241 142.84 563.361 143.68 559.761 145.32C559.641 145.4 559.361 145.64 558.921 146.08C558.121 146.36 556.921 146.76 555.361 147.4C554.201 147.88 553.321 148.72 552.761 149.84C552.801 149.88 552.841 149.96 552.841 150.04C553.601 150.56 554.721 150.8 556.121 150.8L565.161 149.8L567.561 150.4ZM597.283 142.36V142.92C597.203 142.92 597.043 143 596.763 143.12C596.763 143.24 596.723 143.32 596.683 143.4L597.083 143.8C596.963 143.92 596.643 144.08 596.123 144.16C595.563 144.28 595.283 144.4 595.243 144.44L591.602 143.64C590.963 143.72 590.122 143.84 589.043 144C587.803 144.44 586.603 144.8 585.523 145.08C584.243 145.6 582.363 146.36 579.923 147.48C577.683 148.52 576.323 150.08 575.763 152.12C575.763 152.2 575.843 152.72 575.963 153.68V154.32C575.843 154.56 575.723 154.76 575.683 154.92C575.603 155.16 575.683 155.36 575.923 155.52L573.923 156.76H573.563C573.283 156.6 572.923 156.32 572.483 155.96L571.963 156.04C571.803 155.8 571.563 155.48 571.283 155.04C571.163 154.68 571.003 154.4 570.882 154.12C570.723 153.32 570.643 152.92 570.643 152.88V151.2C570.643 151.16 570.683 151.08 570.683 150.96C570.723 150.84 570.763 150.76 570.763 150.72V148.92C570.763 148.4 570.923 147.48 571.323 146.2C571.803 144.56 572.323 143.76 572.923 143.76H573.523L574.203 144.36H574.483C574.803 144.36 576.043 143.72 578.083 142.4C579.523 141.76 581.683 140.84 584.603 139.56C584.683 139.6 585.323 139.32 586.603 138.76C586.883 138.76 587.483 138.64 588.443 138.44C589.363 138.24 589.803 138.12 589.843 138.12H591.803C593.203 138.12 594.803 139.04 596.643 140.88C596.723 140.96 596.763 141.12 596.803 141.36C597.123 141.72 597.283 142.08 597.283 142.36ZM611.334 143.44C611.334 143.52 611.254 143.36 611.054 142.92C609.414 143.6 608.894 143.48 607.694 144.2C606.374 145.04 605.334 146.04 604.774 147C604.934 147 605.054 147.04 605.214 147.2C606.534 146.68 607.694 146.48 609.014 145.6C610.054 144.88 610.654 144.2 611.334 143.44ZM620.214 152.64C620.054 152.88 619.814 153.24 619.534 153.8C619.334 153.8 619.214 153.76 619.134 153.68C618.974 153.72 618.734 153.84 618.454 154.04C618.734 154.16 619.134 154.32 619.574 154.6C619.414 154.64 619.054 154.92 618.494 155.44C617.974 155.6 617.134 155.84 616.014 156.08C615.654 156.28 615.414 156.6 615.294 156.96L610.334 157.6C606.774 157.36 603.894 156.56 601.774 155.16C600.254 153.6 599.294 151.8 598.894 149.76C598.774 149.44 598.694 149.24 598.694 149.08C598.694 147.8 599.254 146.24 600.334 144.44C601.574 142.44 602.894 141.16 604.374 140.56C604.454 140.52 604.654 140.52 605.014 140.52C605.654 140 606.734 139.52 608.334 139.12C609.734 138.76 610.934 138.6 611.894 138.6C612.774 138.6 613.774 138.92 614.934 139.56C614.894 139.6 614.894 139.76 614.894 140.04C615.134 140.08 615.414 140.16 615.774 140.24C615.774 140.32 615.854 140.44 616.014 140.64C616.014 141.12 616.214 141.72 616.574 142.52V143.36C616.574 143.48 616.494 143.6 616.334 143.76C616.414 143.88 616.454 144.04 616.454 144.2C616.454 144.48 616.334 144.8 616.094 145.16C616.054 145.36 616.054 145.6 616.014 145.96C615.734 146.36 614.014 147.92 612.534 148.92C610.374 150.36 606.454 151.72 606.454 151.72C606.894 151.96 609.734 152.52 611.694 152.52C613.974 152.52 618.894 150.84 618.894 150.84C619.134 151.2 619.654 152.2 620.214 152.64ZM636.295 143.44C636.295 143.52 636.215 143.36 636.015 142.92C634.375 143.6 633.855 143.48 632.655 144.2C631.335 145.04 630.295 146.04 629.735 147C629.895 147 630.015 147.04 630.175 147.2C631.495 146.68 632.655 146.48 633.975 145.6C635.015 144.88 635.615 144.2 636.295 143.44ZM645.175 152.64C645.015 152.88 644.775 153.24 644.495 153.8C644.295 153.8 644.175 153.76 644.095 153.68C643.935 153.72 643.695 153.84 643.415 154.04C643.695 154.16 644.095 154.32 644.535 154.6C644.375 154.64 644.015 154.92 643.455 155.44C642.935 155.6 642.095 155.84 640.975 156.08C640.615 156.28 640.375 156.6 640.255 156.96L635.295 157.6C631.735 157.36 628.855 156.56 626.735 155.16C625.215 153.6 624.255 151.8 623.855 149.76C623.735 149.44 623.655 149.24 623.655 149.08C623.655 147.8 624.215 146.24 625.295 144.44C626.535 142.44 627.855 141.16 629.335 140.56C629.415 140.52 629.615 140.52 629.975 140.52C630.615 140 631.695 139.52 633.295 139.12C634.695 138.76 635.895 138.6 636.855 138.6C637.735 138.6 638.735 138.92 639.895 139.56C639.855 139.6 639.855 139.76 639.855 140.04C640.095 140.08 640.375 140.16 640.735 140.24C640.735 140.32 640.815 140.44 640.975 140.64C640.975 141.12 641.175 141.72 641.535 142.52V143.36C641.535 143.48 641.455 143.6 641.295 143.76C641.375 143.88 641.415 144.04 641.415 144.2C641.415 144.48 641.295 144.8 641.055 145.16C641.015 145.36 641.015 145.6 640.975 145.96C640.695 146.36 638.975 147.92 637.495 148.92C635.335 150.36 631.415 151.72 631.415 151.72C631.855 151.96 634.695 152.52 636.655 152.52C638.935 152.52 643.855 150.84 643.855 150.84C644.095 151.2 644.615 152.2 645.175 152.64ZM668.936 145.88L668.816 149.12L668.216 155.56L667.416 157.84C667.256 157.88 667.016 158.04 666.696 158.28H666.376C666.296 158.28 666.136 158.16 665.936 157.96H665.696C665.696 157.96 665.576 158 665.336 158.08C665.056 157.84 664.576 157.44 663.936 156.92C663.776 156.48 663.576 155.84 663.296 155L663.256 152.92L663.616 147.28V145.8C663.576 145.72 663.456 145.6 663.336 145.44C662.096 146 661.216 146.44 660.696 146.76L656.696 151C655.016 152.8 653.776 154.48 652.976 155.96C652.616 156.16 652.176 156.28 651.736 156.28C651.616 156.28 651.376 156.2 650.976 156.04L650.776 156.36C650.736 156.36 650.496 156.32 650.096 156.24V155.72L649.536 155.36C649.456 155.4 649.256 155.48 648.936 155.64C648.816 155.36 648.656 154.92 648.496 154.32C648.496 153.92 648.456 153.56 648.416 153.32C648.416 153.08 648.376 152.88 648.376 152.8C648.376 152.72 648.376 152.72 648.376 152.76L648.696 150.24C648.736 149.88 648.816 149.24 649.016 148.28C649.136 147.48 649.336 146.52 649.536 145.4C649.656 144.48 650.056 143.16 650.696 141.44L651.736 140.96C651.936 141 652.216 141.04 652.576 141.16C652.576 141.44 652.696 141.68 652.936 141.88C653.256 142.2 653.456 142.4 653.536 142.48C653.656 142.96 653.856 143.36 654.056 143.68C654.136 144.04 654.256 144.6 654.456 145.44C656.696 144.12 658.216 142.92 659.016 141.8C659.256 141.72 659.616 141.44 660.136 141C661.216 140.36 662.336 139.76 663.456 139.16C664.096 138.96 664.616 138.84 664.976 138.84C665.176 138.84 665.776 139.16 666.776 139.84C667.616 141.16 668.336 143.16 668.936 145.88ZM697.478 125.92C697.118 125.92 696.838 125.88 696.598 125.84C696.598 125.84 696.758 125.84 696.958 125.88C697.198 125.88 697.398 125.92 697.478 125.92ZM702.438 128.48C702.438 127.44 701.838 126.72 700.678 126.32C700.398 126.24 699.918 126.2 699.198 126.16C698.758 126.12 698.478 126 698.398 125.8L695.878 125.6C694.758 125.48 693.918 125.6 693.358 125.88L693.158 125.68C692.958 125.76 692.638 125.8 692.238 125.8C692.238 125.84 692.198 125.92 692.158 126C691.798 125.88 691.558 125.8 691.438 125.8C690.838 125.8 688.998 126.12 685.838 126.72C685.598 126.76 684.678 127.04 683.118 127.52C682.478 127.72 682.118 128.04 681.997 128.56C682.198 128.64 682.318 128.8 682.318 129.08V129.56L682.598 129.84V130.52L681.598 135.44C681.478 135.72 681.438 135.96 681.438 136.16C681.438 136.24 681.438 136.28 681.478 136.36C681.278 136.56 681.158 136.72 681.198 136.84L680.318 142.88H680.638C680.638 142.88 680.598 142.88 680.598 142.84C680.598 142.68 681.678 142 683.878 140.84C685.358 140.04 687.838 139 691.398 137.68L693.477 136.64C695.678 135.92 698.078 134.28 700.758 131.76C701.118 131.28 701.438 130.76 701.758 130.28C702.198 129.56 702.438 128.96 702.438 128.48ZM702.278 138.32C702.238 138.32 702.158 138.36 702.038 138.44L702.078 138.48C702.118 138.48 702.198 138.44 702.238 138.4C702.318 138.36 702.318 138.32 702.278 138.32ZM708.438 128.72V130.36C708.158 130.44 708.038 130.56 708.038 130.72C708.038 130.8 708.078 130.92 708.158 131.04V131.24C707.638 132.92 706.838 134.36 705.798 135.48H705.398C705.358 135.56 705.278 135.72 705.118 135.88V136.48L702.718 137.96L703.038 138C703.118 138 703.158 137.96 703.158 137.88C702.798 138.76 702.358 139.2 701.838 139.2C701.878 139.24 701.918 139.12 701.918 138.88L701.758 138.72L698.998 140.64L699.198 140.88C699.118 140.92 698.838 140.96 698.398 141.04L696.398 142.04C696.198 142.2 695.918 142.48 695.558 142.8C695.558 142.76 695.518 142.68 695.438 142.6H695.198C695.158 142.64 695.118 142.76 695.118 143C694.438 143.24 693.438 143.64 692.158 144.28C691.398 144.52 690.238 144.96 688.678 145.56C688.558 145.64 688.318 145.8 688.078 146C687.758 146 687.318 146.04 686.758 146.16C686.478 146.32 686.318 146.4 686.238 146.4C686.198 146.4 686.118 146.36 686.038 146.36C685.998 146.32 685.958 146.32 685.958 146.28C685.078 146.84 684.558 147.12 684.358 147.12C684.278 147.12 684.198 147.08 683.998 147L680.198 148.4C680.198 148.32 680.158 148.2 680.038 148.12H679.398C679.478 148.2 679.558 148.32 679.558 148.48C679.558 148.88 679.478 149.52 679.398 150.44L679.798 154.2V156.12C679.678 156.16 679.518 156.24 679.278 156.4C679.398 156.52 679.478 156.72 679.478 157.04C678.958 157.04 678.518 157.2 678.158 157.52C677.638 157.6 676.998 157.84 676.238 158.24C675.238 157.72 674.438 156.72 673.878 155.28C673.318 153.84 673.078 152.24 673.198 150.52L673.478 145.48C673.478 145.44 673.558 145.24 673.678 144.92C673.798 144.6 673.838 144.36 673.838 144.24C673.918 143.76 673.998 143.08 674.118 142.16C674.238 141.84 674.278 141.4 674.318 140.76C674.638 140.12 674.758 139.4 674.718 138.64L677.398 129.88C677.078 130 676.638 130.28 676.078 130.76C676.118 130.92 676.198 131.44 676.398 132.32C676.398 132.36 676.238 132.44 675.958 132.6C675.718 132.72 675.558 132.8 675.438 132.8C675.318 132.88 675.278 133.04 675.278 133.36C674.798 133.6 674.518 133.72 674.438 133.68L674.238 134L673.638 133.88C673.678 133.92 673.678 134.08 673.678 134.4C673.518 134.32 673.318 134.12 673.038 133.88L672.838 134.08C671.798 133.32 671.197 132.28 670.997 130.92C671.037 130.56 671.037 130.24 671.037 130.04C671.037 129.8 671.037 129.68 670.997 129.64C671.037 128.96 671.598 128.2 672.558 127.4C672.838 127.16 673.518 126.64 674.638 125.84C674.918 125.76 675.638 125.44 676.717 124.88C676.798 124.8 676.798 124.76 676.838 124.68L676.798 124.64C677.078 124.52 677.358 124.44 677.598 124.44C677.678 124.44 677.758 124.44 677.838 124.48L680.638 123.28C680.718 123.32 680.798 123.36 680.878 123.36C680.958 123.36 681.598 123.08 682.798 122.48C682.718 122.52 682.678 122.56 682.678 122.68H683.278C683.358 122.68 683.398 122.6 683.398 122.48C683.918 122.48 684.198 122.44 684.198 122.4L685.478 122.08C685.678 122.08 685.798 122.08 685.838 122.16L686.158 121.88L686.638 121.96C686.998 121.8 687.398 121.56 687.838 121.28H688.278L688.478 121.48C688.758 121.32 689.038 121.2 689.358 121.16L692.518 120.56C692.958 120.56 693.278 120.56 693.558 120.6L693.758 120.4H694.598C694.598 120.52 694.678 120.64 694.798 120.8C694.758 120.8 694.878 120.68 695.158 120.52C695.438 120.36 695.798 120.28 696.238 120.28H698.318C700.998 120.28 703.598 121 706.158 122.44C707.558 123.8 708.278 125.6 708.278 127.8C708.278 128.04 708.238 128.28 708.238 128.52L708.438 128.72ZM698.158 141.36C698.118 141.4 698.078 141.48 697.958 141.6C698.078 141.36 698.158 141.28 698.158 141.36ZM684.398 122.08L684.078 122.28L684.398 122.08ZM730.477 146.28V145.76C729.397 144.04 728.437 143.2 727.557 143.2C727.517 143.2 727.437 143.24 727.397 143.24C727.357 143.28 727.317 143.32 727.277 143.32H727.037C726.757 142.88 726.077 142.68 724.957 142.72L722.797 142.8L717.997 143.72L717.757 144.04V144.76C717.757 144.88 717.837 145.08 717.957 145.36C717.917 145.44 717.757 145.56 717.557 145.76C717.677 146.04 717.757 146.2 717.757 146.24C717.517 146.44 717.317 146.56 717.157 146.64C717.157 146.68 716.957 147 716.597 147.6C716.237 148.24 716.037 148.64 716.037 148.88C716.037 148.84 716.077 149 716.157 149.28C716.557 149.76 717.197 150.16 718.157 150.56C719.077 150.92 719.837 151.12 720.517 151.12C722.037 150.84 722.957 150.68 723.237 150.68L726.397 149.44C727.957 148.8 728.997 148.24 729.517 147.76C730.157 147.2 730.477 146.68 730.477 146.28ZM734.957 147.56C734.957 148.56 734.677 149.4 734.077 150.08C734.037 150.2 733.957 150.48 733.837 150.88C733.357 151.48 732.637 152.32 731.717 153.4C730.277 154.32 728.917 155.2 727.637 156C724.677 157 722.437 157.52 720.877 157.52H719.557C719.437 157.52 719.277 157.48 719.077 157.36C718.797 157.4 717.717 157.12 715.877 156.6C715.157 156.16 714.117 155.4 712.837 154.28C712.637 153.92 712.317 153.36 711.877 152.6C711.437 151.04 711.237 149.84 711.237 149L711.437 147.16V144.28C711.437 144.24 711.557 143.8 711.797 143C712.077 142.16 712.237 141.6 712.277 141.36C712.557 140.68 713.557 139.76 715.277 138.64C715.557 138.56 716.037 138.44 716.677 138.28C716.837 138.16 717.037 138.04 717.317 137.92C717.357 137.96 717.437 138 717.557 138C717.557 138 717.917 137.88 718.677 137.64C719.437 137.4 720.077 137.28 720.637 137.28H724.397C724.837 137.28 725.277 137.36 725.837 137.56C726.717 137.52 728.517 138.36 731.277 140.12V140.52C731.717 140.92 732.317 141.32 733.037 141.76C733.317 142.04 733.877 143.12 734.717 144.96C734.877 145.88 734.957 146.76 734.957 147.56ZM756.181 152.64C756.181 153.2 756.021 153.84 755.741 154.52C755.541 154.88 754.621 155.4 752.981 156.04C751.221 156.72 749.901 157.08 749.021 157.08C748.901 157.08 748.421 157 747.501 156.88C746.941 156.8 746.421 156.8 746.021 156.96L744.101 156.56H742.421C742.181 156.56 741.621 156.4 740.741 156.12C740.021 155.84 739.541 155.64 739.341 155.56C739.261 155.28 739.061 154.96 738.741 154.64C738.741 154.48 738.781 154.4 738.861 154.32L738.661 154.12C738.741 153.84 738.741 153.56 738.741 153.32C738.741 152.96 738.661 152.64 738.541 152.4C739.461 152.04 740.021 151.84 740.301 151.84H741.781L743.781 151.56H745.101L748.381 151.16C748.581 151 748.661 150.92 748.661 150.92C748.581 150.84 748.421 150.68 748.181 150.48C747.741 150.28 746.981 150 745.901 149.52C742.021 147.84 739.821 145.96 739.301 143.92C739.221 143.6 739.101 143.32 738.941 143.12V141C738.941 140.88 739.061 140.6 739.301 140.16C739.421 138.76 742.061 138.04 747.221 138.04C747.101 138.04 748.181 138.2 750.541 138.48C752.021 139.04 753.061 139.44 753.581 139.76C754.661 140.4 755.421 141.2 755.861 142.16C755.861 142.24 755.781 142.44 755.581 142.72C755.381 143 755.301 143.16 755.301 143.28L755.381 143.52L754.341 144.24H754.021C754.381 144.24 753.581 144 751.621 143.48C749.981 143.28 748.981 143.16 748.621 143.16L745.861 143.52C745.901 143.56 745.941 143.64 745.941 143.76C746.101 143.88 746.341 144.04 746.621 144.24C752.981 146.76 756.181 149.56 756.181 152.64Z" fill="#C92C2C"/>
<path d="M812.72 378.36V378.92C812.64 378.92 812.48 379 812.2 379.12C812.2 379.24 812.16 379.32 812.12 379.4L812.52 379.8C812.4 379.92 812.08 380.08 811.56 380.16C811 380.28 810.72 380.4 810.68 380.44L807.04 379.64C806.4 379.72 805.56 379.84 804.48 380C803.24 380.44 802.04 380.8 800.96 381.08C799.68 381.6 797.8 382.36 795.36 383.48C793.12 384.52 791.76 386.08 791.2 388.12C791.2 388.2 791.28 388.72 791.4 389.68V390.32C791.28 390.56 791.16 390.76 791.12 390.92C791.04 391.16 791.12 391.36 791.36 391.52L789.36 392.76H789C788.72 392.6 788.36 392.32 787.92 391.96L787.4 392.04C787.24 391.8 787 391.48 786.72 391.04C786.6 390.68 786.44 390.4 786.32 390.12C786.16 389.32 786.08 388.92 786.08 388.88V387.2C786.08 387.16 786.12 387.08 786.12 386.96C786.16 386.84 786.2 386.76 786.2 386.72V384.92C786.2 384.4 786.36 383.48 786.76 382.2C787.24 380.56 787.76 379.76 788.36 379.76H788.96L789.64 380.36H789.92C790.24 380.36 791.48 379.72 793.52 378.4C794.96 377.76 797.12 376.84 800.04 375.56C800.12 375.6 800.76 375.32 802.04 374.76C802.32 374.76 802.92 374.64 803.88 374.44C804.8 374.24 805.24 374.12 805.28 374.12H807.24C808.64 374.12 810.24 375.04 812.08 376.88C812.16 376.96 812.2 377.12 812.24 377.36C812.56 377.72 812.72 378.08 812.72 378.36ZM828.012 382.96H826.972C826.572 382.96 825.772 383.24 824.532 383.72C823.812 384 823.092 384.28 822.332 384.6C821.532 385.08 820.652 385.76 819.692 386.68L819.612 386.92L820.732 387.04C823.412 386.36 825.532 385.24 827.092 383.68C827.172 383.6 827.492 383.36 828.012 382.96ZM837.612 388.92C837.252 389.36 836.772 389.92 836.172 390.68L835.492 390.56C835.412 390.68 835.332 390.88 835.172 391.08C834.972 391 834.732 390.84 834.372 390.6C834.012 390.68 833.292 390.24 832.132 389.32C831.892 388.84 831.292 387.92 830.372 386.64L825.212 390.52C825.212 390.56 825.252 390.6 825.292 390.68C825.372 390.76 825.412 390.8 825.412 390.84C825.292 391.04 825.052 391.24 824.652 391.44C824.332 391.6 824.052 391.76 823.692 391.92C820.772 392.8 819.332 393.28 819.412 393.28C817.412 393.28 815.812 392.48 814.612 390.92C814.052 389.4 813.772 388.28 813.772 387.6C813.772 387.16 814.292 385.72 815.332 383.36C816.252 382.36 816.892 381.88 817.332 381.84C817.452 381.72 818.412 381 820.212 379.8C821.052 379.44 822.372 378.88 824.252 378.08C826.252 377.6 827.172 377.36 827.012 377.36C827.132 377.36 827.452 377.4 828.012 377.44C828.652 377.48 829.052 377.52 829.252 377.48C830.052 377.84 830.412 378.2 830.412 378.64C830.412 378.68 830.412 378.76 830.412 378.8C830.652 379 830.852 379.28 831.012 379.64C831.212 380.08 831.332 380.32 831.372 380.44C831.492 380.4 831.612 380.4 831.732 380.4C832.332 380.4 832.892 380.64 833.412 381.12C834.252 382.44 835.012 383.68 835.692 384.88C836.612 386.44 837.252 387.8 837.612 388.92ZM859.723 383.32C859.723 384.92 858.963 388.2 857.483 393.12C857.283 393.84 856.203 396.84 854.243 402.2C854.323 402.28 854.403 402.28 854.523 402.28H854.243L852.403 406.64L850.403 413.04C850.283 413.12 849.923 413.48 849.283 414.16C849.163 414.16 848.963 414.2 848.643 414.32C848.323 414.44 848.123 414.48 848.083 414.48C848.083 414.48 847.963 414.44 847.643 414.36C847.203 413.92 846.603 413.24 845.763 412.32C845.443 411.16 845.243 409.96 845.163 409.36L845.763 406.52L847.643 401L851.323 392.24C851.283 392.12 851.243 392 851.163 391.84C849.763 392.28 848.763 392.48 848.163 392.48C846.043 392.48 844.323 391.08 843.003 388.32C841.923 386.08 841.403 383.76 841.403 381.36C841.403 380.76 841.563 380.04 841.843 379.24C842.083 378.96 842.443 378.6 842.963 378.12H843.243C843.483 378.12 844.083 378.6 845.083 379.56C845.363 380 845.563 380.56 845.723 381.24C845.763 381.48 845.963 382.32 846.283 383.72C846.603 385.16 846.963 385.88 847.403 385.88C848.483 385.88 849.923 385.08 851.843 383.52C853.363 382.24 854.643 380.96 855.643 379.68C855.843 379.64 856.123 379.52 856.443 379.28C856.683 379.36 857.043 379.4 857.483 379.4C857.683 379.64 858.003 380.04 858.483 380.6C858.603 380.64 858.723 380.68 858.883 380.76C859.443 381.44 859.723 382.32 859.723 383.32ZM902.628 361.4C902.548 361.6 902.468 362 902.468 362.6C902.428 363.28 902.388 362.56 902.348 362.68C902.468 362.88 902.548 363.08 902.548 363.32C902.508 363.32 902.428 363.36 902.308 363.4C902.188 363.44 902.148 363.44 902.108 363.44C902.028 363.84 901.708 364.36 901.188 365C901.308 365.24 901.348 365.36 901.348 365.32C901.228 365.44 901.028 365.56 900.748 365.72L897.988 365.48C892.348 365.84 894.948 364.72 889.348 365.44C889.148 365.64 889.068 365.76 889.068 365.84C888.868 365.76 888.748 365.64 888.708 365.52C888.508 365.56 888.348 365.6 888.228 365.6C888.068 365.6 887.948 365.56 887.828 365.52C887.628 365.64 887.548 365.76 887.548 365.92H886.348C886.308 366 886.268 366.04 886.268 366.12L883.468 366.72C882.988 367.96 882.348 371.72 881.588 375.72C881.668 376.04 881.668 376.36 881.628 376.72C880.588 382.92 880.028 387.56 879.948 390.64C879.868 390.76 879.708 390.8 879.428 390.8C879.308 391.16 879.268 391.44 879.268 391.68C878.788 391.96 878.428 392.24 878.228 392.48C878.628 392.48 878.028 392.36 876.388 392.08C876.188 391.6 876.068 391.36 876.028 391.32C875.988 391.32 875.868 391.28 875.668 391.28C875.428 390.92 875.108 390.36 874.748 389.64L874.868 384.44C875.308 381.92 875.908 377.04 876.708 372.08C877.028 370.84 877.348 369.56 877.668 368.16V367.4C877.628 367.32 877.508 367.2 877.388 367.04C876.668 367.24 876.348 367.32 876.428 367.32C876.348 367.32 876.268 367.28 876.228 367.2C876.148 367.16 876.068 367.12 876.028 367.12C875.948 367.12 875.668 367.2 875.108 367.36C874.588 367.56 874.308 367.64 874.268 367.64C874.228 367.64 874.068 367.6 873.908 367.56C873.708 367.52 873.588 367.52 873.548 367.52L870.948 368.04C870.948 368.04 870.868 368 870.708 367.96C870.588 367.96 870.508 367.92 870.468 367.92L866.988 368.72L863.508 369.08L861.588 369.04C861.108 368.68 860.628 368.44 860.148 368.24C860.068 368.16 860.028 368 860.028 367.8C859.908 367.68 859.788 367.6 859.628 367.52C859.628 367.24 859.508 366.92 859.228 366.52V365.96L860.068 364.16C860.348 364 860.828 363.76 861.388 363.4C863.388 363.04 866.908 362.32 872.108 361.76L894.628 359.24H901.148C901.148 359.44 901.348 359.72 901.708 360.2C902.108 360.68 902.308 360.96 902.308 361.04C902.308 361.12 902.268 361.16 902.268 361.2C902.348 361.24 902.468 361.32 902.628 361.4ZM917.426 382.96H916.386C915.986 382.96 915.186 383.24 913.946 383.72C913.226 384 912.506 384.28 911.746 384.6C910.946 385.08 910.066 385.76 909.106 386.68L909.026 386.92L910.146 387.04C912.826 386.36 914.946 385.24 916.506 383.68C916.586 383.6 916.906 383.36 917.426 382.96ZM927.026 388.92C926.666 389.36 926.186 389.92 925.586 390.68L924.906 390.56C924.826 390.68 924.746 390.88 924.586 391.08C924.386 391 924.146 390.84 923.786 390.6C923.426 390.68 922.706 390.24 921.546 389.32C921.306 388.84 920.706 387.92 919.786 386.64L914.626 390.52C914.626 390.56 914.666 390.6 914.706 390.68C914.786 390.76 914.826 390.8 914.826 390.84C914.706 391.04 914.466 391.24 914.066 391.44C913.746 391.6 913.466 391.76 913.106 391.92C910.186 392.8 908.746 393.28 908.826 393.28C906.826 393.28 905.226 392.48 904.026 390.92C903.466 389.4 903.186 388.28 903.186 387.6C903.186 387.16 903.706 385.72 904.746 383.36C905.666 382.36 906.306 381.88 906.746 381.84C906.866 381.72 907.826 381 909.626 379.8C910.466 379.44 911.786 378.88 913.666 378.08C915.666 377.6 916.586 377.36 916.426 377.36C916.546 377.36 916.866 377.4 917.426 377.44C918.066 377.48 918.466 377.52 918.666 377.48C919.466 377.84 919.826 378.2 919.826 378.64C919.826 378.68 919.826 378.76 919.826 378.8C920.066 379 920.266 379.28 920.426 379.64C920.626 380.08 920.746 380.32 920.786 380.44C920.906 380.4 921.026 380.4 921.146 380.4C921.746 380.4 922.306 380.64 922.826 381.12C923.666 382.44 924.426 383.68 925.106 384.88C926.026 386.44 926.666 387.8 927.026 388.92ZM957.017 378.36V378.92C956.937 378.92 956.777 379 956.497 379.12C956.497 379.24 956.457 379.32 956.417 379.4L956.817 379.8C956.697 379.92 956.377 380.08 955.857 380.16C955.297 380.28 955.017 380.4 954.977 380.44L951.337 379.64C950.697 379.72 949.857 379.84 948.777 380C947.537 380.44 946.337 380.8 945.257 381.08C943.977 381.6 942.097 382.36 939.657 383.48C937.417 384.52 936.057 386.08 935.497 388.12C935.497 388.2 935.577 388.72 935.697 389.68V390.32C935.577 390.56 935.457 390.76 935.417 390.92C935.337 391.16 935.417 391.36 935.657 391.52L933.657 392.76H933.297C933.017 392.6 932.657 392.32 932.217 391.96L931.697 392.04C931.537 391.8 931.297 391.48 931.017 391.04C930.897 390.68 930.737 390.4 930.617 390.12C930.457 389.32 930.377 388.92 930.377 388.88V387.2C930.377 387.16 930.417 387.08 930.417 386.96C930.457 386.84 930.497 386.76 930.497 386.72V384.92C930.497 384.4 930.657 383.48 931.057 382.2C931.537 380.56 932.057 379.76 932.657 379.76H933.257L933.937 380.36H934.217C934.537 380.36 935.777 379.72 937.817 378.4C939.257 377.76 941.417 376.84 944.337 375.56C944.417 375.6 945.057 375.32 946.337 374.76C946.617 374.76 947.217 374.64 948.177 374.44C949.097 374.24 949.537 374.12 949.577 374.12H951.537C952.937 374.12 954.537 375.04 956.377 376.88C956.457 376.96 956.497 377.12 956.537 377.36C956.857 377.72 957.017 378.08 957.017 378.36ZM973.588 382.56L971.628 382.4L967.788 382.72C967.988 382.72 966.988 383.12 964.708 383.88C964.588 384 964.348 384.2 964.068 384.48C964.068 384.52 964.108 384.6 964.188 384.72C965.628 385.08 966.628 385.24 967.188 385.24C968.188 385.24 969.388 385 970.748 384.52C972.348 383.96 973.308 383.32 973.588 382.56ZM953.748 400.72C953.748 400.76 953.708 400.8 953.628 400.84C953.548 400.88 953.508 400.84 953.468 400.8C953.668 400.8 953.748 400.76 953.748 400.72ZM980.308 396.36L980.188 400.24C979.868 402.96 979.028 405.28 977.708 407.16C977.548 407.4 977.028 407.96 976.148 408.92C975.948 409 975.468 409.36 974.748 409.96C974.068 410.36 973.388 410.68 972.748 410.84C972.388 411.08 971.788 411.4 970.948 411.88C970.508 412.04 969.828 412.32 968.948 412.68L962.588 413.72L959.508 413.84C959.468 413.84 959.268 413.76 958.868 413.68C958.148 413.6 957.268 413.4 956.148 413.04C955.308 412.84 954.668 412.68 954.188 412.4C954.188 412.4 953.468 411.88 952.068 410.88C951.868 410.56 951.548 410.2 951.028 409.8C950.228 407.96 949.828 406.96 949.828 406.84V404.04L951.188 402C951.548 401.72 952.228 401.28 953.108 400.68C953.268 400.8 953.308 400.96 953.308 401.12C953.308 401.28 953.268 401.44 953.108 401.64C953.188 401.68 953.268 401.68 953.348 401.68C953.428 401.64 953.468 401.52 953.468 401.32C953.668 401.24 954.028 401.12 954.508 401L954.468 401.68L954.108 401.96C954.188 402.08 954.268 402.32 954.428 402.72C954.748 402.64 954.948 402.6 955.028 402.6C954.908 402.88 954.668 403.32 954.308 403.84V404.24C954.388 404.28 954.428 404.36 954.468 404.44C954.468 404.8 954.468 405.36 954.548 406.12C954.588 406.2 954.708 406.44 954.948 406.8C955.788 407.44 956.308 407.8 956.548 407.92C957.068 408.12 957.988 408.24 959.268 408.32L961.028 408.4C961.108 408.4 961.308 408.36 961.708 408.28C962.148 408.16 962.348 408.12 962.388 408.12C962.428 408.12 962.508 408.16 962.588 408.16C962.708 408.2 962.788 408.2 962.828 408.2C963.268 408.2 964.028 408.08 965.148 407.92C965.788 407.6 966.508 407.32 967.188 407.08C968.468 406.64 969.588 406.12 970.588 405.6C970.908 405.4 971.348 405.08 971.868 404.56C973.988 403.24 975.028 400.8 975.028 397.28L973.788 389.6L973.628 389.44H973.228L967.828 391.16C967.548 391.08 967.068 391.04 966.428 391C965.028 391.12 963.388 390.6 961.428 389.36C959.388 388.08 958.348 386.76 958.348 385.48L958.548 384.68C958.508 384.52 958.468 384.36 958.468 384.16C958.468 383.24 958.948 382.16 959.868 380.96C960.708 379.88 961.468 379.24 962.108 379.12C963.188 378.52 964.508 378.08 966.028 377.8C966.828 377.68 968.028 377.48 969.628 377.24L972.228 377.12C972.788 377.24 973.588 377.48 974.668 377.76C975.588 378.04 976.388 378.44 977.068 378.96V379.44C977.668 379.72 978.068 380.28 978.228 381.16C978.348 381.36 978.508 381.6 978.708 381.92C978.548 381.92 978.428 381.96 978.388 382C978.388 382.48 978.388 382.72 978.428 382.72C978.468 382.72 978.468 382.72 978.468 382.72C978.388 382.68 978.268 382.64 978.068 382.64L977.908 382.8C978.108 383.28 978.428 383.92 978.868 384.76C978.908 384.88 978.908 384.96 978.868 385.08C979.028 386.4 979.308 388.84 979.788 392.28L980.308 396.36ZM996.147 379.44C996.147 379.52 996.067 379.36 995.867 378.92C994.227 379.6 993.707 379.48 992.507 380.2C991.187 381.04 990.147 382.04 989.587 383C989.747 383 989.867 383.04 990.027 383.2C991.347 382.68 992.507 382.48 993.827 381.6C994.867 380.88 995.467 380.2 996.147 379.44ZM1005.03 388.64C1004.87 388.88 1004.63 389.24 1004.35 389.8C1004.15 389.8 1004.03 389.76 1003.95 389.68C1003.79 389.72 1003.55 389.84 1003.27 390.04C1003.55 390.16 1003.95 390.32 1004.39 390.6C1004.23 390.64 1003.87 390.92 1003.31 391.44C1002.79 391.6 1001.95 391.84 1000.83 392.08C1000.47 392.28 1000.23 392.6 1000.11 392.96L995.147 393.6C991.587 393.36 988.707 392.56 986.587 391.16C985.067 389.6 984.107 387.8 983.707 385.76C983.587 385.44 983.507 385.24 983.507 385.08C983.507 383.8 984.067 382.24 985.147 380.44C986.387 378.44 987.707 377.16 989.187 376.56C989.267 376.52 989.467 376.52 989.827 376.52C990.467 376 991.547 375.52 993.147 375.12C994.547 374.76 995.747 374.6 996.707 374.6C997.587 374.6 998.587 374.92 999.747 375.56C999.707 375.6 999.707 375.76 999.707 376.04C999.947 376.08 1000.23 376.16 1000.59 376.24C1000.59 376.32 1000.67 376.44 1000.83 376.64C1000.83 377.12 1001.03 377.72 1001.39 378.52V379.36C1001.39 379.48 1001.31 379.6 1001.15 379.76C1001.23 379.88 1001.27 380.04 1001.27 380.2C1001.27 380.48 1001.15 380.8 1000.91 381.16C1000.87 381.36 1000.87 381.6 1000.83 381.96C1000.55 382.36 998.827 383.92 997.347 384.92C995.187 386.36 991.267 387.72 991.267 387.72C991.707 387.96 994.547 388.52 996.507 388.52C998.787 388.52 1003.71 386.84 1003.71 386.84C1003.95 387.2 1004.47 388.2 1005.03 388.64ZM1041.83 378.36H1041.15C1041.07 378.56 1040.99 378.72 1040.99 378.84C1040.99 378.88 1041.03 378.92 1041.03 378.96C1040.75 379.12 1040.55 379.2 1040.43 379.2C1039.75 379.92 1039.31 380.28 1039.19 380.28H1037.51L1035.75 380.68C1035.59 380.64 1035.39 380.6 1035.15 380.6L1032.67 381.08C1032.63 381.08 1032.55 381.08 1032.39 381.04C1032.27 381 1032.15 381 1032.07 381C1031.91 381 1031.39 381.08 1030.51 381.2C1029.71 381.32 1028.91 381.4 1028.15 381.56C1027.59 381.64 1026.95 381.96 1026.23 382.36C1025.63 385.96 1025.31 387.92 1025.31 388.24V389.76C1025.31 389.92 1025.19 390.36 1024.99 391.16C1024.79 391.92 1024.71 392.44 1024.71 392.68C1024.19 392.88 1023.47 393.24 1022.47 393.72C1022.23 393.56 1021.99 393.4 1021.75 393.24C1021.27 392.92 1021.03 392.8 1020.95 392.8C1020.43 392 1020.07 391.08 1019.95 390C1019.95 389.92 1019.87 389.04 1019.71 387.4L1020.11 384.24V383.08L1019.95 382.88H1019.55L1014.95 383.8C1014.79 383.84 1014.63 383.8 1014.47 383.68L1010.83 384.4C1010.63 384.28 1010.27 384.08 1009.67 383.76C1009.39 383.64 1009.15 383.32 1008.91 382.84C1008.71 382.44 1008.55 382.12 1008.43 381.88C1008.27 380.6 1008.19 380.04 1008.19 380.24C1008.19 379.84 1008.35 379.44 1008.63 378.96C1008.95 378.48 1009.23 378.24 1009.55 378.28L1016.67 377.8L1021.35 376.72C1021.67 374.36 1022.15 370.88 1022.83 366.2C1023.43 364.32 1023.99 362.72 1024.47 361.48C1024.99 360.88 1025.51 360.44 1026.07 360.08C1026.23 360.16 1026.99 360.6 1028.31 361.48C1028.59 363.04 1028.71 363.76 1028.71 363.68L1027.03 374.24V375.76H1029.79C1029.83 375.8 1029.95 375.72 1030.07 375.6H1030.67C1030.71 375.6 1030.83 375.6 1030.99 375.64C1031.15 375.68 1031.27 375.68 1031.35 375.68C1031.39 375.68 1031.63 375.64 1031.99 375.52C1032.39 375.44 1032.59 375.4 1032.67 375.4C1032.79 375.4 1032.99 375.48 1033.27 375.6C1033.67 375.48 1034.67 375.4 1036.19 375.4C1036.15 375.4 1037.07 375.56 1038.99 375.84C1039.47 376.12 1040.11 376.4 1040.91 376.72C1040.91 376.92 1040.87 377.12 1040.75 377.24C1040.83 377.6 1041.03 377.92 1041.31 378.2C1041.51 378.16 1041.71 378.24 1041.83 378.36Z" fill="#C92C2C"/>
<path d="M517 148C517.552 148 518 147.552 518 147C518 146.448 517.552 146 517 146V148ZM386.048 225.306C386.217 225.832 386.78 226.121 387.306 225.952L395.875 223.2C396.4 223.031 396.69 222.468 396.521 221.942C396.352 221.416 395.789 221.127 395.263 221.296L387.646 223.742L385.2 216.125C385.031 215.6 384.468 215.31 383.942 215.479C383.416 215.648 383.127 216.211 383.296 216.737L386.048 225.306ZM517 146C485.376 146 459.683 151.899 438.36 164.705C417.035 177.513 400.171 197.175 386.111 224.543L387.889 225.457C401.829 198.325 418.465 178.987 439.39 166.42C460.317 153.851 485.624 148 517 148V146Z" fill="#C92C2C"/>
<path d="M775.5 388C776.052 388 776.5 387.552 776.5 387C776.5 386.448 776.052 386 775.5 386L775.5 388ZM671.293 386.293C670.902 386.683 670.902 387.316 671.293 387.707L677.657 394.071C678.047 394.461 678.681 394.461 679.071 394.071C679.462 393.68 679.462 393.047 679.071 392.657L673.414 387L679.071 381.343C679.462 380.952 679.462 380.319 679.071 379.929C678.681 379.538 678.047 379.538 677.657 379.929L671.293 386.293ZM775.5 386C717.5 386 700 386 672 386L672 388C700 388 717.5 388 775.5 388L775.5 386Z" fill="#C92C2C"/>
<path d="M654.198 388.541L348.5 256.565" stroke="#4E4BEC" stroke-width="2"/>
<path d="M348.5 256.566L256.5 216.848" stroke="#4E4BEC" stroke-opacity="0.5" stroke-width="2"/>
<path fill-rule="evenodd" clip-rule="evenodd" d="M662.802 392.695L650.085 381.339L646.103 389.873L662.801 392.695L662.802 392.695Z" fill="#4E4BEC" stroke="#4E4BEC"/>
</g>
<defs>
<radialGradient id="paint0_radial_1209_2593" cx="0" cy="0" r="1" gradientUnits="userSpaceOnUse" gradientTransform="translate(683.876 327.033) rotate(-0.0911614) scale(151.54 150.218)">
<stop stop-color="#FFEAC9"/>
<stop offset="0.327" stop-color="#FFDBA5"/>
<stop offset="1" stop-color="#EB8D00"/>
</radialGradient>
<clipPath id="clip0_1209_2593">
<rect width="1075" height="690" fill="white"/>
</clipPath>
</defs>
</svg>
