<svg width="1075" height="690" viewBox="0 0 1075 690" fill="none" xmlns="http://www.w3.org/2000/svg"><path fill="#fff" d="M0 0h1075v690H0z"/><path d="M975 57.863H100v582h875v-582Z" fill="#fff"/><path fill-rule="evenodd" clip-rule="evenodd" d="M130.757 170.683c2.837 1.135 26.95 7.944 26.95 7.944l-.141 38.156-27.093-7.944.284-38.156Z" fill="#fff" stroke="#000" stroke-linejoin="bevel"/><path fill-rule="evenodd" clip-rule="evenodd" d="m130.686 170.824 53.83-15.177 26.241 7.517-52.983 15.54-27.088-7.88Z" fill="#fff" stroke="#000" stroke-linejoin="bevel"/><path fill-rule="evenodd" clip-rule="evenodd" d="m157.707 178.909 53.192-16.028v38.156l-53.05 15.745-.142-37.873Z" fill="#fff" stroke="#000" stroke-linejoin="bevel"/><path fill-rule="evenodd" clip-rule="evenodd" d="m198.684 208.11-17.352-3.41c-8.587-.903-9.178-27.194 4.542-28.43l14.114 1.95" fill="#fff"/><path d="m198.684 208.11-17.352-3.41c-8.587-.903-9.178-27.194 4.542-28.43l14.114 1.95" stroke="#000"/><path d="M209.342 193.235c0 8.282-4.812 15.003-10.74 15.003s-10.739-6.721-10.739-15.002 4.811-15.002 10.74-15.002c5.927 0 10.739 6.719 10.739 15.001Z" fill="#fff" stroke="#000" stroke-linecap="round" stroke-linejoin="bevel"/><path opacity=".12" d="M630.181 608.293c-53.6 35.069-151.607 38.563-180.561 4.393-38.611-45.564-20.353-97.306 40.145-141.981 50.875-37.566 153.541-44.364 182.265-18.009 19.827 18.193 65.752 85.197-41.849 155.597Z" fill="#000"/><path d="M754.463 388.67a100.42 100.42 0 0 1-61.988 92.771 100.42 100.42 0 0 1-76.854 0 100.421 100.421 0 0 1-54.344-54.344 100.419 100.419 0 0 1 54.344-131.198 100.423 100.423 0 0 1 76.854 0 100.424 100.424 0 0 1 61.988 92.771Z" fill="url(#a)" stroke="#000" stroke-width="3" stroke-linecap="round"/><path d="M739.888 180.722c0 13.567-11.011 24.579-24.578 24.579s-24.579-11.012-24.579-24.579 11.012-24.578 24.579-24.578 24.578 11.011 24.578 24.578Z" fill="#fff" stroke="#000" stroke-width="2.373" stroke-linecap="round"/><path fill-rule="evenodd" clip-rule="evenodd" d="M701.453 160.498v-26.366l3.356-5.274h20.614l4.352 5.049v26.591c-8.002 2.868-20.32 2.23-28.322 0Z" fill="#fff" stroke="#000" stroke-width="2.535"/><path d="M700.973 134.132c10.045 2.864 18.48 2.677 28.764 0" stroke="#000" stroke-width="1.69"/><path d="m198.842 192.408 183.262 43.688m-183.262-43.688 161.135 52.766m-161.135-52.766L354.87 334.82" stroke="red" stroke-width="2"/><path fill-rule="evenodd" clip-rule="evenodd" d="m256.155 176.515 1.605 255.16 205.412-88.263-.803-256.764-206.214 89.867Z" fill="#fff" fill-opacity=".678" stroke="#000" stroke-width="2"/><path opacity=".25" d="M280.227 164.88v257.567m22.467-267.597v257.567m22.868-266.393v257.567m22.868-267.196v256.149m22.467-265.797v255.58m22.868-266.06v256.432m22.467-265.806v256.716M438.699 97.21v256.432M256.556 207.407l205.01-87.06m-205.21 119.356 206.214-87.661M256.556 271.197l205.813-87.46M256.556 303.293l203.807-86.659 2.34-1.059M256.556 335.388l206.215-87.862M256.556 367.483l206.216-87.86M256.556 400.382l206.415-87.46" stroke="#000" stroke-width="1.5"/><path opacity=".12" d="M365.97 326.379c-8.848 2.736-19.745 7.051-30.72 11.687-23.945 10.116-46.306 21.497-43.624 27.844 2.681 6.347 26.554-3.228 50.5-13.344 19.456-8.219 37.694-16.701 42.406-23-1.646.468-3.3.719-4.969.719-4.759 0-9.364-1.38-13.593-3.906Z" fill="#000"/><path opacity=".25" d="M416.714 270.706c0 27.875-18.215 59.575-37.163 59.575-18.948 0-35.46-22.055-35.46-49.93 0-27.873 18.782-59.006 37.73-59.006 18.948 0 34.893 21.487 34.893 49.361Z" fill="#F9C578" stroke="#000" stroke-width="1.5" stroke-linecap="round" stroke-linejoin="bevel"/><path d="m359.906 245.174 242.34 80.568" stroke="red" stroke-width="2"/><path fill-rule="evenodd" clip-rule="evenodd" d="m605.697 327.114-13.925-9.837-2.986 8.931 16.91.906h.001Z" fill="red" stroke="red"/><path d="m647.92 301.486 45.066-89.305" stroke="#8F8FFF" stroke-width="2"/><path d="m382.104 236.096 251.697 61.305" stroke="red" stroke-width="2"/><path fill-rule="evenodd" clip-rule="evenodd" d="m645.816 300.635-14.727-9.235-2.785 9.333 17.512-.098Z" fill="red" stroke="red"/><path fill-rule="evenodd" clip-rule="evenodd" d="m698.027 201.784-11.71 12.846 8.687 4.404 3.023-17.25Z" fill="#8F8FFF" stroke="#8F8FFF"/><path d="m354.802 334.769 198.237 178.922" stroke="red" stroke-width="2"/><path fill-rule="evenodd" clip-rule="evenodd" d="m555.398 515.714-8.613-14.713-6.41 6.898 15.023 7.815Z" fill="red" stroke="red"/><path d="m657.95 306.302 25.808-53.198M557.25 513.518l40.251-80.479" stroke="#8F8FFF" stroke-width="2"/><path fill-rule="evenodd" clip-rule="evenodd" d="m690.806 239.095-11.711 12.847 8.687 4.403 3.024-17.25Z" fill="#8F8FFF" stroke="#8F8FFF"/><path d="M759.646 134.143V106.78h3.621v24.134h13.476v3.229h-17.097Zm21.017-23.499v-3.864h3.359v3.864h-3.359Zm0 23.499v-19.822h3.359v19.822h-3.359Zm7.876 1.643 3.267.485c.137 1.008.516 1.742 1.138 2.202.834.623 1.973.934 3.416.934 1.556 0 2.756-.311 3.603-.934.846-.622 1.418-1.493 1.717-2.613.174-.684.255-2.121.242-4.311-1.468 1.729-3.297 2.594-5.487 2.594-2.725 0-4.834-.983-6.328-2.949-1.493-1.966-2.239-4.324-2.239-7.074 0-1.892.342-3.634 1.026-5.226.684-1.606 1.674-2.844 2.968-3.715 1.306-.871 2.837-1.306 4.592-1.306 2.339 0 4.268.945 5.786 2.837v-2.389h3.098v17.134c0 3.086-.317 5.27-.952 6.552-.622 1.294-1.617 2.314-2.986 3.061-1.357.746-3.03 1.12-5.021 1.12-2.364 0-4.274-.535-5.73-1.605-1.456-1.058-2.159-2.657-2.11-4.797Zm2.782-11.909c0 2.601.516 4.499 1.549 5.693 1.033 1.195 2.327 1.792 3.882 1.792 1.543 0 2.837-.591 3.883-1.773 1.045-1.195 1.567-3.061 1.567-5.6 0-2.426-.541-4.255-1.623-5.487-1.071-1.232-2.365-1.848-3.883-1.848-1.493 0-2.762.609-3.808 1.829-1.045 1.207-1.567 3.005-1.567 5.394Zm19.113 10.266V106.78h3.359v9.818c1.568-1.817 3.547-2.725 5.936-2.725 1.468 0 2.744.292 3.826.877 1.083.572 1.854 1.369 2.315 2.389.473 1.02.709 2.501.709 4.442v12.562h-3.36v-12.562c0-1.679-.367-2.899-1.101-3.658-.722-.771-1.748-1.157-3.08-1.157-.995 0-1.935.261-2.818.784-.871.51-1.493 1.207-1.867 2.09-.373.884-.56 2.103-.56 3.659v10.844h-3.359Zm28.614-3.005.485 2.968c-.946.199-1.792.298-2.539.298-1.219 0-2.165-.192-2.837-.578-.672-.386-1.145-.89-1.418-1.512-.274-.635-.411-1.96-.411-3.976v-11.404h-2.464v-2.613h2.464v-4.909l3.341-2.016v6.925h3.379v2.613h-3.379v11.591c0 .958.056 1.574.168 1.848.125.273.317.491.579.653.273.162.659.243 1.157.243.373 0 .865-.044 1.475-.131Zm13.14-5.786 3.416-.299c.161 1.369.535 2.495 1.119 3.379.598.871 1.519 1.58 2.763 2.127 1.244.535 2.644.803 4.2.803 1.381 0 2.6-.205 3.658-.616 1.058-.411 1.842-.971 2.352-1.68.522-.722.784-1.506.784-2.352 0-.858-.249-1.605-.747-2.24-.498-.647-1.319-1.188-2.464-1.623-.734-.287-2.358-.728-4.871-1.326-2.514-.609-4.275-1.182-5.283-1.717-1.306-.684-2.283-1.53-2.93-2.538-.635-1.021-.952-2.159-.952-3.416 0-1.381.392-2.669 1.176-3.864.784-1.207 1.929-2.121 3.434-2.743 1.506-.623 3.18-.934 5.021-.934 2.029 0 3.814.33 5.357.99 1.556.647 2.75 1.605 3.584 2.874.834 1.269 1.282 2.706 1.344 4.312l-3.472.261c-.187-1.73-.821-3.036-1.904-3.92-1.07-.883-2.656-1.325-4.759-1.325-2.19 0-3.789.404-4.797 1.213-.996.797-1.494 1.761-1.494 2.893 0 .983.355 1.792 1.064 2.427.697.634 2.514 1.288 5.451 1.96 2.949.659 4.971 1.238 6.066 1.736 1.593.734 2.768 1.667 3.528 2.799.759 1.12 1.138 2.414 1.138 3.883 0 1.456-.417 2.831-1.25 4.125-.834 1.281-2.035 2.283-3.603 3.005-1.555.709-3.31 1.064-5.263 1.064-2.477 0-4.555-.361-6.235-1.083-1.667-.722-2.98-1.804-3.938-3.248-.946-1.456-1.443-3.098-1.493-4.927Zm25.049-1.12c0-3.671 1.02-6.39 3.061-8.157 1.704-1.468 3.782-2.202 6.234-2.202 2.725 0 4.952.896 6.682 2.687 1.73 1.78 2.594 4.244 2.594 7.392 0 2.551-.385 4.56-1.157 6.029-.759 1.456-1.873 2.588-3.341 3.397-1.456.809-3.049 1.213-4.778 1.213-2.775 0-5.021-.89-6.738-2.669-1.705-1.78-2.557-4.343-2.557-7.69Zm3.453 0c0 2.538.553 4.442 1.661 5.711 1.107 1.257 2.501 1.886 4.181 1.886 1.667 0 3.055-.635 4.162-1.904 1.108-1.27 1.661-3.204 1.661-5.805 0-2.452-.56-4.306-1.68-5.562-1.107-1.27-2.488-1.904-4.143-1.904-1.68 0-3.074.628-4.181 1.885-1.108 1.257-1.661 3.154-1.661 5.693Zm32.066 9.911v-2.912c-1.543 2.24-3.639 3.36-6.29 3.36a8.085 8.085 0 0 1-3.285-.672c-1.008-.448-1.761-1.008-2.258-1.68-.486-.684-.828-1.518-1.027-2.501-.137-.659-.205-1.705-.205-3.136v-12.281h3.359v10.993c0 1.755.069 2.937.206 3.547.211.883.659 1.58 1.344 2.09.684.498 1.53.747 2.538.747a5.58 5.58 0 0 0 2.837-.765c.884-.523 1.506-1.226 1.867-2.11.373-.895.56-2.19.56-3.882v-10.62h3.36v19.822h-3.006Zm8.25 0v-19.822h3.024v3.005c.772-1.406 1.481-2.333 2.128-2.781a3.774 3.774 0 0 1 2.165-.672c1.133 0 2.284.361 3.453 1.082l-1.157 3.117c-.821-.485-1.643-.728-2.464-.728a3.17 3.17 0 0 0-1.978.672c-.585.436-1.002 1.046-1.251 1.83-.373 1.194-.56 2.501-.56 3.919v10.378h-3.36Zm25.702-7.261 3.304.43c-.361 2.277-1.288 4.062-2.781 5.357-1.481 1.281-3.304 1.922-5.469 1.922-2.713 0-4.896-.883-6.551-2.65-1.643-1.78-2.464-4.325-2.464-7.634 0-2.141.354-4.014 1.064-5.619.709-1.605 1.785-2.806 3.229-3.602a9.6 9.6 0 0 1 4.741-1.213c2.153 0 3.913.547 5.282 1.642 1.369 1.083 2.246 2.626 2.632 4.629l-3.267.504c-.311-1.331-.864-2.333-1.661-3.005-.784-.672-1.736-1.008-2.856-1.008-1.692 0-3.067.61-4.125 1.829-1.057 1.207-1.586 3.124-1.586 5.749 0 2.663.51 4.598 1.53 5.805 1.021 1.207 2.352 1.811 3.995 1.811 1.319 0 2.42-.405 3.304-1.214.883-.808 1.443-2.053 1.679-3.733Zm19.748.878 3.472.429c-.548 2.028-1.562 3.602-3.043 4.722-1.48 1.12-3.372 1.68-5.674 1.68-2.899 0-5.201-.89-6.906-2.669-1.692-1.792-2.538-4.299-2.538-7.522 0-3.335.858-5.923 2.575-7.765 1.718-1.842 3.945-2.762 6.683-2.762 2.65 0 4.815.902 6.495 2.706 1.68 1.804 2.52 4.343 2.52 7.616 0 .199-.006.497-.019.895h-14.783c.125 2.178.741 3.845 1.848 5.003 1.108 1.157 2.489 1.736 4.144 1.736 1.232 0 2.283-.324 3.154-.971s1.562-1.68 2.072-3.098Zm-11.031-5.432h11.069c-.15-1.667-.573-2.918-1.27-3.752-1.07-1.294-2.457-1.941-4.162-1.941-1.543 0-2.843.517-3.901 1.549-1.045 1.033-1.624 2.414-1.736 4.144ZM744.12 486.427l3.416-.298c.162 1.369.535 2.495 1.12 3.378.597.871 1.518 1.581 2.762 2.128 1.245.535 2.645.803 4.2.803 1.381 0 2.601-.206 3.658-.616 1.058-.411 1.842-.971 2.352-1.68.523-.722.784-1.506.784-2.352 0-.859-.249-1.605-.746-2.24-.498-.647-1.319-1.188-2.464-1.624-.734-.286-2.358-.728-4.872-1.325-2.513-.61-4.274-1.182-5.282-1.717-1.307-.685-2.283-1.531-2.931-2.539-.634-1.02-.951-2.159-.951-3.415 0-1.382.391-2.669 1.175-3.864.784-1.207 1.929-2.122 3.435-2.744 1.505-.622 3.179-.933 5.021-.933 2.028 0 3.814.33 5.357.989 1.555.647 2.75 1.605 3.583 2.875.834 1.269 1.282 2.706 1.344 4.311l-3.471.262c-.187-1.73-.822-3.037-1.904-3.92-1.07-.884-2.657-1.325-4.76-1.325-2.19 0-3.789.404-4.797 1.213-.995.796-1.493 1.761-1.493 2.893 0 .983.355 1.792 1.064 2.427.697.634 2.513 1.287 5.45 1.959 2.949.66 4.971 1.238 6.066 1.736 1.593.734 2.769 1.668 3.528 2.8.759 1.12 1.139 2.414 1.139 3.882 0 1.456-.417 2.831-1.251 4.125-.834 1.282-2.035 2.284-3.602 3.005-1.556.71-3.31 1.064-5.264 1.064-2.476 0-4.554-.36-6.234-1.082-1.668-.722-2.98-1.805-3.939-3.248-.945-1.456-1.443-3.098-1.493-4.928Zm39.235 1.531 3.303.429c-.361 2.277-1.288 4.063-2.781 5.357-1.481 1.282-3.304 1.923-5.469 1.923-2.712 0-4.896-.884-6.551-2.651-1.643-1.779-2.464-4.324-2.464-7.634 0-2.14.355-4.013 1.064-5.618.709-1.605 1.786-2.806 3.229-3.602a9.6 9.6 0 0 1 4.741-1.214c2.153 0 3.913.548 5.282 1.643 1.369 1.082 2.246 2.625 2.632 4.629l-3.266.504c-.312-1.332-.865-2.333-1.662-3.005-.784-.672-1.736-1.008-2.855-1.008-1.693 0-3.068.61-4.125 1.829-1.058 1.207-1.587 3.123-1.587 5.749 0 2.663.51 4.598 1.531 5.805 1.02 1.207 2.351 1.81 3.994 1.81 1.319 0 2.42-.404 3.304-1.213.883-.809 1.443-2.053 1.68-3.733Zm19.747.877 3.472.43c-.547 2.028-1.562 3.602-3.042 4.722-1.481 1.12-3.373 1.68-5.675 1.68-2.899 0-5.201-.89-6.906-2.669-1.692-1.792-2.538-4.3-2.538-7.522 0-3.335.858-5.924 2.576-7.765 1.717-1.842 3.944-2.763 6.682-2.763 2.65 0 4.815.902 6.495 2.707 1.68 1.804 2.52 4.343 2.52 7.615 0 .199-.006.498-.019.896h-14.782c.124 2.178.74 3.845 1.847 5.002 1.108 1.158 2.489 1.736 4.144 1.736 1.232 0 2.283-.323 3.154-.97.872-.647 1.562-1.68 2.072-3.099Zm-11.031-5.431h11.069c-.15-1.668-.573-2.918-1.27-3.752-1.07-1.294-2.457-1.941-4.162-1.941-1.543 0-2.843.516-3.901 1.549-1.045 1.033-1.624 2.414-1.736 4.144Zm18.74 11.815v-19.823h3.024v2.819c1.456-2.178 3.559-3.267 6.309-3.267 1.194 0 2.289.218 3.285.654 1.008.423 1.76.983 2.258 1.679.498.697.846 1.525 1.045 2.483.125.622.187 1.711.187 3.266v12.189h-3.36v-12.058c0-1.369-.13-2.389-.392-3.061-.261-.684-.728-1.226-1.399-1.624-.66-.411-1.438-.616-2.334-.616-1.431 0-2.669.454-3.714 1.363-1.033.908-1.549 2.631-1.549 5.17v10.826h-3.36Zm34.848-6.384 3.472.43c-.548 2.028-1.562 3.602-3.043 4.722-1.48 1.12-3.372 1.68-5.674 1.68-2.899 0-5.201-.89-6.906-2.669-1.692-1.792-2.539-4.3-2.539-7.522 0-3.335.859-5.924 2.576-7.765 1.717-1.842 3.945-2.763 6.682-2.763 2.651 0 4.816.902 6.496 2.707 1.68 1.804 2.52 4.343 2.52 7.615 0 .199-.007.498-.019.896h-14.783c.125 2.178.741 3.845 1.848 5.002 1.108 1.158 2.489 1.736 4.144 1.736 1.232 0 2.283-.323 3.154-.97s1.562-1.68 2.072-3.099Zm-11.031-5.431h11.068c-.149-1.668-.572-2.918-1.269-3.752-1.07-1.294-2.457-1.941-4.162-1.941-1.543 0-2.844.516-3.901 1.549-1.046 1.033-1.624 2.414-1.736 4.144Zm28.707-1.512c0-4.542 1.219-8.095 3.658-10.658 2.439-2.576 5.587-3.864 9.445-3.864 2.526 0 4.803.604 6.831 1.811 2.029 1.207 3.572 2.893 4.629 5.058 1.07 2.153 1.606 4.598 1.606 7.335 0 2.775-.56 5.258-1.68 7.448-1.12 2.19-2.707 3.851-4.76 4.984-2.053 1.119-4.268 1.679-6.645 1.679-2.576 0-4.878-.622-6.906-1.866-2.028-1.244-3.565-2.943-4.61-5.096a15.444 15.444 0 0 1-1.568-6.831Zm3.733.056c0 3.297.883 5.898 2.65 7.802 1.78 1.891 4.007 2.837 6.683 2.837 2.725 0 4.965-.958 6.719-2.874 1.767-1.917 2.651-4.636 2.651-8.157 0-2.228-.38-4.169-1.139-5.824-.747-1.667-1.848-2.955-3.304-3.863-1.443-.921-3.067-1.382-4.871-1.382-2.564 0-4.772.884-6.627 2.651-1.841 1.754-2.762 4.691-2.762 8.81Zm29.79 13.271h-3.117v-27.363h3.359v9.761c1.419-1.779 3.229-2.669 5.432-2.669 1.219 0 2.37.249 3.453.747 1.095.485 1.991 1.176 2.688 2.072.709.883 1.263 1.953 1.661 3.21.398 1.257.597 2.601.597 4.032 0 3.397-.84 6.023-2.52 7.877-1.679 1.854-3.695 2.781-6.047 2.781-2.339 0-4.175-.977-5.506-2.931v2.483Zm-.038-10.061c0 2.377.324 4.094.971 5.152 1.058 1.729 2.489 2.594 4.293 2.594 1.468 0 2.737-.634 3.808-1.904 1.07-1.281 1.605-3.185 1.605-5.711 0-2.588-.517-4.498-1.549-5.73-1.021-1.232-2.259-1.848-3.715-1.848-1.468 0-2.737.641-3.807 1.922-1.071 1.27-1.606 3.111-1.606 5.525Zm18.199-13.401v-3.901h3.36v3.901h-3.36Zm-4.256 31.152.635-2.856c.672.174 1.201.261 1.586.261.685 0 1.195-.23 1.531-.69.336-.448.504-1.581.504-3.397v-20.831h3.36v20.905c0 2.439-.318 4.138-.952 5.096-.809 1.244-2.153 1.866-4.032 1.866a9.753 9.753 0 0 1-2.632-.354Zm26.356-14.074 3.471.43c-.547 2.028-1.561 3.602-3.042 4.722-1.481 1.12-3.372 1.68-5.674 1.68-2.9 0-5.202-.89-6.907-2.669-1.692-1.792-2.538-4.3-2.538-7.522 0-3.335.859-5.924 2.576-7.765 1.717-1.842 3.944-2.763 6.682-2.763 2.65 0 4.816.902 6.495 2.707 1.68 1.804 2.52 4.343 2.52 7.615 0 .199-.006.498-.018.896h-14.783c.124 2.178.74 3.845 1.848 5.002 1.107 1.158 2.488 1.736 4.143 1.736 1.232 0 2.284-.323 3.155-.97s1.561-1.68 2.072-3.099Zm-11.032-5.431h11.069c-.149-1.668-.573-2.918-1.269-3.752-1.071-1.294-2.458-1.941-4.163-1.941-1.543 0-2.843.516-3.901 1.549-1.045 1.033-1.624 2.414-1.736 4.144Zm31.675 4.554 3.304.429c-.361 2.277-1.288 4.063-2.781 5.357-1.481 1.282-3.304 1.923-5.469 1.923-2.713 0-4.897-.884-6.552-2.651-1.642-1.779-2.463-4.324-2.463-7.634 0-2.14.354-4.013 1.064-5.618.709-1.605 1.785-2.806 3.229-3.602a9.6 9.6 0 0 1 4.741-1.214c2.152 0 3.913.548 5.282 1.643 1.369 1.082 2.246 2.625 2.632 4.629l-3.267.504c-.311-1.332-.865-2.333-1.661-3.005-.784-.672-1.736-1.008-2.856-1.008-1.692 0-3.067.61-4.125 1.829-1.057 1.207-1.586 3.123-1.586 5.749 0 2.663.51 4.598 1.53 5.805 1.021 1.207 2.352 1.81 3.995 1.81 1.319 0 2.42-.404 3.303-1.213.884-.809 1.444-2.053 1.68-3.733Zm13.514 4.256.485 2.967c-.946.2-1.792.299-2.538.299-1.22 0-2.166-.193-2.837-.579-.672-.385-1.145-.889-1.419-1.511-.274-.635-.411-1.96-.411-3.976v-11.405h-2.463v-2.613h2.463v-4.909l3.341-2.015v6.924h3.379v2.613h-3.379v11.592c0 .958.056 1.574.168 1.847.125.274.318.492.579.654.274.161.66.242 1.157.242.374 0 .865-.043 1.475-.13Z" fill="#000"/><path d="m710.62 258.256 3.416-.299c.162 1.369.535 2.495 1.12 3.378.597.871 1.518 1.581 2.762 2.128 1.245.535 2.645.803 4.2.803 1.381 0 2.601-.206 3.658-.616 1.058-.411 1.842-.971 2.352-1.68.523-.722.784-1.506.784-2.352 0-.858-.249-1.605-.746-2.24-.498-.647-1.319-1.188-2.464-1.624-.734-.286-2.358-.728-4.872-1.325-2.513-.61-4.274-1.182-5.282-1.717-1.307-.684-2.283-1.531-2.931-2.538-.634-1.021-.951-2.159-.951-3.416 0-1.381.391-2.669 1.175-3.864.784-1.207 1.929-2.122 3.435-2.744 1.505-.622 3.179-.933 5.021-.933 2.028 0 3.814.33 5.357.989 1.555.647 2.75 1.606 3.583 2.875.834 1.269 1.282 2.706 1.344 4.311l-3.471.262c-.187-1.73-.822-3.036-1.904-3.92-1.07-.883-2.657-1.325-4.76-1.325-2.19 0-3.789.404-4.797 1.213-.995.796-1.493 1.761-1.493 2.893 0 .983.355 1.792 1.064 2.427.697.634 2.513 1.288 5.45 1.959 2.949.66 4.971 1.239 6.066 1.736 1.593.735 2.769 1.668 3.528 2.8.759 1.12 1.139 2.414 1.139 3.882 0 1.456-.417 2.831-1.251 4.125-.834 1.282-2.035 2.284-3.602 3.006-1.556.709-3.31 1.064-5.264 1.064-2.476 0-4.554-.361-6.234-1.083-1.668-.722-2.98-1.804-3.939-3.248-.945-1.456-1.443-3.098-1.493-4.927Zm26.3 8.791v-27.363h3.359v9.818c1.568-1.817 3.547-2.726 5.936-2.726 1.468 0 2.744.293 3.826.878 1.083.572 1.854 1.369 2.315 2.389.473 1.02.709 2.501.709 4.442v12.562h-3.36v-12.562c0-1.68-.367-2.899-1.101-3.658-.722-.772-1.748-1.157-3.08-1.157-.995 0-1.935.261-2.818.784-.871.51-1.493 1.207-1.867 2.09-.373.883-.56 2.103-.56 3.658v10.845h-3.359Zm34.213-2.445c-1.244 1.057-2.445 1.804-3.603 2.24-1.144.435-2.376.653-3.695.653-2.178 0-3.851-.529-5.021-1.587-1.17-1.07-1.755-2.432-1.755-4.087 0-.971.218-1.854.654-2.651.448-.809 1.026-1.456 1.735-1.941a8.306 8.306 0 0 1 2.427-1.101c.659-.174 1.655-.342 2.986-.504 2.713-.324 4.71-.71 5.992-1.157.012-.461.019-.753.019-.878 0-1.369-.318-2.333-.952-2.893-.859-.759-2.134-1.138-3.827-1.138-1.58 0-2.75.28-3.509.84-.746.547-1.3 1.524-1.661 2.93l-3.285-.448c.299-1.406.79-2.538 1.474-3.397.685-.871 1.674-1.537 2.968-1.997 1.294-.473 2.794-.71 4.499-.71 1.692 0 3.067.2 4.125.598 1.057.398 1.835.902 2.333 1.512.497.597.846 1.356 1.045 2.277.112.572.168 1.605.168 3.098v4.48c0 3.123.068 5.102.205 5.935.15.822.436 1.612.859 2.371h-3.509c-.349-.697-.573-1.512-.672-2.445Zm-.28-7.504c-1.22.498-3.049.921-5.488 1.27-1.381.199-2.358.423-2.93.672-.573.248-1.014.615-1.325 1.101a2.823 2.823 0 0 0-.467 1.586c0 .896.336 1.643 1.008 2.24.684.597 1.68.896 2.986.896 1.295 0 2.446-.28 3.453-.84 1.008-.572 1.749-1.35 2.222-2.333.36-.759.541-1.879.541-3.36v-1.232Zm21.484 9.949v-2.501c-1.257 1.966-3.105 2.949-5.544 2.949a7.822 7.822 0 0 1-4.368-1.307c-1.319-.871-2.345-2.084-3.079-3.639-.722-1.568-1.083-3.366-1.083-5.395 0-1.978.33-3.77.989-5.375.66-1.618 1.649-2.856 2.968-3.715 1.319-.858 2.794-1.288 4.424-1.288 1.194 0 2.258.256 3.191.766a6.571 6.571 0 0 1 2.278 1.96v-9.818h3.341v27.363h-3.117Zm-10.621-9.893c0 2.539.535 4.436 1.605 5.693 1.07 1.257 2.333 1.885 3.789 1.885 1.469 0 2.713-.597 3.733-1.791 1.033-1.207 1.55-3.043 1.55-5.507 0-2.712-.523-4.703-1.568-5.973-1.046-1.269-2.333-1.903-3.864-1.903-1.493 0-2.744.609-3.752 1.829-.995 1.219-1.493 3.142-1.493 5.767Zm17.788-.018c0-3.671 1.02-6.39 3.061-8.157 1.705-1.468 3.783-2.203 6.234-2.203 2.725 0 4.953.896 6.682 2.688 1.73 1.78 2.595 4.243 2.595 7.392 0 2.551-.386 4.56-1.157 6.029-.759 1.455-1.873 2.588-3.341 3.397-1.456.808-3.049 1.213-4.779 1.213-2.775 0-5.021-.89-6.738-2.669-1.705-1.78-2.557-4.343-2.557-7.69Zm3.453 0c0 2.538.554 4.442 1.661 5.711 1.108 1.257 2.501 1.885 4.181 1.885 1.668 0 3.055-.634 4.163-1.903 1.107-1.27 1.661-3.205 1.661-5.805 0-2.452-.56-4.306-1.68-5.563-1.108-1.269-2.489-1.903-4.144-1.903-1.68 0-3.073.628-4.181 1.885-1.107 1.257-1.661 3.154-1.661 5.693Zm22.734 9.911-6.066-19.823h3.472l3.154 11.442 1.176 4.256c.05-.212.392-1.574 1.027-4.088l3.154-11.61h3.453l2.968 11.498.989 3.789 1.139-3.826 3.397-11.461h3.266l-6.197 19.823h-3.49l-3.154-11.871-.766-3.379-4.013 15.25h-3.509Zm35.091 0v-27.363h12.132c2.439 0 4.293.249 5.562.746 1.27.486 2.284 1.35 3.043 2.595.759 1.244 1.138 2.619 1.138 4.125 0 1.941-.628 3.577-1.885 4.909-1.257 1.331-3.198 2.177-5.823 2.538.958.461 1.686.915 2.184 1.363 1.057.97 2.059 2.184 3.005 3.639l4.759 7.448h-4.554l-3.621-5.693c-1.058-1.643-1.929-2.899-2.613-3.77-.685-.871-1.301-1.481-1.848-1.83a5.336 5.336 0 0 0-1.643-.728c-.41-.087-1.082-.13-2.015-.13h-4.2v12.151h-3.621Zm3.621-15.287h7.783c1.655 0 2.949-.168 3.883-.504.933-.348 1.642-.896 2.127-1.642a4.484 4.484 0 0 0 .728-2.464c0-1.294-.472-2.358-1.418-3.192-.933-.834-2.414-1.251-4.442-1.251h-8.661v9.053Zm36.453 12.842c-1.244 1.057-2.445 1.804-3.602 2.24-1.145.435-2.377.653-3.696.653-2.178 0-3.851-.529-5.021-1.587-1.17-1.07-1.755-2.432-1.755-4.087 0-.971.218-1.854.654-2.651.448-.809 1.026-1.456 1.736-1.941a8.288 8.288 0 0 1 2.426-1.101c.66-.174 1.655-.342 2.987-.504 2.712-.324 4.709-.71 5.991-1.157.013-.461.019-.753.019-.878 0-1.369-.318-2.333-.952-2.893-.859-.759-2.134-1.138-3.827-1.138-1.58 0-2.75.28-3.509.84-.746.547-1.3 1.524-1.661 2.93l-3.285-.448c.299-1.406.79-2.538 1.475-3.397.684-.871 1.673-1.537 2.967-1.997 1.295-.473 2.794-.71 4.499-.71 1.692 0 3.067.2 4.125.598 1.057.398 1.835.902 2.333 1.512.498.597.846 1.356 1.045 2.277.112.572.168 1.605.168 3.098v4.48c0 3.123.069 5.102.205 5.935.15.822.436 1.612.859 2.371h-3.509c-.348-.697-.572-1.512-.672-2.445Zm-.28-7.504c-1.219.498-3.049.921-5.487 1.27-1.382.199-2.359.423-2.931.672-.572.248-1.014.615-1.325 1.101a2.823 2.823 0 0 0-.467 1.586c0 .896.336 1.643 1.008 2.24.685.597 1.68.896 2.987.896 1.294 0 2.445-.28 3.453-.84 1.008-.572 1.748-1.35 2.221-2.333.361-.759.541-1.879.541-3.36v-1.232Zm8.474 17.583-.373-3.154c.734.199 1.375.298 1.922.298.747 0 1.344-.124 1.792-.373a3.05 3.05 0 0 0 1.101-1.045c.212-.336.554-1.17 1.027-2.502a23.4 23.4 0 0 1 .299-.821l-7.522-19.86h3.621l4.125 11.48a50.867 50.867 0 0 1 1.437 4.591 45.342 45.342 0 0 1 1.381-4.517l4.237-11.554h3.36l-7.541 20.159c-.809 2.177-1.437 3.677-1.885 4.498-.597 1.108-1.282 1.916-2.053 2.427-.772.522-1.693.784-2.763.784-.647 0-1.369-.137-2.165-.411Z" fill="#8989FF"/><path d="m501.423 244.58-10.602-27.363h3.92l7.111 19.878a62.33 62.33 0 0 1 1.437 4.48 57.144 57.144 0 0 1 1.475-4.48l7.391-19.878h3.696l-10.714 27.363h-3.714Zm16.556-23.499v-3.864h3.36v3.864h-3.36Zm0 23.499v-19.822h3.36v19.822h-3.36Zm22.062-6.383 3.472.429c-.548 2.028-1.562 3.602-3.043 4.722-1.48 1.12-3.372 1.68-5.674 1.68-2.899 0-5.201-.89-6.906-2.669-1.692-1.792-2.538-4.299-2.538-7.522 0-3.335.858-5.923 2.575-7.765 1.718-1.842 3.945-2.762 6.683-2.762 2.65 0 4.815.902 6.495 2.706 1.68 1.804 2.52 4.343 2.52 7.616 0 .199-.006.497-.019.895h-14.783c.125 2.178.741 3.845 1.848 5.003 1.108 1.157 2.489 1.736 4.144 1.736 1.232 0 2.283-.324 3.154-.971s1.562-1.68 2.072-3.098Zm-11.031-5.432h11.068c-.149-1.667-.572-2.918-1.269-3.752-1.07-1.294-2.457-1.941-4.162-1.941-1.543 0-2.843.517-3.901 1.549-1.045 1.033-1.624 2.414-1.736 4.144Zm22.398 11.815-6.066-19.822h3.472l3.154 11.441 1.176 4.256c.05-.211.392-1.574 1.027-4.088l3.154-11.609h3.453l2.968 11.497.989 3.789 1.139-3.826 3.397-11.46h3.266l-6.197 19.822h-3.49l-3.154-11.871-.766-3.378-4.013 15.249h-3.509Zm35.091 0v-27.363h12.132c2.439 0 4.293.249 5.562.746 1.27.486 2.284 1.351 3.043 2.595.759 1.244 1.138 2.619 1.138 4.125 0 1.941-.628 3.577-1.885 4.909-1.257 1.331-3.198 2.178-5.823 2.538.958.461 1.686.915 2.184 1.363 1.057.971 2.059 2.184 3.005 3.64l4.759 7.447h-4.554l-3.621-5.693c-1.058-1.642-1.929-2.899-2.613-3.77-.685-.871-1.301-1.481-1.848-1.829a5.313 5.313 0 0 0-1.643-.728c-.41-.087-1.082-.131-2.015-.131h-4.2v12.151h-3.621Zm3.621-15.287h7.783c1.655 0 2.949-.168 3.883-.504.933-.348 1.642-.896 2.127-1.642a4.484 4.484 0 0 0 .728-2.464c0-1.294-.472-2.358-1.418-3.192-.933-.833-2.414-1.25-4.442-1.25h-8.661v9.052Zm36.453 12.842c-1.244 1.058-2.445 1.804-3.602 2.24-1.145.435-2.377.653-3.696.653-2.178 0-3.851-.529-5.021-1.586-1.17-1.071-1.755-2.433-1.755-4.088 0-.971.218-1.854.654-2.651.448-.808 1.026-1.456 1.736-1.941a8.288 8.288 0 0 1 2.426-1.101c.66-.174 1.655-.342 2.987-.504 2.712-.324 4.709-.709 5.991-1.157.013-.461.019-.753.019-.878 0-1.368-.318-2.333-.952-2.893-.859-.759-2.134-1.138-3.827-1.138-1.58 0-2.75.28-3.509.84-.746.547-1.3 1.524-1.661 2.93l-3.285-.448c.299-1.406.79-2.538 1.475-3.397.684-.871 1.673-1.537 2.967-1.997 1.295-.473 2.794-.709 4.499-.709 1.692 0 3.067.199 4.125.597 1.057.398 1.835.902 2.333 1.512.498.597.846 1.356 1.045 2.277.112.572.168 1.605.168 3.098v4.48c0 3.123.069 5.102.205 5.936.15.821.436 1.611.859 2.37h-3.509c-.348-.697-.572-1.512-.672-2.445Zm-.28-7.503c-1.219.497-3.049.92-5.488 1.269-1.381.199-2.358.423-2.93.672-.572.249-1.014.616-1.325 1.101a2.825 2.825 0 0 0-.467 1.586c0 .896.336 1.643 1.008 2.24.685.598 1.68.896 2.987.896 1.294 0 2.445-.28 3.453-.84 1.008-.572 1.748-1.35 2.221-2.333.361-.759.541-1.879.541-3.36v-1.231Zm8.474 17.582-.373-3.154c.734.199 1.375.298 1.922.298.747 0 1.344-.124 1.792-.373a3.05 3.05 0 0 0 1.101-1.045c.212-.336.554-1.17 1.027-2.501.062-.187.162-.461.299-.822l-7.522-19.859h3.621l4.125 11.479a50.967 50.967 0 0 1 1.437 4.591 45.342 45.342 0 0 1 1.381-4.517l4.237-11.553h3.36l-7.541 20.158c-.809 2.178-1.437 3.677-1.885 4.498-.597 1.108-1.282 1.917-2.053 2.427-.772.522-1.693.784-2.763.784-.647 0-1.369-.137-2.165-.411Z" fill="red"/><path d="M315.888 86V58.637h3.621V86h-3.621Zm9.594 0V66.178h3.005v2.78a6.984 6.984 0 0 1 2.483-2.332c1.032-.598 2.208-.896 3.527-.896 1.469 0 2.669.304 3.603.914.945.61 1.611 1.462 1.997 2.557 1.568-2.314 3.608-3.471 6.122-3.471 1.966 0 3.478.547 4.536 1.642 1.057 1.083 1.586 2.756 1.586 5.021V86H349V73.513c0-1.344-.112-2.308-.336-2.893-.211-.597-.603-1.077-1.176-1.437-.572-.361-1.244-.542-2.016-.542-1.393 0-2.551.467-3.471 1.4-.921.921-1.382 2.402-1.382 4.443V86h-3.359V73.121c0-1.493-.274-2.613-.822-3.36-.547-.746-1.443-1.12-2.687-1.12a4.93 4.93 0 0 0-2.632.747c-.797.498-1.375 1.226-1.736 2.184-.361.958-.541 2.34-.541 4.144V86h-3.36Zm44.778-2.445c-1.245 1.058-2.445 1.804-3.603 2.24-1.144.435-2.376.653-3.695.653-2.178 0-3.852-.529-5.021-1.587-1.17-1.07-1.755-2.432-1.755-4.087 0-.97.218-1.854.654-2.65.447-.81 1.026-1.457 1.735-1.942a8.294 8.294 0 0 1 2.427-1.101c.659-.174 1.655-.342 2.986-.504 2.713-.324 4.71-.71 5.992-1.157.012-.46.018-.753.018-.878 0-1.368-.317-2.333-.951-2.893-.859-.759-2.134-1.138-3.827-1.138-1.58 0-2.75.28-3.509.84-.746.547-1.3 1.524-1.661 2.93l-3.285-.448c.298-1.406.79-2.538 1.474-3.397.685-.871 1.674-1.537 2.968-1.997 1.294-.473 2.794-.71 4.498-.71 1.693 0 3.068.2 4.125.598 1.058.398 1.836.902 2.334 1.512.497.597.846 1.356 1.045 2.277.112.572.168 1.605.168 3.098v4.48c0 3.123.068 5.102.205 5.935.15.822.436 1.612.859 2.371h-3.509c-.349-.697-.573-1.512-.672-2.445Zm-.28-7.504c-1.22.498-3.049.921-5.488 1.27-1.381.199-2.358.423-2.93.672-.573.249-1.014.616-1.325 1.1a2.817 2.817 0 0 0-.467 1.587c0 .896.336 1.643 1.008 2.24.684.597 1.68.896 2.986.896 1.294 0 2.445-.28 3.453-.84 1.008-.572 1.749-1.35 2.222-2.333.36-.759.541-1.879.541-3.36v-1.232Zm8.007 11.591 3.267.486c.136 1.008.516 1.742 1.138 2.202.834.623 1.972.934 3.416.934 1.555 0 2.756-.311 3.602-.934.846-.622 1.419-1.493 1.717-2.613.175-.684.256-2.121.243-4.311-1.468 1.73-3.297 2.594-5.487 2.594-2.726 0-4.835-.983-6.328-2.95-1.493-1.965-2.24-4.323-2.24-7.073 0-1.892.342-3.634 1.027-5.227.684-1.605 1.673-2.843 2.968-3.714 1.306-.87 2.837-1.306 4.591-1.306 2.34 0 4.268.945 5.786 2.837v-2.39h3.099v17.135c0 3.086-.317 5.27-.952 6.552-.622 1.294-1.618 2.314-2.986 3.06-1.357.747-3.03 1.12-5.021 1.12-2.365 0-4.275-.534-5.731-1.605-1.456-1.057-2.159-2.656-2.109-4.796Zm2.781-11.908c0 2.6.517 4.499 1.55 5.693 1.032 1.195 2.326 1.792 3.882 1.792 1.543 0 2.837-.591 3.882-1.773 1.045-1.195 1.568-3.061 1.568-5.6 0-2.426-.541-4.255-1.624-5.487-1.07-1.232-2.364-1.848-3.882-1.848-1.493 0-2.763.61-3.808 1.829-1.045 1.207-1.568 3.005-1.568 5.394Zm32.683 3.883 3.472.429c-.548 2.028-1.562 3.602-3.043 4.722-1.48 1.12-3.372 1.68-5.674 1.68-2.899 0-5.201-.89-6.906-2.67-1.692-1.791-2.538-4.298-2.538-7.521 0-3.335.858-5.923 2.575-7.765 1.718-1.842 3.945-2.762 6.683-2.762 2.65 0 4.815.902 6.495 2.706 1.68 1.804 2.52 4.343 2.52 7.615 0 .2-.006.498-.019.896h-14.783c.125 2.178.741 3.845 1.848 5.003 1.108 1.157 2.489 1.736 4.144 1.736 1.232 0 2.283-.324 3.154-.971s1.562-1.68 2.072-3.099Zm-11.031-5.432h11.068c-.149-1.668-.572-2.918-1.269-3.752-1.07-1.294-2.457-1.941-4.162-1.941-1.543 0-2.843.516-3.901 1.55-1.045 1.032-1.624 2.413-1.736 4.143ZM124.569 130.968l3.621.915c-.759 2.974-2.128 5.245-4.106 6.812-1.966 1.556-4.374 2.334-7.224 2.334-2.949 0-5.351-.598-7.205-1.792-1.841-1.207-3.247-2.949-4.218-5.226-.958-2.278-1.437-4.723-1.437-7.336 0-2.849.541-5.332 1.624-7.447 1.095-2.128 2.644-3.74 4.647-4.835 2.016-1.107 4.231-1.661 6.645-1.661 2.738 0 5.04.697 6.906 2.091 1.867 1.393 3.167 3.353 3.901 5.879l-3.565.84c-.634-1.991-1.555-3.44-2.762-4.349-1.207-.908-2.725-1.362-4.554-1.362-2.103 0-3.864.504-5.283 1.511-1.406 1.008-2.395 2.365-2.968 4.07a16.265 16.265 0 0 0-.858 5.244c0 2.327.336 4.362 1.008 6.104.684 1.73 1.742 3.024 3.173 3.882a8.87 8.87 0 0 0 4.648 1.288c2.028 0 3.745-.585 5.151-1.754 1.406-1.17 2.358-2.906 2.856-5.208Zm20.606 7.149c-1.244 1.058-2.445 1.804-3.602 2.24-1.145.435-2.377.653-3.696.653-2.177 0-3.851-.529-5.021-1.587-1.169-1.07-1.754-2.432-1.754-4.087 0-.971.217-1.854.653-2.651.448-.809 1.027-1.456 1.736-1.941a8.3 8.3 0 0 1 2.426-1.101c.66-.174 1.655-.342 2.987-.504 2.712-.324 4.71-.709 5.991-1.157.013-.461.019-.753.019-.878 0-1.368-.317-2.333-.952-2.893-.859-.759-2.134-1.138-3.826-1.138-1.581 0-2.75.28-3.509.84-.747.547-1.301 1.524-1.662 2.93l-3.285-.448c.299-1.406.791-2.538 1.475-3.397.684-.871 1.674-1.537 2.968-1.997 1.294-.473 2.793-.709 4.498-.709 1.692 0 3.067.199 4.125.597 1.058.398 1.835.902 2.333 1.512.498.597.846 1.356 1.045 2.277.112.572.168 1.605.168 3.098v4.48c0 3.123.069 5.102.206 5.936.149.821.435 1.611.858 2.37h-3.509c-.348-.697-.572-1.512-.672-2.445Zm-.28-7.504c-1.219.498-3.048.921-5.487 1.27-1.381.199-2.358.423-2.931.672-.572.249-1.014.616-1.325 1.101a2.825 2.825 0 0 0-.467 1.586c0 .896.336 1.643 1.008 2.24.685.598 1.68.896 2.987.896 1.294 0 2.445-.28 3.453-.84 1.008-.572 1.748-1.35 2.221-2.333.361-.759.541-1.879.541-3.36v-1.232Zm8.624 9.949V120.74h3.005v2.781a6.97 6.97 0 0 1 2.482-2.333c1.033-.598 2.209-.896 3.528-.896 1.468 0 2.669.304 3.602.914.946.61 1.612 1.462 1.998 2.557 1.567-2.314 3.608-3.471 6.122-3.471 1.966 0 3.478.547 4.535 1.642 1.058 1.083 1.587 2.756 1.587 5.021v13.607h-3.341v-12.487c0-1.344-.112-2.308-.336-2.893-.212-.597-.604-1.076-1.176-1.437s-1.244-.542-2.016-.542c-1.394 0-2.551.467-3.472 1.4-.92.921-1.381 2.402-1.381 4.443v11.516h-3.36v-12.879c0-1.493-.273-2.613-.821-3.36-.547-.746-1.443-1.12-2.688-1.12-.945 0-1.823.249-2.631.747-.797.498-1.375 1.226-1.736 2.184-.361.958-.542 2.339-.542 4.143v10.285h-3.359Zm45.412-6.383 3.472.429c-.548 2.028-1.562 3.602-3.043 4.722-1.48 1.12-3.372 1.68-5.674 1.68-2.899 0-5.201-.89-6.906-2.669-1.692-1.792-2.538-4.299-2.538-7.522 0-3.335.858-5.923 2.575-7.765 1.718-1.842 3.945-2.762 6.683-2.762 2.65 0 4.815.902 6.495 2.706 1.68 1.804 2.52 4.343 2.52 7.615 0 .2-.006.498-.019.896h-14.783c.125 2.178.741 3.845 1.848 5.003 1.108 1.157 2.489 1.736 4.144 1.736 1.232 0 2.283-.324 3.154-.971s1.562-1.68 2.072-3.098Zm-11.031-5.432h11.068c-.149-1.667-.572-2.918-1.269-3.752-1.07-1.294-2.457-1.941-4.162-1.941-1.543 0-2.843.516-3.901 1.549-1.045 1.033-1.624 2.414-1.736 4.144Zm18.702 11.815V120.74h3.024v3.005c.772-1.406 1.481-2.333 2.128-2.781a3.774 3.774 0 0 1 2.165-.672c1.133 0 2.284.36 3.453 1.082l-1.157 3.117c-.821-.485-1.642-.728-2.464-.728a3.17 3.17 0 0 0-1.978.672c-.585.436-1.002 1.046-1.251 1.829-.373 1.195-.56 2.502-.56 3.92v10.378h-3.36Zm25.702-2.445c-1.244 1.058-2.445 1.804-3.602 2.24-1.145.435-2.377.653-3.696.653-2.177 0-3.851-.529-5.021-1.587-1.169-1.07-1.754-2.432-1.754-4.087 0-.971.218-1.854.653-2.651.448-.809 1.027-1.456 1.736-1.941a8.306 8.306 0 0 1 2.427-1.101c.659-.174 1.655-.342 2.986-.504 2.713-.324 4.71-.709 5.992-1.157.012-.461.018-.753.018-.878 0-1.368-.317-2.333-.952-2.893-.858-.759-2.134-1.138-3.826-1.138-1.58 0-2.75.28-3.509.84-.747.547-1.301 1.524-1.661 2.93l-3.285-.448c.298-1.406.79-2.538 1.474-3.397.684-.871 1.674-1.537 2.968-1.997 1.294-.473 2.793-.709 4.498-.709 1.692 0 3.067.199 4.125.597 1.058.398 1.836.902 2.333 1.512.498.597.846 1.356 1.046 2.277.112.572.168 1.605.168 3.098v4.48c0 3.123.068 5.102.205 5.936.149.821.435 1.611.858 2.37h-3.509c-.348-.697-.572-1.512-.672-2.445Zm-.279-7.504c-1.22.498-3.049.921-5.488 1.27-1.381.199-2.358.423-2.931.672-.572.249-1.014.616-1.325 1.101a2.824 2.824 0 0 0-.466 1.586c0 .896.336 1.643 1.008 2.24.684.598 1.679.896 2.986.896 1.294 0 2.445-.28 3.453-.84 1.008-.572 1.748-1.35 2.221-2.333.361-.759.542-1.879.542-3.36v-1.232Z" fill="#000"/><defs><radialGradient id="a" cx="0" cy="0" r="1" gradientUnits="userSpaceOnUse" gradientTransform="matrix(151.5398 -.24111 .23901 150.21781 683.876 327.033)"><stop stop-color="#FFEAC9"/><stop offset=".327" stop-color="#FFDBA5"/><stop offset="1" stop-color="#EB8D00"/></radialGradient></defs></svg>